<svg xmlns="http://www.w3.org/2000/svg" width="749.052" height="276.256" viewBox="0 0 749.052 276.256">
  <g id="グループ_261" data-name="グループ 261" transform="translate(0.5 -565.5)" opacity="0.75">
    <path id="合体_13" data-name="合体 13" d="M23.9,129.139a39.292,39.292,0,0,1-12.988-6.133,27.28,27.28,0,0,1-8.118-9.377A25.547,25.547,0,0,1,0,101.726,32.121,32.121,0,0,1,3.518,86.214a39.8,39.8,0,0,1,9.2-11.362,65.6,65.6,0,0,1,13.165-8.657q7.481-3.789,15.24-7.214a41.881,41.881,0,0,0,4.869-2.615,7.892,7.892,0,0,0,2.8-3.158,15.582,15.582,0,0,0,1.353-5.14,77.4,77.4,0,0,0,.36-8.385,44.782,44.782,0,0,1,2.524-15.063,35.861,35.861,0,0,1,7.667-12.624A36.621,36.621,0,0,1,73.679,3.247,47.618,47.618,0,0,1,91.985,0a38.689,38.689,0,0,1,8.657.993,24.582,24.582,0,0,1,7.846,3.246,18.928,18.928,0,0,1,5.772,5.773,15.2,15.2,0,0,1,2.254,8.385,20.887,20.887,0,0,1-2.705,10.641,26.161,26.161,0,0,1-7.034,7.936,31.244,31.244,0,0,1-9.56,4.871,34.609,34.609,0,0,1-10.281,1.622,31.6,31.6,0,0,1-4.869-.362,16.713,16.713,0,0,1-3.247-.72L79,40.4q2.342.9,7.936.9a17.53,17.53,0,0,0,9.47-2.526,24.5,24.5,0,0,0,6.762-6.131,27.207,27.207,0,0,0,4.058-7.574,22.093,22.093,0,0,0,1.353-7.034q0-8.295-4.871-12.087T90.183,2.164A23.97,23.97,0,0,0,76.837,5.68a27.657,27.657,0,0,0-8.661,8.838,38.937,38.937,0,0,0-4.689,11.545,51.019,51.019,0,0,0-1.443,11.452A21.645,21.645,0,0,1,59.159,49.06a20.248,20.248,0,0,1-9.2,7.574q-7.035,3.247-13.978,6.491a54.737,54.737,0,0,0-12.356,7.848,35.6,35.6,0,0,0-8.745,11.183q-3.343,6.582-3.339,16.681a27.38,27.38,0,0,0,2.347,11,29.475,29.475,0,0,0,6.491,9.47,32.567,32.567,0,0,0,22.907,9.108,51.575,51.575,0,0,0,13.706-1.985,46.349,46.349,0,0,0,13.258-5.952,34.481,34.481,0,0,0,10.009-10.011,25.2,25.2,0,0,0,3.967-14.159q0-7.933-3.246-12.084t-10.46-4.146a20.893,20.893,0,0,0-7.4,1.352,31.124,31.124,0,0,0-6.853,3.607,40.924,40.924,0,0,0-6.044,5.141,44.829,44.829,0,0,0-4.78,5.77l-1.262-.9A46.7,46.7,0,0,1,57.265,82.6a31.782,31.782,0,0,1,17.227-4.687q9.737,0,14.61,4.959a16.719,16.719,0,0,1,4.869,12.175q0,6.493-4.869,12.895a53.922,53.922,0,0,1-12.447,11.634,70.215,70.215,0,0,1-16.862,8.475A55.23,55.23,0,0,1,41.484,131.3,64.768,64.768,0,0,1,23.9,129.139Zm588.056-3.154q-4.151-3.878-4.15-11.092a31.188,31.188,0,0,1,2.23-11.175c-1.316,1.507-2.651,3.011-4.031,4.5q-3.969,4.329-8.115,8.3a77.149,77.149,0,0,1-8.3,6.944,42.556,42.556,0,0,1-8.206,4.69,20.565,20.565,0,0,1-8.027,1.713,12.984,12.984,0,0,1-8.656-2.886,9.812,9.812,0,0,1-3.428-7.936q0-5.411,4.329-11.815t9.56-12.895q5.228-6.493,9.56-12.444t4.329-10.464a3.805,3.805,0,0,0-1.443-3.246,6.153,6.153,0,0,0-3.788-1.081q-4.511,0-10.1,3.337a67.581,67.581,0,0,0-11.455,8.836,164.369,164.369,0,0,0-11.722,12.266q-5.862,6.764-10.913,13.525t-9.017,12.988a102.108,102.108,0,0,0-5.952,10.371H513.48q4.694-7.935,10.012-16.144c.593-.916,1.174-1.806,1.766-2.719-.563.574-1.1,1.156-1.674,1.728a108.128,108.128,0,0,1-10.641,9.379,63.47,63.47,0,0,1-10.55,6.672,21.717,21.717,0,0,1-9.47,2.526q-4.871,0-7.216-2.705a8.908,8.908,0,0,1-2.343-5.952,21.4,21.4,0,0,1,1.713-8.025,60.239,60.239,0,0,1,3.594-7.164c-1.973,2.242-3.977,4.43-6.027,6.532A97.767,97.767,0,0,1,468.214,124.9q-7.215,4.96-13.528,4.959-5.231,0-7.664-2.615a8.813,8.813,0,0,1-2.433-6.223,15.613,15.613,0,0,1,.809-4.961q.811-2.436,1.713-4.959l-.36-.181q-2.347,2.529-5.861,5.861a69.192,69.192,0,0,1-7.576,6.223,51.506,51.506,0,0,1-8.387,4.871,19.934,19.934,0,0,1-8.3,1.984q-6.675,0-9.379-4.148a16.782,16.782,0,0,1-2.707-9.381,30.68,30.68,0,0,1,2.2-10.818q-3.928,4.118-7.975,7.843a95.982,95.982,0,0,1-15.6,11.815q-7.846,4.691-14.882,4.689a14.488,14.488,0,0,1-9.649-3.428q-4.057-3.424-4.058-9.56a22.723,22.723,0,0,1,2.343-9.288,92.331,92.331,0,0,1,6.133-11.092c1.385-2.178,2.881-4.474,4.466-6.868a29.116,29.116,0,0,1-5.184,2.629,17.5,17.5,0,0,1-6.314,1.173,12.562,12.562,0,0,1-9.289-3.516q-3.515-3.518-3.518-9.83a15.173,15.173,0,0,1,1.985-7.755l-.36-.363a142.845,142.845,0,0,0-16.233,13.258q-8.84,8.209-18.758,19.39a65.847,65.847,0,0,0-7.485,10.462,106.5,106.5,0,0,0-6.763,13.346H283.885c4.775-7.6,9.546-15.137,14.321-22.674-2.423,2.347-4.913,4.656-7.556,6.892a99.422,99.422,0,0,1-12.175,8.838,66.413,66.413,0,0,1-12.716,6.133,37.627,37.627,0,0,1-12.533,2.254q-7.575,0-11.724-3.878t-4.15-11.092a33.059,33.059,0,0,1,3.469-14.088,175.54,175.54,0,0,1-12.305,12.554,95.989,95.989,0,0,1-15.6,11.815q-7.846,4.691-14.88,4.689a14.481,14.481,0,0,1-9.649-3.428q-4.06-3.424-4.058-9.56a22.723,22.723,0,0,1,2.343-9.288c.243-.534.519-1.086.786-1.632-.678.757-1.35,1.514-2.044,2.264q-3.971,4.329-8.115,8.3a77.169,77.169,0,0,1-8.3,6.944,42.5,42.5,0,0,1-8.2,4.69,20.571,20.571,0,0,1-8.027,1.713,12.986,12.986,0,0,1-8.657-2.886,9.812,9.812,0,0,1-3.428-7.936q0-5.411,4.33-11.815t9.558-12.895q5.231-6.493,9.56-12.444t4.329-10.464a3.8,3.8,0,0,0-1.443-3.246,6.148,6.148,0,0,0-3.786-1.081q-4.511,0-10.1,3.337a67.58,67.58,0,0,0-11.455,8.836A164.7,164.7,0,0,0,129.95,91.536q-5.862,6.764-10.913,13.525t-9.016,12.988a102.165,102.165,0,0,0-5.954,10.371H92.886q4.694-7.935,10.011-16.144t10.551-16.23q5.226-8.026,10.009-15.514t8.566-13.618l11.726-.541L119.941,99.381l.358.36q3.791-4.5,8.838-10.55a128.936,128.936,0,0,1,10.823-11.454,69.4,69.4,0,0,1,11.994-9.108,24.052,24.052,0,0,1,12.354-3.7q5.411,0,8.385,2.975a10.373,10.373,0,0,1,2.975,7.666,15.385,15.385,0,0,1-2.071,6.855,86.276,86.276,0,0,1-5.141,8.475q-3.069,4.511-6.674,9.2t-6.674,8.928q-3.069,4.24-5.14,7.755a12.306,12.306,0,0,0-2.075,5.863q0,5.051,5.05,5.05,5.773,0,12.265-3.879t15.512-13.074q3.606-3.609,7.3-7.936c1.12-1.313,2.215-2.614,3.3-3.913.476-.792.963-1.587,1.478-2.4q3.791-5.953,8.568-12.986t9.83-14.97h-9.737l1.081-2.166h10.1l14.067-20.922h10.823L223.287,66.373h23.806l-1.081,2.166H221.843q-7.215,11.724-12.9,20.292t-9.56,14.789a103.774,103.774,0,0,0-5.861,10.46,18.038,18.038,0,0,0-1.982,7.485q0,3.429,2.345,4.78A10.609,10.609,0,0,0,199.3,127.7q6.493,0,14.338-4.961a106.831,106.831,0,0,0,15.6-12.173A198.346,198.346,0,0,0,243.657,95.65,72.86,72.86,0,0,1,270.541,69.8q8.832-4.869,16.953-4.869a11.507,11.507,0,0,1,7.034,1.894,6.455,6.455,0,0,1,2.528,5.5q0,4.329-4.69,8.385a53.852,53.852,0,0,1-11.454,7.4,117.56,117.56,0,0,1-14.518,5.952,124.352,124.352,0,0,1-13.708,3.878,37.979,37.979,0,0,0-3.249,8.117,33.27,33.27,0,0,0-1.26,9.019,20.007,20.007,0,0,0,.449,4.239,13.023,13.023,0,0,0,1.443,3.786,7.948,7.948,0,0,0,2.707,2.795,7.78,7.78,0,0,0,4.239,1.083q5.951,0,13.978-3.878a90.919,90.919,0,0,0,16.321-10.371,130.309,130.309,0,0,0,15.725-14.635l.326-.517q9.74-15.328,20.02-31.2h11L311.479,99.741l.363.362q2.522-3.064,6.4-7.125t8.475-8.3q4.6-4.235,9.652-8.387t9.92-7.4a10.951,10.951,0,0,1,1.984-2.886q1.082-1.082,4.327-1.081,1.987,0,3.519.09c1.019.063,2.073.152,3.154.27a46.4,46.4,0,0,0-5.951,7.485,17.3,17.3,0,0,0-2.886,9.651,9.449,9.449,0,0,0,2.075,6.493,6.583,6.583,0,0,0,5.14,2.345,13.836,13.836,0,0,0,5.32-1.083,26.419,26.419,0,0,0,4.959-2.707c.725-.5,1.391-1.059,2.09-1.588.531-.786,1.056-1.571,1.605-2.379q4.78-7.035,9.832-14.97h-9.739l1.081-2.166h10.1L396.97,45.451h10.823L393.545,66.373h23.808l-1.081,2.166H392.1q-7.218,11.724-12.9,20.292t-9.558,14.789a103.781,103.781,0,0,0-5.861,10.46,18.017,18.017,0,0,0-1.984,7.485q0,3.429,2.345,4.78a10.61,10.61,0,0,0,5.41,1.353q6.49,0,14.336-4.961a106.74,106.74,0,0,0,15.6-12.173c3.046-2.835,6-5.79,8.885-8.835.274-.569.549-1.137.853-1.718a79.045,79.045,0,0,1,11.9-16.772,74.3,74.3,0,0,1,15.693-13.076q8.472-5.231,16.051-5.231a18.357,18.357,0,0,1,6.312.992,12.9,12.9,0,0,1,4.509,2.705,12.578,12.578,0,0,1,2.8,3.878,23.6,23.6,0,0,1,1.532,4.509h.362l5.951-10.643H486.07q-6.676,9.382-12.805,18.219t-10.913,16.323q-4.78,7.484-7.666,13.165t-2.884,8.928q0,4.694,4.869,4.69,3.786,0,9.651-3.7a84.75,84.75,0,0,0,12.712-10.19A176.579,176.579,0,0,0,493.1,98.659c.184-.221.363-.449.544-.671,1.958-3.013,4.187-6.339,6.758-10.061q6.042-8.746,14.52-21.554h11.543q-9.922,14.253-16.774,23.989T498.6,106.6a110.818,110.818,0,0,0-6.133,10.279,14.714,14.714,0,0,0-1.892,6.133q0,4.694,3.786,4.69a18.029,18.029,0,0,0,8.385-2.615,71.533,71.533,0,0,0,10.011-6.763,122.988,122.988,0,0,0,10.462-9.379c2.675-2.676,5.189-5.331,7.617-7.97,1.064-1.635,2.142-3.3,3.2-4.925q5.226-8.026,10.011-15.514t8.566-13.618l11.726-.541-23.81,33.007.36.36q3.789-4.5,8.838-10.55a128.908,128.908,0,0,1,10.822-11.454,69.526,69.526,0,0,1,11.994-9.108,24.056,24.056,0,0,1,12.354-3.7q5.413,0,8.387,2.975a10.379,10.379,0,0,1,2.975,7.666,15.369,15.369,0,0,1-2.073,6.855,86.234,86.234,0,0,1-5.14,8.475q-3.069,4.511-6.674,9.2T575.7,109.03q-3.069,4.24-5.14,7.755a12.306,12.306,0,0,0-2.075,5.863q0,5.051,5.05,5.05,5.773,0,12.265-3.879t15.512-13.074q3.6-3.609,7.3-7.936c1.441-1.69,2.844-3.362,4.224-5.032A70.821,70.821,0,0,1,624.76,82.066c.162-.161.331-.3.493-.46.412-.6.8-1.183,1.134-1.7l.428.245A71.532,71.532,0,0,1,640.995,69.8q8.832-4.869,16.953-4.869a11.511,11.511,0,0,1,7.034,1.894,6.455,6.455,0,0,1,2.528,5.5q0,4.329-4.69,8.385a53.851,53.851,0,0,1-11.454,7.4,117.558,117.558,0,0,1-14.518,5.952,124.267,124.267,0,0,1-13.709,3.878,38.057,38.057,0,0,0-3.247,8.117,33.268,33.268,0,0,0-1.26,9.019,19.9,19.9,0,0,0,.449,4.239,12.976,12.976,0,0,0,1.443,3.786,7.948,7.948,0,0,0,2.707,2.795,7.78,7.78,0,0,0,4.239,1.083q5.948,0,13.978-3.878a90.978,90.978,0,0,0,16.321-10.371,130.307,130.307,0,0,0,15.725-14.635l.326-.517q9.74-15.328,20.02-31.2h11L681.933,99.741l.363.362q2.522-3.064,6.4-7.125t8.475-8.3q4.6-4.235,9.653-8.387t9.92-7.4a10.991,10.991,0,0,1,1.983-2.886q1.082-1.082,4.327-1.081,1.987,0,3.518.09c1.021.063,2.075.152,3.156.27a46.4,46.4,0,0,0-5.951,7.485,17.3,17.3,0,0,0-2.886,9.651,9.448,9.448,0,0,0,2.075,6.493,6.583,6.583,0,0,0,5.14,2.345,13.836,13.836,0,0,0,5.32-1.083,26.418,26.418,0,0,0,4.959-2.707q2.344-1.625,4.511-3.425t3.786-3.249l1.083.723q-1.8,1.8-4.148,3.878a46.526,46.526,0,0,1-5.052,3.878,29.034,29.034,0,0,1-5.77,2.975,17.5,17.5,0,0,1-6.314,1.173,12.562,12.562,0,0,1-9.289-3.516q-3.515-3.518-3.518-9.83a15.173,15.173,0,0,1,1.985-7.755l-.36-.363a142.848,142.848,0,0,0-16.235,13.258q-8.837,8.209-18.756,19.39a65.849,65.849,0,0,0-7.485,10.462,106.49,106.49,0,0,0-6.763,13.346H654.339c4.775-7.6,9.546-15.137,14.321-22.674-2.423,2.347-4.913,4.656-7.557,6.892a99.274,99.274,0,0,1-12.173,8.838,66.415,66.415,0,0,1-12.716,6.133,37.629,37.629,0,0,1-12.535,2.254Q616.106,129.862,611.956,125.985Zm-169.895-54.2a63.6,63.6,0,0,0-12.624,11.993,75.085,75.085,0,0,0-10.012,16.142,40.632,40.632,0,0,0-4.057,16.953,10.386,10.386,0,0,0,1.713,6.4,5.651,5.651,0,0,0,4.782,2.256,15.63,15.63,0,0,0,7.214-2.256,53.092,53.092,0,0,0,8.656-6.04,87,87,0,0,0,8.928-8.749,74.1,74.1,0,0,0,7.848-10.551A66.289,66.289,0,0,0,460.1,86.575a31.327,31.327,0,0,0,2.166-11,7.766,7.766,0,0,0-8.118-8.477Q448.734,67.1,442.061,71.787Zm203.893-1.715a56.627,56.627,0,0,0-8.747,7.4,73.575,73.575,0,0,0-7.846,9.468,58.921,58.921,0,0,0-5.32,9.019,68.441,68.441,0,0,0,9.921-2.8,72.028,72.028,0,0,0,11.452-5.141,41,41,0,0,0,9.468-7.123,12.357,12.357,0,0,0,3.967-8.747,4.948,4.948,0,0,0-1.352-3.788,4.716,4.716,0,0,0-3.339-1.262A14.958,14.958,0,0,0,645.954,70.072Zm-370.454,0a56.623,56.623,0,0,0-8.747,7.4,73.717,73.717,0,0,0-7.846,9.468,58.922,58.922,0,0,0-5.32,9.019,68.443,68.443,0,0,0,9.921-2.8,72.03,72.03,0,0,0,11.452-5.141,41,41,0,0,0,9.468-7.123,12.357,12.357,0,0,0,3.967-8.747,4.948,4.948,0,0,0-1.352-3.788,4.715,4.715,0,0,0-3.337-1.262A14.958,14.958,0,0,0,275.5,70.072ZM532.783,43.017a6.339,6.339,0,0,1,0-8.477,5.878,5.878,0,0,1,8.3,0,6.344,6.344,0,0,1,0,8.477,5.878,5.878,0,0,1-8.3,0Z" transform="translate(0 566)" fill="#fff"/>
    <path id="合体_13_-_アウトライン" data-name="合体 13 - アウトライン" d="M41.484,131.8a65.573,65.573,0,0,1-17.719-2.183,39.97,39.97,0,0,1-13.151-6.214,27.9,27.9,0,0,1-8.263-9.548A26.155,26.155,0,0,1-.5,101.726a32.76,32.76,0,0,1,3.578-15.75,40.492,40.492,0,0,1,9.314-11.5,66.4,66.4,0,0,1,13.265-8.724c4.957-2.51,10.09-4.941,15.257-7.223a41.568,41.568,0,0,0,4.805-2.58,7.437,7.437,0,0,0,2.622-2.962,15.18,15.18,0,0,0,1.3-4.974A77.324,77.324,0,0,0,50,39.681a45.5,45.5,0,0,1,2.553-15.229,36.527,36.527,0,0,1,7.773-12.8A37.28,37.28,0,0,1,73.488,2.785,48.334,48.334,0,0,1,91.985-.5,39.366,39.366,0,0,1,100.754.506a25.2,25.2,0,0,1,8,3.312,19.516,19.516,0,0,1,5.923,5.924,15.763,15.763,0,0,1,2.333,8.655,21.473,21.473,0,0,1-2.772,10.891,26.784,26.784,0,0,1-7.167,8.086,31.884,31.884,0,0,1-9.711,4.949,35.274,35.274,0,0,1-10.429,1.645,32.256,32.256,0,0,1-4.946-.368,16.921,16.921,0,0,1-3.357-.75l-.345-.139.275-3.016.618.239c1.492.576,4.1.869,7.756.869a17.126,17.126,0,0,0,9.206-2.45,24.131,24.131,0,0,0,6.626-6.007,26.829,26.829,0,0,0,3.985-7.436,21.721,21.721,0,0,0,1.327-6.872,18.734,18.734,0,0,0-1.182-6.983,11.141,11.141,0,0,0-3.5-4.71C100.26,3.9,95.812,2.664,90.183,2.664A28.274,28.274,0,0,0,83,3.526,20.226,20.226,0,0,0,77.109,6.1a27.281,27.281,0,0,0-8.507,8.68,38.622,38.622,0,0,0-4.628,11.4,50.749,50.749,0,0,0-1.43,11.339,22.234,22.234,0,0,1-2.96,11.807,20.832,20.832,0,0,1-9.416,7.767c-4.621,2.132-9.323,4.316-13.974,6.49a54.5,54.5,0,0,0-12.244,7.776,35.258,35.258,0,0,0-8.623,11.028c-2.18,4.291-3.285,9.828-3.285,16.455a27.016,27.016,0,0,0,2.305,10.8,29.118,29.118,0,0,0,6.382,9.312,32.067,32.067,0,0,0,22.558,8.966,51.309,51.309,0,0,0,13.573-1.967,46.074,46.074,0,0,0,13.116-5.888,34.131,34.131,0,0,0,9.866-9.867,22.958,22.958,0,0,0,2.912-6.42,27.691,27.691,0,0,0,.973-7.465c0-5.15-1.056-9.112-3.14-11.776a9.446,9.446,0,0,0-4.029-2.952,16.442,16.442,0,0,0-6.037-1A20.487,20.487,0,0,0,63.3,81.9a30.776,30.776,0,0,0-6.743,3.55,40.6,40.6,0,0,0-5.97,5.079,44.512,44.512,0,0,0-4.727,5.705l-.288.419L43.49,95.167l.294-.408A47.411,47.411,0,0,1,57,82.181a30.485,30.485,0,0,1,8.184-3.574,35.492,35.492,0,0,1,9.309-1.189,27.143,27.143,0,0,1,8.682,1.267,15.808,15.808,0,0,1,6.284,3.842,17.274,17.274,0,0,1,5.013,12.525c0,4.423-1.673,8.863-4.971,13.2a54.678,54.678,0,0,1-12.561,11.743,71.035,71.035,0,0,1-16.981,8.535A55.989,55.989,0,0,1,41.484,131.8ZM91.985.5A47.349,47.349,0,0,0,73.87,3.709a36.291,36.291,0,0,0-12.812,8.626A35.533,35.533,0,0,0,53.5,24.786a44.5,44.5,0,0,0-2.5,14.9,78.264,78.264,0,0,1-.363,8.442,16.15,16.15,0,0,1-1.4,5.307,8.425,8.425,0,0,1-2.971,3.354,42.588,42.588,0,0,1-4.929,2.649l-.011,0c-5.153,2.276-10.272,4.7-15.216,7.2a65.406,65.406,0,0,0-13.066,8.591A39.5,39.5,0,0,0,3.957,86.452,31.779,31.779,0,0,0,.5,101.726,25.166,25.166,0,0,0,3.239,113.4a26.908,26.908,0,0,0,7.973,9.206,38.981,38.981,0,0,0,12.825,6.053A64.583,64.583,0,0,0,41.484,130.8a55,55,0,0,0,18.143-3.219A70.035,70.035,0,0,0,76.37,119.17,53.68,53.68,0,0,0,88.7,107.644a25.212,25.212,0,0,0,3.582-6.3,17.79,17.79,0,0,0,1.185-6.295,17.331,17.331,0,0,0-1.182-6.464,16.288,16.288,0,0,0-3.544-5.36,14.818,14.818,0,0,0-5.892-3.6,26.155,26.155,0,0,0-8.361-1.214,34.491,34.491,0,0,0-9.046,1.154,29.479,29.479,0,0,0-7.915,3.456A46.254,46.254,0,0,0,44.89,94.938l.44.314a46.23,46.23,0,0,1,4.542-5.417,41.6,41.6,0,0,1,6.117-5.2,31.778,31.778,0,0,1,6.963-3.665,21.483,21.483,0,0,1,7.571-1.383c4.947,0,8.6,1.459,10.854,4.338A14.669,14.669,0,0,1,83.9,89.2a27.682,27.682,0,0,1,.828,7.117,25.806,25.806,0,0,1-4.049,14.433A35.126,35.126,0,0,1,70.527,120.9a47.069,47.069,0,0,1-13.4,6.017,52.3,52.3,0,0,1-13.838,2,33.067,33.067,0,0,1-23.257-9.251,30.112,30.112,0,0,1-6.6-9.629,28.007,28.007,0,0,1-2.388-11.2,47.838,47.838,0,0,1,.843-9.318,29.575,29.575,0,0,1,2.55-7.59A36.251,36.251,0,0,1,23.3,70.593a55.5,55.5,0,0,1,12.468-7.92c4.653-2.174,9.356-4.359,13.98-6.492A19.861,19.861,0,0,0,58.733,48.8a21.257,21.257,0,0,0,2.812-11.283A51.747,51.747,0,0,1,63,25.95a39.618,39.618,0,0,1,4.749-11.692,28.273,28.273,0,0,1,8.815-9,24.572,24.572,0,0,1,13.618-3.6,29.272,29.272,0,0,1,7.845.966,17.258,17.258,0,0,1,5.987,2.926,12.128,12.128,0,0,1,3.81,5.126,19.718,19.718,0,0,1,1.254,7.356,22.694,22.694,0,0,1-1.38,7.2,27.825,27.825,0,0,1-4.132,7.713,25.124,25.124,0,0,1-6.9,6.256,18.109,18.109,0,0,1-9.734,2.6,28.3,28.3,0,0,1-7.5-.726l-.088.966a20.964,20.964,0,0,0,2.789.568,31.265,31.265,0,0,0,4.794.356,34.274,34.274,0,0,0,10.133-1.6,30.887,30.887,0,0,0,9.408-4.793,25.792,25.792,0,0,0,6.9-7.786A20.487,20.487,0,0,0,116.015,18.4a14.783,14.783,0,0,0-2.175-8.116,18.523,18.523,0,0,0-5.621-5.622,24.2,24.2,0,0,0-7.688-3.179A38.364,38.364,0,0,0,91.985.5ZM623.679,130.362c-5.16,0-9.219-1.35-12.064-4.012a12.737,12.737,0,0,1-3.239-4.9,18.725,18.725,0,0,1-1.069-6.556,30.355,30.355,0,0,1,1.428-8.94c-.848.954-1.621,1.806-2.362,2.606-2.656,2.9-5.394,5.7-8.136,8.317a78.012,78.012,0,0,1-8.351,6.989,43.266,43.266,0,0,1-8.3,4.745,21.154,21.154,0,0,1-8.222,1.753,13.522,13.522,0,0,1-8.978-3,10.329,10.329,0,0,1-3.606-8.318c0-3.695,1.485-7.764,4.414-12.1,2.894-4.277,6.119-8.626,9.585-12.928s6.68-8.488,9.545-12.424c2.809-3.863,4.233-7.284,4.233-10.169a3.3,3.3,0,0,0-1.243-2.846,5.633,5.633,0,0,0-3.488-.981c-2.9,0-6.215,1.1-9.842,3.266a67.4,67.4,0,0,0-11.37,8.772,164.654,164.654,0,0,0-11.686,12.229c-3.918,4.521-7.582,9.062-10.89,13.5-3.358,4.5-6.385,8.856-9,12.957a102.13,102.13,0,0,0-5.923,10.317l-.136.285H512.6l.446-.755c2.862-4.839,5.945-9.827,9.174-14.847a107.1,107.1,0,0,1-8.977,7.743,64.273,64.273,0,0,1-10.633,6.724,22.314,22.314,0,0,1-9.691,2.577c-3.384,0-5.939-.968-7.594-2.877a9.434,9.434,0,0,1-2.466-6.28,22,22,0,0,1,1.75-8.213c.43-1.064.968-2.234,1.607-3.5-1.1,1.2-2.167,2.327-3.218,3.4a98.74,98.74,0,0,1-14.5,12.419,32.387,32.387,0,0,1-7.1,3.777,19.541,19.541,0,0,1-6.711,1.27c-3.61,0-6.312-.933-8.029-2.774a9.336,9.336,0,0,1-2.567-6.564,16.189,16.189,0,0,1,.835-5.118c.4-1.21.819-2.427,1.243-3.634-1.4,1.458-3.051,3.093-4.933,4.876a69.981,69.981,0,0,1-7.63,6.267,52.256,52.256,0,0,1-8.468,4.918,20.5,20.5,0,0,1-8.5,2.029c-4.606,0-7.9-1.472-9.8-4.375a17.348,17.348,0,0,1-2.788-9.654,29.474,29.474,0,0,1,1.485-8.837c-2.145,2.194-4.3,4.283-6.418,6.23A96.949,96.949,0,0,1,383.431,125.6c-5.282,3.158-10.376,4.759-15.138,4.759a15.038,15.038,0,0,1-9.971-3.546c-2.811-2.372-4.236-5.717-4.236-9.942a23.313,23.313,0,0,1,2.388-9.5,93.287,93.287,0,0,1,6.166-11.153c1.015-1.6,2.1-3.269,3.284-5.076a27.924,27.924,0,0,1-3.4,1.572,18.081,18.081,0,0,1-6.492,1.206,13.1,13.1,0,0,1-9.643-3.662c-2.431-2.433-3.664-5.86-3.664-10.184a15.97,15.97,0,0,1,1.588-7.139,146.635,146.635,0,0,0-15.356,12.645C323.1,91.03,316.8,97.541,310.232,104.943l0,0A65.682,65.682,0,0,0,302.8,115.33a106.475,106.475,0,0,0-6.732,13.283l-.129.306H282.981l.481-.766c4-6.363,7.929-12.582,12.163-19.268-1.621,1.506-3.142,2.856-4.652,4.133a100.39,100.39,0,0,1-12.236,8.882,67.22,67.22,0,0,1-12.811,6.179,38.288,38.288,0,0,1-12.7,2.282c-5.161,0-9.22-1.35-12.066-4.012a12.737,12.737,0,0,1-3.239-4.9,18.725,18.725,0,0,1-1.069-6.556,31.9,31.9,0,0,1,2.322-11.521c-3.413,3.716-6.876,7.191-10.32,10.355A96.952,96.952,0,0,1,213.171,125.6a36.8,36.8,0,0,1-7.749,3.565,24.635,24.635,0,0,1-7.387,1.195,15.032,15.032,0,0,1-9.972-3.546c-2.811-2.37-4.236-5.715-4.236-9.942a21.965,21.965,0,0,1,1.816-8.168c-2.615,2.844-5.307,5.593-8,8.17a78.043,78.043,0,0,1-8.353,6.989,43.2,43.2,0,0,1-8.3,4.745,21.154,21.154,0,0,1-8.222,1.753,13.525,13.525,0,0,1-8.979-3,10.329,10.329,0,0,1-3.606-8.318c0-3.693,1.486-7.762,4.416-12.1,2.889-4.272,6.113-8.622,9.583-12.928,3.454-4.287,6.665-8.467,9.545-12.424,2.809-3.863,4.233-7.284,4.233-10.169a3.3,3.3,0,0,0-1.243-2.846,5.7,5.7,0,0,0-3.486-.981c-2.9,0-6.215,1.1-9.844,3.266a67.4,67.4,0,0,0-11.369,8.772,164.951,164.951,0,0,0-11.686,12.229c-3.906,4.507-7.57,9.048-10.89,13.5-3.362,4.5-6.388,8.861-8.994,12.957a102.187,102.187,0,0,0-5.925,10.318l-.136.284H92.009l.446-.755c3.124-5.282,6.5-10.72,10.021-16.161,3.256-5.028,6.708-10.337,10.552-16.231,3.541-5.438,6.908-10.657,10.006-15.509,3.384-5.3,6.185-9.755,8.562-13.611l.139-.225,13.024-.6L124.281,94.218c1.474-1.76,2.99-3.574,4.472-5.348a130.037,130.037,0,0,1,10.865-11.5A70.223,70.223,0,0,1,151.7,68.2a24.654,24.654,0,0,1,12.609-3.767c3.729,0,6.669,1.05,8.739,3.122a10.9,10.9,0,0,1,3.122,8.019,15.936,15.936,0,0,1-2.128,7.086,87.2,87.2,0,0,1-5.171,8.525c-2.06,3.029-4.311,6.132-6.691,9.223-2.409,3.133-4.651,6.133-6.665,8.916-2.032,2.808-3.753,5.4-5.114,7.716a11.9,11.9,0,0,0-2.006,5.609,3.977,3.977,0,0,0,4.55,4.55c3.742,0,7.782-1.281,12.008-3.808,4.268-2.549,9.453-6.921,15.412-12.995,2.394-2.4,4.843-5.056,7.281-7.911,1.047-1.226,2.116-2.5,3.269-3.879.519-.863,1-1.641,1.465-2.378,2.528-3.969,5.413-8.342,8.577-13,3.049-4.49,6.186-9.259,9.332-14.189h-9.634l1.581-3.166h10.143l14.067-20.922h12.035L224.233,65.873H247.9l-1.581,3.166h-24.2c-4.751,7.715-9.043,14.465-12.759,20.068-3.8,5.725-7.01,10.7-9.552,14.777a103.736,103.736,0,0,0-5.833,10.408,17.642,17.642,0,0,0-1.935,7.273c0,2.114.685,3.536,2.094,4.346A10.16,10.16,0,0,0,199.3,127.2c4.215,0,8.949-1.643,14.07-4.883A106.85,106.85,0,0,0,228.9,110.2a198.731,198.731,0,0,0,14.354-14.844A73.36,73.36,0,0,1,270.3,69.363c5.936-3.272,11.721-4.931,17.194-4.931a12.04,12.04,0,0,1,7.334,1.994,6.957,6.957,0,0,1,2.728,5.9c0,3.021-1.636,5.969-4.863,8.763a54.6,54.6,0,0,1-11.56,7.466,118.618,118.618,0,0,1-14.58,5.978,126.578,126.578,0,0,1-13.538,3.845,37.9,37.9,0,0,0-3.1,7.81,32.932,32.932,0,0,0-1.242,8.884,19.583,19.583,0,0,0,.438,4.133,12.574,12.574,0,0,0,1.387,3.642,7.5,7.5,0,0,0,2.54,2.621,7.33,7.33,0,0,0,3.973,1.006c3.873,0,8.5-1.288,13.76-3.828a90.817,90.817,0,0,0,16.231-10.314A130.393,130.393,0,0,0,302.64,97.788l.3-.478c6.436-10.129,13.172-20.628,20.024-31.209l.148-.228h12.224L314.372,96.411q1.6-1.774,3.511-3.779c2.558-2.676,5.417-5.475,8.5-8.318s6.341-5.667,9.674-8.406,6.633-5.2,9.85-7.352a11.339,11.339,0,0,1,2.018-2.9c.826-.826,2.357-1.227,4.68-1.227,1.318,0,2.512.03,3.548.09s2.11.156,3.18.272l1.037.113-.738.737a46.135,46.135,0,0,0-5.885,7.4,16.891,16.891,0,0,0-2.8,9.378,9.016,9.016,0,0,0,1.949,6.161,6.053,6.053,0,0,0,4.766,2.177,13.412,13.412,0,0,0,5.13-1.045,26.047,26.047,0,0,0,4.865-2.655c.459-.317.906-.668,1.339-1.007.217-.171.442-.346.668-.519l.525-.779c.336-.5.683-1.015,1.035-1.533,3.043-4.48,6.181-9.249,9.334-14.188h-9.636l1.581-3.166h10.143L396.7,44.951h12.035L394.491,65.873h23.671l-1.581,3.166h-24.2c-4.76,7.727-9.053,14.478-12.761,20.068-3.858,5.82-6.981,10.654-9.55,14.777a103.742,103.742,0,0,0-5.833,10.408,17.621,17.621,0,0,0-1.937,7.273c0,2.114.685,3.536,2.094,4.346a10.164,10.164,0,0,0,5.161,1.287c4.214,0,8.947-1.643,14.069-4.883a106.773,106.773,0,0,0,15.53-12.117c2.91-2.709,5.792-5.573,8.809-8.756.254-.528.527-1.089.827-1.663A79.9,79.9,0,0,1,420.771,82.9a75.139,75.139,0,0,1,15.8-13.163,39.189,39.189,0,0,1,8.357-3.973,25.729,25.729,0,0,1,7.956-1.332,18.922,18.922,0,0,1,6.484,1.022,13.465,13.465,0,0,1,4.682,2.812,13.149,13.149,0,0,1,2.906,4.032,24.1,24.1,0,0,1,1.369,3.819l5.728-10.244h12.987l-.562.79c-4.421,6.214-8.728,12.341-12.8,18.214-4.043,5.826-7.711,11.313-10.9,16.307-3.17,4.963-5.741,9.378-7.641,13.122-1.878,3.7-2.83,6.624-2.83,8.7,0,2.859,1.388,4.19,4.369,4.19,2.418,0,5.576-1.218,9.384-3.621a84.634,84.634,0,0,0,12.635-10.13,176.91,176.91,0,0,0,14.029-15.107c.107-.129.215-.263.32-.394l.2-.253c2.035-3.13,4.306-6.512,6.751-10.05,4.017-5.815,8.9-13.064,14.515-21.546l.148-.224h12.769l-.547.786c-6.809,9.781-12.3,17.629-16.776,23.991-4.577,6.507-8.305,11.964-11.08,16.219a110.905,110.905,0,0,0-6.1,10.23,14.324,14.324,0,0,0-1.84,5.91c0,3.756,1.875,4.19,3.286,4.19a17.627,17.627,0,0,0,8.145-2.554,71.362,71.362,0,0,0,9.94-6.717,123.087,123.087,0,0,0,10.419-9.341c2.4-2.4,4.876-4.992,7.574-7.924q.649-1,1.3-2c.617-.951,1.255-1.933,1.877-2.886,3.645-5.6,6.918-10.671,10.008-15.509,3.335-5.226,6.136-9.678,8.562-13.611l.139-.225,13.024-.6L544.874,94.22c1.34-1.6,2.814-3.363,4.475-5.349a130.011,130.011,0,0,1,10.864-11.5A70.337,70.337,0,0,1,572.293,68.2,24.662,24.662,0,0,1,584.9,64.432c3.728,0,6.669,1.05,8.741,3.122a10.908,10.908,0,0,1,3.122,8.019,15.918,15.918,0,0,1-2.13,7.086,87.163,87.163,0,0,1-5.169,8.525c-2.048,3.011-4.3,6.114-6.691,9.223-2.407,3.131-4.65,6.131-6.665,8.916-2.041,2.82-3.762,5.416-5.114,7.715a11.9,11.9,0,0,0-2.006,5.609,3.977,3.977,0,0,0,4.55,4.55c3.742,0,7.782-1.281,12.008-3.808,4.268-2.549,9.453-6.921,15.412-12.995,2.4-2.4,4.844-5.06,7.279-7.911,1.379-1.617,2.75-3.249,4.189-4.99a71.665,71.665,0,0,1,11.978-15.782c.1-.1.191-.181.282-.264.063-.057.123-.112.181-.167.447-.657.806-1.2,1.1-1.65l.257-.4.522.3a72.222,72.222,0,0,1,14.009-10.167,42.718,42.718,0,0,1,8.758-3.694,30.616,30.616,0,0,1,8.436-1.237,12.04,12.04,0,0,1,7.334,1.994,6.957,6.957,0,0,1,2.728,5.9c0,3.021-1.636,5.969-4.863,8.763a54.6,54.6,0,0,1-11.56,7.466,118.606,118.606,0,0,1-14.58,5.978,126.476,126.476,0,0,1-13.54,3.845,37.968,37.968,0,0,0-3.095,7.81,32.928,32.928,0,0,0-1.242,8.884,19.47,19.47,0,0,0,.438,4.133,12.53,12.53,0,0,0,1.387,3.642,7.5,7.5,0,0,0,2.54,2.622,7.33,7.33,0,0,0,3.973,1.006c3.873,0,8.5-1.288,13.76-3.828a90.861,90.861,0,0,0,16.231-10.314,130.4,130.4,0,0,0,15.634-14.546l.3-.478c6.436-10.129,13.172-20.628,20.024-31.209l.148-.228H705.79L684.826,96.41q1.6-1.774,3.511-3.779c2.559-2.677,5.418-5.476,8.5-8.318s6.341-5.668,9.674-8.406,6.633-5.2,9.85-7.352a11.377,11.377,0,0,1,2.017-2.9c.826-.826,2.357-1.228,4.68-1.228,1.319,0,2.512.03,3.547.09s2.11.155,3.181.272l1.037.113-.738.737a46.134,46.134,0,0,0-5.885,7.4,16.891,16.891,0,0,0-2.8,9.378,9.016,9.016,0,0,0,1.949,6.161,6.053,6.053,0,0,0,4.766,2.177,13.414,13.414,0,0,0,5.13-1.045,26.063,26.063,0,0,0,4.865-2.655c1.551-1.075,3.057-2.218,4.476-3.4,1.5-1.252,2.736-2.311,3.773-3.237l.289-.258,1.912,1.277-.431.431c-1.21,1.21-2.613,2.522-4.17,3.9a47.273,47.273,0,0,1-5.106,3.919,29.668,29.668,0,0,1-5.868,3.026,18.083,18.083,0,0,1-6.492,1.206,13.1,13.1,0,0,1-9.643-3.662c-2.432-2.433-3.664-5.86-3.664-10.184a15.968,15.968,0,0,1,1.588-7.139,146.73,146.73,0,0,0-15.358,12.645c-5.86,5.444-12.159,11.955-18.722,19.355l0,0a65.675,65.675,0,0,0-7.425,10.382,106.459,106.459,0,0,0-6.732,13.283l-.129.306H653.435l.481-.766c4.005-6.376,7.935-12.591,12.163-19.268-1.622,1.506-3.144,2.857-4.654,4.133a100.239,100.239,0,0,1-12.234,8.882,67.219,67.219,0,0,1-12.812,6.179A38.293,38.293,0,0,1,623.679,130.362ZM611.511,101.27,610.5,103.9a30.82,30.82,0,0,0-2.2,11,17.737,17.737,0,0,0,1.005,6.205,11.746,11.746,0,0,0,2.986,4.521,12.9,12.9,0,0,0,4.82,2.8,20.981,20.981,0,0,0,6.561.944,37.3,37.3,0,0,0,12.369-2.225,66.228,66.228,0,0,0,12.62-6.088,99.235,99.235,0,0,0,12.112-8.794c2.365-2,4.758-4.182,7.533-6.869l3.021-2.927-2.251,3.553c-4.893,7.725-9.328,14.729-13.839,21.907h10.488a107.519,107.519,0,0,1,6.666-13.1,66.673,66.673,0,0,1,7.54-10.537h0c6.584-7.423,12.906-13.959,18.79-19.424a144.021,144.021,0,0,1,16.294-13.3l.344-.235.922.931-.192.331a14.75,14.75,0,0,0-1.918,7.5,16.183,16.183,0,0,0,.851,5.446,10.786,10.786,0,0,0,2.521,4.031,11,11,0,0,0,3.9,2.523,14.191,14.191,0,0,0,5.031.847,17.086,17.086,0,0,0,6.135-1.14,28.666,28.666,0,0,0,5.671-2.924,46.271,46.271,0,0,0,5-3.836c1.359-1.2,2.6-2.352,3.692-3.427l-.253-.169c-.984.872-2.136,1.857-3.51,3-1.442,1.2-2.971,2.36-4.546,3.452a27.051,27.051,0,0,1-5.052,2.758,14.407,14.407,0,0,1-5.512,1.121,7.092,7.092,0,0,1-5.514-2.514,9.971,9.971,0,0,1-2.2-6.824A17.876,17.876,0,0,1,723.36,72.5a48.848,48.848,0,0,1,5.291-6.819c-.711-.067-1.416-.122-2.108-.164-1.014-.059-2.187-.089-3.487-.089-2.511,0-3.547.508-3.974.935a10.546,10.546,0,0,0-1.89,2.756l-.059.119-.111.074c-3.224,2.15-6.548,4.628-9.88,7.366s-6.559,5.541-9.631,8.369-5.908,5.611-8.452,8.273c-2.563,2.682-4.709,5.07-6.377,7.1l-.349.424L681.285,99.8l.236-.343,22.37-32.584H694.11c-6.8,10.5-13.483,20.92-19.87,30.971l-.326.516-.024.037-.03.033a131.419,131.419,0,0,1-15.785,14.691,91.862,91.862,0,0,1-16.412,10.427c-5.394,2.606-10.17,3.927-14.2,3.927a8.3,8.3,0,0,1-4.506-1.16,8.485,8.485,0,0,1-2.872-2.967,13.524,13.524,0,0,1-1.5-3.93,20.471,20.471,0,0,1-.461-4.345,33.928,33.928,0,0,1,1.279-9.154A38.75,38.75,0,0,1,622.7,97.7l.11-.2.224-.048a124.358,124.358,0,0,0,13.653-3.862,117.6,117.6,0,0,0,14.457-5.927,53.6,53.6,0,0,0,11.348-7.325,15.358,15.358,0,0,0,3.407-3.991,8.181,8.181,0,0,0,1.11-4.016,5.933,5.933,0,0,0-2.328-5.1,11.088,11.088,0,0,0-6.734-1.794c-5.3,0-10.925,1.617-16.712,4.807a71.372,71.372,0,0,0-14.082,10.274l-.27.251-.336-.193c-.25.382-.542.817-.883,1.317l-.029.042-.036.035c-.081.079-.162.152-.241.224s-.17.154-.249.232a70.646,70.646,0,0,0-11.831,15.6l-.022.04-.029.035c-1.453,1.758-2.837,3.406-4.229,5.037-2.452,2.871-4.918,5.55-7.329,7.965-6.016,6.132-11.268,10.558-15.609,13.15-4.383,2.621-8.6,3.95-12.521,3.95a4.952,4.952,0,0,1-5.55-5.55,12.815,12.815,0,0,1,2.144-6.117c1.368-2.326,3.106-4.949,5.165-7.794,2.021-2.793,4.269-5.8,6.682-8.939,2.38-3.094,4.619-6.181,6.657-9.176a86.134,86.134,0,0,0,5.11-8.425,14.969,14.969,0,0,0,2.016-6.623,11.245,11.245,0,0,0-.71-4.08,9.332,9.332,0,0,0-2.119-3.233,9.013,9.013,0,0,0-3.4-2.114,13.9,13.9,0,0,0-4.636-.715,23.681,23.681,0,0,0-12.1,3.627A69.35,69.35,0,0,0,560.9,78.1a129.009,129.009,0,0,0-10.78,11.409c-3.67,4.389-6.428,7.685-8.839,10.551l-.351.417-1.046-1.046L563.333,66.92l-10.428.481c-2.4,3.882-5.157,8.269-8.432,13.4-3.091,4.841-6.367,9.917-10.013,15.517-.621.952-1.259,1.934-1.876,2.884q-.664,1.023-1.326,2.041l-.023.035-.028.031c-2.719,2.955-5.215,5.567-7.631,7.985a124.114,124.114,0,0,1-10.5,9.417,72.37,72.37,0,0,1-10.082,6.81,18.579,18.579,0,0,1-8.625,2.677c-1.955,0-4.286-.9-4.286-5.19a15.231,15.231,0,0,1,1.945-6.357,111.846,111.846,0,0,1,6.162-10.329c2.781-4.264,6.516-9.731,11.1-16.248,4.358-6.189,9.67-13.785,16.226-23.2H515.195c-5.556,8.391-10.392,15.569-14.377,21.338-2.445,3.54-4.717,6.921-6.75,10.05l-.015.023-.017.021-.216.267c-.107.133-.218.272-.331.407a177.93,177.93,0,0,1-14.11,15.194,85.616,85.616,0,0,1-12.789,10.25c-3.971,2.505-7.308,3.776-9.918,3.776a5.573,5.573,0,0,1-4-1.312,5.164,5.164,0,0,1-1.371-3.879c0-2.236.989-5.316,2.938-9.154,1.915-3.774,4.5-8.217,7.69-13.208,3.2-5.006,6.873-10.5,10.923-16.339,3.9-5.627,8.021-11.487,12.247-17.434H474.639l-5.951,10.643h-1.052l-.09-.387a23.191,23.191,0,0,0-1.5-4.414,12.151,12.151,0,0,0-2.687-3.724,12.472,12.472,0,0,0-4.337-2.6,17.932,17.932,0,0,0-6.14-.961,24.734,24.734,0,0,0-7.646,1.283,38.2,38.2,0,0,0-8.142,3.873,74.143,74.143,0,0,0-15.587,12.989,78.9,78.9,0,0,0-11.83,16.666c-.306.585-.585,1.161-.845,1.7l-.034.071-.054.057c-3.051,3.221-5.965,6.118-8.908,8.857a107.75,107.75,0,0,1-15.677,12.23,37.165,37.165,0,0,1-7.61,3.771,21.481,21.481,0,0,1-6.993,1.267,11.149,11.149,0,0,1-5.66-1.421c-1.721-.99-2.595-2.744-2.595-5.213a18.587,18.587,0,0,1,2.031-7.7,104.734,104.734,0,0,1,5.889-10.512c2.574-4.131,5.7-8.972,9.565-14.8,3.74-5.638,8.077-12.461,12.889-20.278l.146-.238h24.139l.582-1.166H392.6l14.248-20.922h-9.612L383.169,66.873H373.112l-.582,1.166h9.841l-.489.768c-3.323,5.222-6.633,10.262-9.84,14.982-.351.517-.7,1.031-1.033,1.529l-.572.849-.047.069-.066.05c-.242.183-.485.374-.72.558-.444.349-.9.709-1.387,1.043a27.049,27.049,0,0,1-5.052,2.757,14.406,14.406,0,0,1-5.512,1.121,7.092,7.092,0,0,1-5.514-2.514,9.97,9.97,0,0,1-2.2-6.824,17.875,17.875,0,0,1,2.967-9.924,48.84,48.84,0,0,1,5.291-6.819c-.71-.067-1.415-.122-2.106-.164-1.015-.059-2.19-.089-3.489-.089-2.511,0-3.547.508-3.973.935a10.5,10.5,0,0,0-1.89,2.755l-.059.119-.111.074c-3.224,2.15-6.548,4.628-9.879,7.366s-6.56,5.542-9.631,8.369-5.909,5.612-8.452,8.273c-2.562,2.681-4.708,5.069-6.377,7.1l-.349.424L310.831,99.8l22.605-32.928h-9.781c-6.8,10.5-13.483,20.92-19.87,30.971l-.326.516-.024.037-.03.033a131.427,131.427,0,0,1-15.785,14.691,91.816,91.816,0,0,1-16.412,10.427c-5.394,2.606-10.17,3.927-14.2,3.927a8.305,8.305,0,0,1-4.507-1.16,8.486,8.486,0,0,1-2.872-2.967,13.572,13.572,0,0,1-1.5-3.93,20.589,20.589,0,0,1-.461-4.345,33.931,33.931,0,0,1,1.279-9.154,38.67,38.67,0,0,1,3.293-8.223l.11-.2.224-.048a124.441,124.441,0,0,0,13.651-3.862A117.607,117.607,0,0,0,280.69,87.66a53.6,53.6,0,0,0,11.348-7.325,15.36,15.36,0,0,0,3.407-3.991,8.181,8.181,0,0,0,1.11-4.016,5.932,5.932,0,0,0-2.328-5.1,11.087,11.087,0,0,0-6.734-1.794c-5.3,0-10.925,1.617-16.712,4.807a72.361,72.361,0,0,0-26.7,25.67l-.022.037-.029.033a199.729,199.729,0,0,1-14.455,14.951A107.832,107.832,0,0,1,213.9,123.16a37.168,37.168,0,0,1-7.61,3.771A21.487,21.487,0,0,1,199.3,128.2a11.145,11.145,0,0,1-5.659-1.421c-1.721-.99-2.595-2.744-2.595-5.213a18.609,18.609,0,0,1,2.029-7.7,104.727,104.727,0,0,1,5.89-10.513c2.547-4.088,5.766-9.068,9.567-14.8,3.748-5.651,8.084-12.473,12.887-20.278l.146-.238H245.7l.582-1.166H222.342L236.59,45.951h-9.612L212.911,66.873H202.853l-.582,1.166h9.839l-.489.768c-3.316,5.21-6.626,10.251-9.838,14.982-3.158,4.65-6.038,9.014-8.56,12.974-.467.738-.949,1.52-1.472,2.39l-.02.033-.025.03c-1.165,1.4-2.245,2.679-3.3,3.918-2.455,2.874-4.922,5.554-7.331,7.965-6.015,6.132-11.268,10.557-15.609,13.15-4.383,2.621-8.6,3.95-12.521,3.95a4.952,4.952,0,0,1-5.55-5.55,12.816,12.816,0,0,1,2.144-6.117c1.377-2.339,3.115-4.961,5.165-7.794,2.019-2.791,4.267-5.8,6.682-8.939,2.368-3.076,4.607-6.164,6.657-9.176a86.2,86.2,0,0,0,5.112-8.425,14.987,14.987,0,0,0,2.014-6.623,11.251,11.251,0,0,0-.709-4.08,9.318,9.318,0,0,0-2.12-3.232c-1.876-1.877-4.578-2.829-8.032-2.829a23.671,23.671,0,0,0-12.1,3.627A69.215,69.215,0,0,0,140.3,78.1a129.022,129.022,0,0,0-10.782,11.409c-3.02,3.614-6.181,7.394-8.839,10.551l-.352.418-1.043-1.048.248-.344,23.2-32.168L132.31,67.4c-2.35,3.809-5.11,8.2-8.431,13.4-3.1,4.855-6.469,10.076-10.011,15.517-3.844,5.894-7.3,11.2-10.551,16.229-3.35,5.171-6.561,10.339-9.553,15.372h9.99a105.682,105.682,0,0,1,5.847-10.14c2.62-4.116,5.66-8.5,9.036-13.018,3.335-4.468,7.014-9.028,10.936-13.553a165.974,165.974,0,0,1,11.758-12.3A68.4,68.4,0,0,1,152.871,70c3.785-2.261,7.27-3.407,10.356-3.407a6.665,6.665,0,0,1,4.086,1.181,4.289,4.289,0,0,1,1.643,3.646,13.36,13.36,0,0,1-1.12,5.062,28.3,28.3,0,0,1-3.3,5.7c-2.889,3.97-6.111,8.163-9.575,12.463-3.452,4.285-6.66,8.612-9.533,12.861-2.817,4.165-4.245,8.046-4.245,11.535a10.835,10.835,0,0,0,.816,4.312,8.735,8.735,0,0,0,2.434,3.241,12.555,12.555,0,0,0,8.336,2.769,20.161,20.161,0,0,0,7.833-1.674,42.2,42.2,0,0,0,8.107-4.636,77.041,77.041,0,0,0,8.245-6.9c2.725-2.607,5.447-5.39,8.092-8.272.587-.635,1.169-1.285,1.731-1.914l2.718-3.037-1.733,3.542c-.215.438-.438.892-.634,1.323a22.339,22.339,0,0,0-2.3,9.08,13.427,13.427,0,0,0,.974,5.262,10.4,10.4,0,0,0,2.906,3.916,13.813,13.813,0,0,0,4.286,2.481,15.013,15.013,0,0,0,5.041.829c4.578,0,9.5-1.554,14.624-4.618a95.941,95.941,0,0,0,15.52-11.754c4.1-3.769,8.23-7.98,12.27-12.518l2.3-2.582-1.473,3.128a32.721,32.721,0,0,0-3.421,13.875,17.736,17.736,0,0,0,1.005,6.205,11.748,11.748,0,0,0,2.986,4.521,12.9,12.9,0,0,0,4.82,2.8,20.987,20.987,0,0,0,6.563.944,37.294,37.294,0,0,0,12.367-2.225,66.223,66.223,0,0,0,12.62-6.088,99.4,99.4,0,0,0,12.114-8.794c2.365-2,4.758-4.183,7.531-6.869l3.021-2.926-2.251,3.553c-4.9,7.733-9.338,14.745-13.839,21.907h10.488a107.55,107.55,0,0,1,6.666-13.1,66.682,66.682,0,0,1,7.54-10.537h0c6.586-7.426,12.908-13.961,18.792-19.424a143.967,143.967,0,0,1,16.291-13.3l.344-.235.922.931-.192.331a14.75,14.75,0,0,0-1.918,7.5,16.185,16.185,0,0,0,.851,5.446,10.788,10.788,0,0,0,2.521,4.031,11,11,0,0,0,3.9,2.523,14.191,14.191,0,0,0,5.031.847,17.085,17.085,0,0,0,6.135-1.14,28.42,28.42,0,0,0,5.1-2.585l1.973-1.248L367.944,89.9c-1.661,2.51-3.12,4.754-4.461,6.861a92.3,92.3,0,0,0-6.1,11.031,22.339,22.339,0,0,0-2.3,9.08,13.422,13.422,0,0,0,.975,5.262,10.413,10.413,0,0,0,2.906,3.916,13.828,13.828,0,0,0,4.287,2.481,15.009,15.009,0,0,0,5.04.829c4.579,0,9.5-1.554,14.625-4.618a95.942,95.942,0,0,0,15.518-11.754c2.626-2.411,5.3-5.042,7.951-7.82l1.7-1.787-.875,2.309a30.321,30.321,0,0,0-2.171,10.641,16.364,16.364,0,0,0,2.626,9.107,7.883,7.883,0,0,0,3.481,2.927,13.575,13.575,0,0,0,5.479.995,19.518,19.518,0,0,0,8.088-1.938,51.248,51.248,0,0,0,8.306-4.824,68.971,68.971,0,0,0,7.521-6.178c2.313-2.191,4.277-4.156,5.839-5.839l.255-.275,1.091.548-.149.417c-.584,1.632-1.16,3.3-1.71,4.948a15.191,15.191,0,0,0-.784,4.8,8.366,8.366,0,0,0,2.3,5.882c1.521,1.63,3.976,2.456,7.3,2.456,4.087,0,8.543-1.639,13.245-4.871A97.739,97.739,0,0,0,482.285,112.2c1.913-1.962,3.878-4.092,6.009-6.513l3.277-3.723-2.468,4.3a59.981,59.981,0,0,0-3.564,7.1,21.007,21.007,0,0,0-1.677,7.838,8.462,8.462,0,0,0,2.222,5.625c1.456,1.68,3.757,2.532,6.838,2.532a21.339,21.339,0,0,0,9.25-2.475,63.281,63.281,0,0,0,10.466-6.62,108.174,108.174,0,0,0,10.592-9.336c.329-.329.654-.669.969-1,.228-.238.464-.485.7-.727l.777.622-.848,1.305c-.3.469-.61.938-.918,1.413-3.362,5.19-6.574,10.358-9.554,15.372h9.991a105.707,105.707,0,0,1,5.845-10.14c2.625-4.122,5.666-8.5,9.038-13.018,3.323-4.454,7-9.014,10.936-13.553a165.663,165.663,0,0,1,11.758-12.3A68.4,68.4,0,0,1,573.467,70c3.784-2.261,7.268-3.407,10.355-3.407a6.674,6.674,0,0,1,4.088,1.181,4.292,4.292,0,0,1,1.643,3.646,13.359,13.359,0,0,1-1.12,5.062,28.3,28.3,0,0,1-3.3,5.7c-2.875,3.95-6.1,8.143-9.575,12.463-3.449,4.281-6.657,8.608-9.535,12.861-2.815,4.163-4.243,8.044-4.243,11.535a10.834,10.834,0,0,0,.816,4.312,8.734,8.734,0,0,0,2.434,3.241,12.553,12.553,0,0,0,8.334,2.769,20.161,20.161,0,0,0,7.833-1.674,42.272,42.272,0,0,0,8.109-4.636,77.043,77.043,0,0,0,8.243-6.9c2.727-2.607,5.449-5.39,8.092-8.272,1.2-1.291,2.474-2.718,4.023-4.492ZM421.863,126.034a6.156,6.156,0,0,1-5.18-2.454,10.907,10.907,0,0,1-1.815-6.705,41.317,41.317,0,0,1,4.1-17.162,75.946,75.946,0,0,1,10.079-16.249,64.4,64.4,0,0,1,12.725-12.086c4.514-3.173,8.676-4.781,12.371-4.781a8.262,8.262,0,0,1,8.618,8.977,31.975,31.975,0,0,1-2.2,11.178A67.1,67.1,0,0,1,454.935,98.2a74.951,74.951,0,0,1-7.9,10.623,87.914,87.914,0,0,1-8.979,8.8,53.808,53.808,0,0,1-8.739,6.1A16.178,16.178,0,0,1,421.863,126.034ZM454.145,67.6c-3.486,0-7.454,1.547-11.8,4.6a63.4,63.4,0,0,0-12.524,11.9,74.945,74.945,0,0,0-9.946,16.035,40.328,40.328,0,0,0-4.011,16.744,9.961,9.961,0,0,0,1.611,6.1,5.139,5.139,0,0,0,4.384,2.059,15.229,15.229,0,0,0,6.975-2.195,52.812,52.812,0,0,0,8.573-5.984,86.915,86.915,0,0,0,8.876-8.7,73.94,73.94,0,0,0,7.8-10.48A66.087,66.087,0,0,0,459.629,86.4a30.981,30.981,0,0,0,2.134-10.827,7.269,7.269,0,0,0-7.618-7.977ZM623.19,96.617l.395-.869a59.7,59.7,0,0,1,5.365-9.1,74.427,74.427,0,0,1,7.9-9.533,57.412,57.412,0,0,1,8.825-7.46,15.5,15.5,0,0,1,8.484-3.061,5.216,5.216,0,0,1,3.68,1.4,5.441,5.441,0,0,1,1.511,4.154,12.893,12.893,0,0,1-4.11,9.1,41.679,41.679,0,0,1-9.583,7.211,72.876,72.876,0,0,1-11.531,5.177,69.238,69.238,0,0,1-10,2.816ZM654.159,67.6a14.542,14.542,0,0,0-7.925,2.89,56.417,56.417,0,0,0-8.669,7.33,73.428,73.428,0,0,0-7.793,9.4,62.37,62.37,0,0,0-4.857,8.052,74.065,74.065,0,0,0,8.883-2.587A71.885,71.885,0,0,0,645.17,87.58a40.682,40.682,0,0,0,9.354-7.036,14.433,14.433,0,0,0,2.878-4.072,10.406,10.406,0,0,0,.947-4.325,4.5,4.5,0,0,0-1.193-3.423A4.191,4.191,0,0,0,654.159,67.6ZM252.736,96.617l.395-.869a59.708,59.708,0,0,1,5.365-9.1,74.57,74.57,0,0,1,7.9-9.533,57.406,57.406,0,0,1,8.825-7.46,15.5,15.5,0,0,1,8.485-3.061,5.214,5.214,0,0,1,3.678,1.4,5.441,5.441,0,0,1,1.511,4.154,12.893,12.893,0,0,1-4.11,9.1,41.682,41.682,0,0,1-9.583,7.211,72.88,72.88,0,0,1-11.531,5.177,69.246,69.246,0,0,1-10,2.816Zm30.97-29.02a14.543,14.543,0,0,0-7.927,2.89,56.411,56.411,0,0,0-8.669,7.33,73.58,73.58,0,0,0-7.793,9.4,62.384,62.384,0,0,0-4.857,8.052,74.07,74.07,0,0,0,8.883-2.587,71.883,71.883,0,0,0,11.373-5.106,40.69,40.69,0,0,0,9.354-7.036,14.434,14.434,0,0,0,2.878-4.072,10.408,10.408,0,0,0,.947-4.325,4.5,4.5,0,0,0-1.193-3.423A4.189,4.189,0,0,0,283.706,67.6ZM536.931,45.23a5.957,5.957,0,0,1-4.512-1.87,6.838,6.838,0,0,1,0-9.164,6.377,6.377,0,0,1,9.022,0,6.843,6.843,0,0,1,0,9.165A5.956,5.956,0,0,1,536.931,45.23Zm0-11.9a4.944,4.944,0,0,0-3.785,1.557,5.84,5.84,0,0,0,0,7.788,5.379,5.379,0,0,0,7.57,0,5.844,5.844,0,0,0,0-7.79A4.943,4.943,0,0,0,536.931,33.327Z" transform="translate(0 566)" fill="rgba(0,0,0,0)"/>
    <path id="合体_14" data-name="合体 14" d="M565.061,126.975a9.816,9.816,0,0,1-3.428-7.934q0-5.413,4.332-11.815t9.558-12.895q5.228-6.493,9.558-12.447t4.329-10.46a3.8,3.8,0,0,0-1.443-3.247,6.155,6.155,0,0,0-3.786-1.081q-4.511,0-10.1,3.339a67.628,67.628,0,0,0-11.455,8.836A164.656,164.656,0,0,0,550.9,91.534q-5.862,6.762-10.911,13.527t-9.017,12.986a102.146,102.146,0,0,0-5.954,10.372H513.836q4.7-7.935,10.012-16.144T534.4,96.042c1.245-1.909,2.448-3.769,3.656-5.633-.078.041-.15.091-.228.133a22.484,22.484,0,0,1-10.639,2.886,15.99,15.99,0,0,1-8.659-2.256,17.6,17.6,0,0,1-5.589-5.32h-.362a53.422,53.422,0,0,1-6.672,14.61,74.879,74.879,0,0,1-11.636,14.248,66.724,66.724,0,0,1-14.877,10.823,34.892,34.892,0,0,1-16.593,4.327q-7.758,0-11.724-4.509t-3.969-12.084a22.979,22.979,0,0,1,1.049-6.409c-1.4,1.478-2.825,2.957-4.293,4.427a108.29,108.29,0,0,1-10.641,9.377,63.446,63.446,0,0,1-10.55,6.674,21.713,21.713,0,0,1-9.47,2.524q-4.871,0-7.216-2.705a8.906,8.906,0,0,1-2.345-5.951,21.439,21.439,0,0,1,1.715-8.025,71.837,71.837,0,0,1,5.5-10.372c.926-1.5,1.987-3.154,3.114-4.886a179.169,179.169,0,0,1-14.836,15.436,95.693,95.693,0,0,1-15.6,11.813q-7.844,4.7-14.882,4.69A14.481,14.481,0,0,1,359,126.434q-4.06-3.424-4.058-9.56a22.683,22.683,0,0,1,2.345-9.288l.017-.035c-1.195,1.245-2.382,2.494-3.621,3.734a108.487,108.487,0,0,1-10.641,9.377,63.456,63.456,0,0,1-10.551,6.674,21.706,21.706,0,0,1-9.468,2.524q-4.871,0-7.216-2.705a8.9,8.9,0,0,1-2.345-5.951,21.435,21.435,0,0,1,1.713-8.025,55.009,55.009,0,0,1,2.676-5.513c-1.62,1.8-3.256,3.568-4.928,5.241a93.61,93.61,0,0,1-14.248,12.173q-7.035,4.782-12.986,4.78-5.776,0-8.568-2.435a7.873,7.873,0,0,1-2.795-6.221,16.235,16.235,0,0,1,1.443-6.674,63.228,63.228,0,0,1,2.886-5.772l-.363-.182q-2.884,3.247-6.4,6.946a82.028,82.028,0,0,1-7.485,6.942,40.04,40.04,0,0,1-8.389,5.32,21.219,21.219,0,0,1-9.107,2.075q-6.493,0-10.009-3.967a13.672,13.672,0,0,1-3.519-9.379,25.147,25.147,0,0,1,.794-6.1,98.261,98.261,0,0,1-10.08,9.522,68.812,68.812,0,0,1-10.46,7.125,20.359,20.359,0,0,1-9.653,2.795,11.259,11.259,0,0,1-8.025-2.795,9.78,9.78,0,0,1-2.975-7.485,20.7,20.7,0,0,1,1.174-6.944,29.838,29.838,0,0,1,1.712-4.239l-.358-.362q-3.791,4.329-7.938,8.3a77.021,77.021,0,0,1-8.3,6.944,43.768,43.768,0,0,1-8.385,4.778,21.328,21.328,0,0,1-8.387,1.8q-5.776,0-8.3-2.615a8.649,8.649,0,0,1-2.524-6.221,23.238,23.238,0,0,1,2.435-9.739c.329-.713.706-1.453,1.09-2.2-1.348,1.463-2.7,2.9-4.062,4.273a87.957,87.957,0,0,1-14.159,11.813q-7.127,4.7-13.618,4.69a15.845,15.845,0,0,1-7.306-1.532,14.016,14.016,0,0,1-4.959-4.239,17.931,17.931,0,0,1-2.886-6.13,28.173,28.173,0,0,1-.9-7.218A67.339,67.339,0,0,1,110.2,90.994q2.882-9.471,6.493-18.668H91.987q-8.84,11.187-18.219,21.552a198.608,198.608,0,0,1-18.847,18.4,98.486,98.486,0,0,1-18.849,12.805,39.678,39.678,0,0,1-18.034,4.78,27.061,27.061,0,0,1-9.47-1.352,15.36,15.36,0,0,1-5.41-3.246,9.645,9.645,0,0,1-2.526-3.969A12.88,12.88,0,0,1,0,117.6a7.908,7.908,0,0,1,1.8-5.229A6.207,6.207,0,0,1,6.856,110.2a5.51,5.51,0,0,1,4.508,1.985,7.181,7.181,0,0,1,1.624,4.689,6.658,6.658,0,0,1-.9,3.247,3.762,3.762,0,0,1-2.528,1.984,7.644,7.644,0,0,0,4.509,3.335,21.741,21.741,0,0,0,5.951.814q7.755,0,16.325-4.509A99.567,99.567,0,0,0,53.659,109.93a192.427,192.427,0,0,0,17.4-16.593q8.66-9.286,16.593-19.028,3.424-4.329,8.566-10.641t11.634-13.707q6.493-7.4,14.159-15.059A188.945,188.945,0,0,1,138.339,20.38,149.185,149.185,0,0,1,156.377,8.117,82.227,82.227,0,0,1,175.494,0l.541.721A124.089,124.089,0,0,0,163.228,14.61q-6.673,8.3-13.076,17.947t-12.173,20.29a233.684,233.684,0,0,0-10.19,21.192,159.484,159.484,0,0,0-7.037,20.292,69.361,69.361,0,0,0-2.614,17.855,21.413,21.413,0,0,0,1.9,9.468q1.891,3.88,7.664,3.879a16.261,16.261,0,0,0,7.846-2.528,61.685,61.685,0,0,0,9.288-6.672,124.12,124.12,0,0,0,9.649-9.2q2.557-2.7,4.979-5.376c.461-.727.921-1.448,1.419-2.2q4.331-6.5,10.372-14.611t13.256-18.577h11.9q-7.03,9.562-13.525,18.219t-11.545,15.87Q166.29,107.68,163.314,113t-2.975,8.387a5.559,5.559,0,0,0,1.445,4.239,5.306,5.306,0,0,0,3.788,1.352,16.084,16.084,0,0,0,7.485-2.164,52.885,52.885,0,0,0,8.3-5.591,96.379,96.379,0,0,0,8.3-7.574q4.058-4.149,7.574-8.208t6.131-7.485q2.613-3.421,3.879-5.41l15.872-24.169h12.445q-9.742,13.351-16.5,22.635t-11,15.782A80.03,80.03,0,0,0,202,115.342a17.964,17.964,0,0,0-1.8,7.123,5.606,5.606,0,0,0,1.264,3.7,4.4,4.4,0,0,0,3.609,1.534,17.524,17.524,0,0,0,8.294-2.617,63.069,63.069,0,0,0,9.74-6.851,114.512,114.512,0,0,0,10.011-9.56c.884-.95,1.723-1.892,2.582-2.837a47.118,47.118,0,0,1,2.916-5.912,79.91,79.91,0,0,1,13.077-16.774,83.73,83.73,0,0,1,16.864-12.984q9.017-5.231,16.772-5.233a11.8,11.8,0,0,1,12.444,12.807h.542L344.85,3.609h11.9q-7.033,11.184-15.329,23.625t-16.593,24.71q-8.3,12.266-15.961,23.718T295.249,96.676q-5.953,9.56-9.468,16.5t-3.518,10.19a4.713,4.713,0,0,0,.992,3.156,3.673,3.673,0,0,0,2.975,1.173q4.509,0,10.283-3.609A92.186,92.186,0,0,0,310.4,112.727a162.64,162.64,0,0,0,13.554-15.052c1.911-2.933,4.07-6.153,6.554-9.747q6.039-8.746,14.518-21.554h11.543Q346.65,80.626,339.8,90.362T328.7,106.6a111.372,111.372,0,0,0-6.133,10.279,14.716,14.716,0,0,0-1.892,6.131q0,4.7,3.786,4.692a18.025,18.025,0,0,0,8.387-2.617,71.229,71.229,0,0,0,10.009-6.763,122.722,122.722,0,0,0,10.462-9.377c2.465-2.467,4.79-4.913,7.044-7.35.929-1.649,1.936-3.342,3.053-5.1q3.789-5.951,8.568-12.984t9.83-14.97h-9.74l1.083-2.166h10.1L397.33,45.451h10.82L393.9,66.373H417.71l-1.081,2.166H392.461q-7.218,11.724-12.9,20.288T370,103.618a103.7,103.7,0,0,0-5.859,10.462,18.015,18.015,0,0,0-1.985,7.485q0,3.426,2.345,4.78a10.628,10.628,0,0,0,5.41,1.353q6.493,0,14.339-4.962a106.678,106.678,0,0,0,15.6-12.172,198.15,198.15,0,0,0,14.792-15.333c1.968-2.272,3.781-4.428,5.5-6.51.188-.27.355-.519.544-.794q6.044-8.746,14.519-21.554h11.545q-9.922,14.253-16.774,23.989T418.882,106.6a111.364,111.364,0,0,0-6.133,10.279,14.767,14.767,0,0,0-1.892,6.131q0,4.7,3.788,4.692a18.014,18.014,0,0,0,8.385-2.617,71.229,71.229,0,0,0,10.009-6.763A122.466,122.466,0,0,0,443.5,108.94c2.18-2.181,4.249-4.346,6.265-6.5a55.171,55.171,0,0,1,4.824-8.918,80.9,80.9,0,0,1,8.3-10.46,71.3,71.3,0,0,1,10.371-9.2,52.761,52.761,0,0,1,11.813-6.493,34.182,34.182,0,0,1,12.535-2.435q7.4,0,11.452,4.329a17.081,17.081,0,0,1,4.42,11.183,12.24,12.24,0,0,0,3.878,7.666q3.518,3.518,9.649,3.518A20.369,20.369,0,0,0,537.2,88.919a36.773,36.773,0,0,0,3.124-2.019c1.384-2.147,2.756-4.283,4.087-6.368q4.777-7.481,8.568-13.618l11.724-.541L540.893,99.381l.36.36q3.789-4.509,8.838-10.551a128.906,128.906,0,0,1,10.822-11.452,69.23,69.23,0,0,1,11.994-9.108,24.055,24.055,0,0,1,12.354-3.7q5.411,0,8.387,2.975a10.386,10.386,0,0,1,2.975,7.667,15.375,15.375,0,0,1-2.073,6.855,86.481,86.481,0,0,1-5.141,8.475q-3.069,4.511-6.674,9.2t-6.672,8.928q-3.069,4.24-5.141,7.755a12.3,12.3,0,0,0-2.073,5.863q0,5.051,5.048,5.05,5.773,0,12.266-3.879t15.51-13.077q3.609-3.6,7.306-7.934t7.123-8.566q3.426-4.237,6.224-8.027t4.418-6.312l1.264.721q-3.614,5.408-9.291,12.895t-12.354,14.7q-3.971,4.329-8.117,8.3a76.83,76.83,0,0,1-8.3,6.944,42.673,42.673,0,0,1-8.2,4.69,20.553,20.553,0,0,1-8.025,1.712A12.978,12.978,0,0,1,565.061,126.975ZM487.867,69.529a49.874,49.874,0,0,0-8.747,6.4,65.373,65.373,0,0,0-8.389,9.2,95.887,95.887,0,0,0-7.123,10.82,60.43,60.43,0,0,0-4.959,11.183,34.169,34.169,0,0,0-1.8,10.46,13.19,13.19,0,0,0,1.8,7.4,6.065,6.065,0,0,0,5.41,2.705,19.9,19.9,0,0,0,9.649-2.617,43.564,43.564,0,0,0,9.2-6.851,65.021,65.021,0,0,0,8.208-9.653A81.448,81.448,0,0,0,497.7,97.4a73.494,73.494,0,0,0,4.42-11.275,35.674,35.674,0,0,0,1.622-10.009,10.632,10.632,0,0,0-1.894-6.4,6.757,6.757,0,0,0-5.861-2.615A16.682,16.682,0,0,0,487.867,69.529Zm-211.286.091a49.865,49.865,0,0,0-8.928,6.674,83.684,83.684,0,0,0-8.749,9.468,94.681,94.681,0,0,0-7.485,10.82,70.544,70.544,0,0,0-5.231,10.734,26.812,26.812,0,0,0-1.984,9.379,12.549,12.549,0,0,0,1.443,6.311q1.44,2.529,5.231,2.528a15.1,15.1,0,0,0,7.485-2.528,63.609,63.609,0,0,0,8.928-6.581,89.675,89.675,0,0,0,9.2-9.289,123.455,123.455,0,0,0,8.118-10.46,66.8,66.8,0,0,0,5.861-10.191,21.376,21.376,0,0,0,2.256-8.566,18.517,18.517,0,0,0-1.445-7.576q-1.445-3.249-6.672-3.247A16.488,16.488,0,0,0,276.581,69.621ZM144.019,18.038a196.753,196.753,0,0,0-17.764,15.149q-8.657,8.3-16.864,17.675T93.43,70.163H117.6A247.308,247.308,0,0,1,136.8,37.336,196.19,196.19,0,0,1,163.05,6.855l-.363-.362A116.146,116.146,0,0,0,144.019,18.038ZM453.061,43.015a6.343,6.343,0,0,1,0-8.477,5.878,5.878,0,0,1,8.3,0,6.343,6.343,0,0,1,0,8.477,5.878,5.878,0,0,1-8.3,0Zm-90.178,0a6.343,6.343,0,0,1,0-8.477,5.878,5.878,0,0,1,8.3,0,6.343,6.343,0,0,1,0,8.477,5.878,5.878,0,0,1-8.3,0Z" transform="translate(91.049 711.395)" fill="#fff"/>
    <path id="合体_14_-_アウトライン" data-name="合体 14 - アウトライン" d="M573.72,130.361a13.521,13.521,0,0,1-8.981-3,10.336,10.336,0,0,1-3.606-8.317c0-3.691,1.486-7.761,4.418-12.1,2.9-4.287,6.122-8.637,9.583-12.929s6.677-8.486,9.543-12.427c2.809-3.86,4.233-7.28,4.233-10.166a3.307,3.307,0,0,0-1.243-2.848,5.7,5.7,0,0,0-3.486-.981c-2.9,0-6.215,1.1-9.844,3.268a67.454,67.454,0,0,0-11.37,8.772A164.907,164.907,0,0,0,551.28,91.862c-3.883,4.479-7.547,9.021-10.889,13.5-3.367,4.509-6.394,8.868-9,12.956a102.119,102.119,0,0,0-5.925,10.32l-.136.284H512.959l.447-.755c3.126-5.282,6.5-10.72,10.023-16.161,3.22-4.97,6.671-10.28,10.55-16.235.9-1.372,1.78-2.738,2.641-4.065a22.331,22.331,0,0,1-9.433,2.225,16.551,16.551,0,0,1-8.924-2.332,18.525,18.525,0,0,1-5.385-4.944,55.208,55.208,0,0,1-6.548,14.075,75.742,75.742,0,0,1-11.713,14.343,67.522,67.522,0,0,1-14.987,10.9,35.545,35.545,0,0,1-16.829,4.386,19.494,19.494,0,0,1-6.99-1.16,12.854,12.854,0,0,1-5.11-3.519c-2.716-3.081-4.093-7.258-4.093-12.414a21.207,21.207,0,0,1,.576-4.665c-.9.939-1.917,1.985-2.966,3.036a109.356,109.356,0,0,1-10.691,9.421,64.242,64.242,0,0,1-10.633,6.726,22.311,22.311,0,0,1-9.691,2.575c-3.385,0-5.94-.968-7.594-2.878a9.432,9.432,0,0,1-2.467-6.278,22.034,22.034,0,0,1,1.751-8.213,71.02,71.02,0,0,1,5.272-10.014c-3.5,3.83-7.083,7.43-10.692,10.747A96.656,96.656,0,0,1,383.787,125.6c-5.276,3.159-10.37,4.761-15.138,4.761a15.029,15.029,0,0,1-9.97-3.544c-2.811-2.37-4.236-5.715-4.236-9.942a20.863,20.863,0,0,1,1.393-7.071c-.591.612-1.191,1.227-1.8,1.835a109.535,109.535,0,0,1-10.69,9.421,64.263,64.263,0,0,1-10.635,6.726,22.307,22.307,0,0,1-9.689,2.575c-3.387,0-5.942-.968-7.594-2.878a9.425,9.425,0,0,1-2.467-6.278,22.03,22.03,0,0,1,1.75-8.213q.419-1.036,1-2.246c-.853.909-1.652,1.736-2.43,2.514a94.554,94.554,0,0,1-14.322,12.235,32.184,32.184,0,0,1-6.872,3.641,18.578,18.578,0,0,1-6.394,1.225c-3.955,0-6.948-.861-8.9-2.558a8.387,8.387,0,0,1-2.966-6.6,16.8,16.8,0,0,1,1.486-6.877c.562-1.268,1.13-2.463,1.7-3.576-1.492,1.645-3.085,3.358-4.757,5.116a82.871,82.871,0,0,1-7.53,6.985,40.733,40.733,0,0,1-8.494,5.386,21.814,21.814,0,0,1-9.319,2.122c-4.458,0-7.951-1.391-10.383-4.136a14.212,14.212,0,0,1-3.645-9.71,24.559,24.559,0,0,1,.423-4.44,97.561,97.561,0,0,1-8.893,8.254,69.607,69.607,0,0,1-10.537,7.176,20.932,20.932,0,0,1-9.891,2.855,11.794,11.794,0,0,1-8.367-2.93,10.3,10.3,0,0,1-3.133-7.85,21.3,21.3,0,0,1,1.2-7.111q.6-1.7,1.043-2.8c-2.2,2.447-4.486,4.8-6.81,7.025a77.893,77.893,0,0,1-8.352,6.989,44.453,44.453,0,0,1-8.481,4.832,21.919,21.919,0,0,1-8.583,1.844c-3.97,0-6.883-.931-8.657-2.768a9.168,9.168,0,0,1-2.665-6.568,23.208,23.208,0,0,1,2.143-9.2c-.631.663-1.237,1.287-1.824,1.882a88.869,88.869,0,0,1-14.24,11.88,31.856,31.856,0,0,1-7.079,3.574,20.956,20.956,0,0,1-6.813,1.2,16.407,16.407,0,0,1-7.534-1.588,14.572,14.572,0,0,1-5.134-4.388,18.515,18.515,0,0,1-2.966-6.3,28.8,28.8,0,0,1-.919-7.345,68.15,68.15,0,0,1,2.908-19.894c1.837-6.038,3.935-12.1,6.239-18.022H92.229c-5.809,7.343-11.894,14.537-18.09,21.388a200.063,200.063,0,0,1-18.895,18.444A99.43,99.43,0,0,1,36.3,125.526,47.256,47.256,0,0,1,27,129.15a35.073,35.073,0,0,1-8.964,1.211,27.665,27.665,0,0,1-9.649-1.385A15.912,15.912,0,0,1,2.8,125.617,10.187,10.187,0,0,1,.154,121.44,13.431,13.431,0,0,1-.5,117.6a8.427,8.427,0,0,1,1.92-5.549A6.71,6.71,0,0,1,6.856,109.7a6.005,6.005,0,0,1,4.895,2.169,7.7,7.7,0,0,1,1.737,5.005,7.183,7.183,0,0,1-.963,3.489,4.388,4.388,0,0,1-2.165,2.014,7.06,7.06,0,0,0,3.844,2.581,21.353,21.353,0,0,0,5.815.8A34.781,34.781,0,0,0,36.111,121.3a99.518,99.518,0,0,0,17.227-11.756A192.8,192.8,0,0,0,70.7,93c5.705-6.118,11.28-12.51,16.57-19,2.094-2.647,4.816-6.029,8.567-10.642,3.376-4.144,7.294-8.761,11.646-13.722,4.32-4.921,9.092-10,14.181-15.083a190.363,190.363,0,0,1,16.366-14.56,150.4,150.4,0,0,1,18.1-12.3A83.091,83.091,0,0,1,175.36-.482l.329-.091L176.707.785l-.335.306a124.179,124.179,0,0,0-12.754,13.832c-4.419,5.5-8.809,11.521-13.049,17.91-4.252,6.41-8.34,13.223-12.15,20.252A234.309,234.309,0,0,0,128.25,74.232a159.728,159.728,0,0,0-7.015,20.228,69.177,69.177,0,0,0-2.6,17.726,21.028,21.028,0,0,0,1.845,9.249c1.18,2.422,3.54,3.6,7.215,3.6a15.86,15.86,0,0,0,7.6-2.462,61.493,61.493,0,0,0,9.212-6.619,124.2,124.2,0,0,0,9.61-9.161c1.593-1.683,3.211-3.429,4.943-5.337.461-.726.915-1.438,1.4-2.171,2.905-4.357,6.4-9.281,10.388-14.633,4.02-5.4,8.476-11.646,13.246-18.562l.149-.216H197.4l-.585.8c-4.527,6.157-9.078,12.288-13.528,18.222-4.273,5.694-8.154,11.029-11.535,15.857-3.328,4.756-6.02,8.959-8,12.493-1.932,3.46-2.912,6.2-2.912,8.143a5.12,5.12,0,0,0,1.286,3.874,4.784,4.784,0,0,0,3.446,1.217,15.667,15.667,0,0,0,7.249-2.105,52.64,52.64,0,0,0,8.219-5.539,96.3,96.3,0,0,0,8.253-7.535c2.685-2.745,5.226-5.5,7.554-8.186s4.4-5.208,6.112-7.461c1.738-2.276,3.035-4.084,3.855-5.375l0-.006,16.02-24.395h13.7l-.58.795C230,74.837,224.442,82.452,219.452,89.3c-4.522,6.213-8.219,11.516-10.988,15.761a79.973,79.973,0,0,0-6,10.481,17.564,17.564,0,0,0-1.762,6.921,5.142,5.142,0,0,0,1.149,3.379,3.9,3.9,0,0,0,3.224,1.353,17.136,17.136,0,0,0,8.051-2.554,62.873,62.873,0,0,0,9.663-6.8,114.532,114.532,0,0,0,9.967-9.518c.606-.651,1.2-1.312,1.779-1.95l.738-.816a48,48,0,0,1,2.913-5.892,80.78,80.78,0,0,1,13.158-16.879A84.631,84.631,0,0,1,268.305,69.73a43.661,43.661,0,0,1,8.8-3.969,27.687,27.687,0,0,1,8.22-1.331,12.239,12.239,0,0,1,12.949,12.425l46.3-73.746h13.083l-.482.766c-4.632,7.366-9.792,15.319-15.337,23.636-5.664,8.493-11.247,16.808-16.6,24.713-5.536,8.182-10.906,16.161-15.96,23.716-5.043,7.53-9.622,14.6-13.609,21-3.942,6.331-7.121,11.87-9.447,16.465-2.3,4.537-3.464,7.89-3.464,9.964a4.2,4.2,0,0,0,.873,2.833,3.176,3.176,0,0,0,2.594,1c2.9,0,6.269-1.189,10.018-3.533a92.128,92.128,0,0,0,13.806-11.3A162.863,162.863,0,0,0,323.548,97.38c2.018-3.1,4.16-6.283,6.548-9.738,4.041-5.852,8.924-13.1,14.513-21.545l.148-.224h12.769l-.547.786c-6.4,9.2-12.046,17.271-16.774,23.991-4.571,6.5-8.3,11.952-11.082,16.219a111.425,111.425,0,0,0-6.1,10.23,14.323,14.323,0,0,0-1.84,5.908c0,3.757,1.876,4.192,3.286,4.192a17.626,17.626,0,0,0,8.147-2.556,71.049,71.049,0,0,0,9.938-6.716,122.825,122.825,0,0,0,10.419-9.339c2.2-2.2,4.486-4.587,6.99-7.293.986-1.748,1.981-3.407,3.038-5.069,2.556-4.014,5.441-8.387,8.576-13,3.049-4.493,6.186-9.263,9.332-14.188h-9.638l1.583-3.166h10.141l14.071-20.922H409.1L394.847,65.873h23.671l-1.581,3.166h-24.2c-4.747,7.706-9.04,14.456-12.761,20.065-3.785,5.71-7,10.683-9.552,14.779a103.639,103.639,0,0,0-5.831,10.409,17.615,17.615,0,0,0-1.938,7.273c0,2.111.685,3.533,2.1,4.347a10.179,10.179,0,0,0,5.16,1.286c4.215,0,8.95-1.643,14.072-4.885A106.664,106.664,0,0,0,399.512,110.2,198.557,198.557,0,0,0,414.267,94.9c1.822-2.1,3.613-4.225,5.475-6.484.106-.153.206-.3.308-.449l.224-.327c3.965-5.737,8.848-12.986,14.514-21.547l.148-.224h12.771l-.547.786c-6.445,9.258-12.089,17.33-16.776,23.991-4.548,6.463-8.277,11.92-11.082,16.219a111.4,111.4,0,0,0-6.1,10.23,14.377,14.377,0,0,0-1.84,5.908c0,3.757,1.877,4.192,3.288,4.192a17.625,17.625,0,0,0,8.145-2.556,71.055,71.055,0,0,0,9.938-6.716,122.6,122.6,0,0,0,10.421-9.339c1.948-1.95,3.975-4.053,6.193-6.428a56.022,56.022,0,0,1,4.832-8.917,81.773,81.773,0,0,1,8.349-10.525,72.114,72.114,0,0,1,10.443-9.264A53.493,53.493,0,0,1,484.891,66.9a34.85,34.85,0,0,1,12.717-2.469c5.052,0,9.028,1.51,11.817,4.487a17.636,17.636,0,0,1,4.554,11.491,11.816,11.816,0,0,0,3.732,7.347,10.839,10.839,0,0,0,3.988,2.522,15.505,15.505,0,0,0,5.307.849,19.975,19.975,0,0,0,9.945-2.642,35.448,35.448,0,0,0,3-1.936c1.529-2.373,2.849-4.43,4.034-6.285,3.209-5.026,6.091-9.606,8.564-13.612l.139-.225,13.022-.6L545.237,94.213c1.382-1.65,2.866-3.425,4.47-5.344a130.006,130.006,0,0,1,10.864-11.5A70.051,70.051,0,0,1,572.652,68.2a24.655,24.655,0,0,1,12.61-3.769c3.727,0,6.667,1.05,8.74,3.122a10.916,10.916,0,0,1,3.122,8.021,15.919,15.919,0,0,1-2.13,7.086,87.357,87.357,0,0,1-5.171,8.525c-2.063,3.032-4.314,6.135-6.691,9.223s-4.61,6.078-6.663,8.916c-2.029,2.8-3.75,5.4-5.116,7.716a11.894,11.894,0,0,0-2,5.609,3.976,3.976,0,0,0,4.548,4.55c3.743,0,7.784-1.281,12.01-3.808,4.27-2.551,9.455-6.924,15.41-13l0,0c2.363-2.36,4.812-5.02,7.279-7.905,2.5-2.932,4.895-5.81,7.115-8.556s4.319-5.452,6.211-8.01c1.9-2.579,3.34-4.635,4.4-6.285l.256-.4,2.142,1.223-.3.446c-2.447,3.662-5.578,8.008-9.308,12.919-3.763,4.96-7.93,9.919-12.385,14.738-2.674,2.914-5.412,5.713-8.138,8.318a77.707,77.707,0,0,1-8.352,6.989,43.365,43.365,0,0,1-8.3,4.745A21.133,21.133,0,0,1,573.72,130.361Zm10.46-63.766a6.667,6.667,0,0,1,4.086,1.181,4.3,4.3,0,0,1,1.643,3.647c0,3.1-1.489,6.72-4.424,10.754-2.875,3.954-6.1,8.149-9.573,12.466-3.443,4.27-6.651,8.6-9.533,12.861-2.818,4.166-4.246,8.047-4.246,11.535a10.822,10.822,0,0,0,.816,4.31,8.756,8.756,0,0,0,2.434,3.241,12.551,12.551,0,0,0,8.337,2.768,20.141,20.141,0,0,0,7.831-1.672,42.371,42.371,0,0,0,8.108-4.636,76.691,76.691,0,0,0,8.243-6.9c2.711-2.59,5.434-5.373,8.094-8.272,4.434-4.8,8.58-9.73,12.324-14.665,3.568-4.7,6.585-8.874,8.975-12.425l-.387-.221c-1.042,1.6-2.413,3.546-4.178,5.94-1.9,2.57-4,5.277-6.238,8.045-2.225,2.752-4.625,5.637-7.132,8.576-2.483,2.9-4.949,5.583-7.329,7.96-6.015,6.135-11.267,10.561-15.611,13.156-4.383,2.621-8.6,3.95-12.523,3.95a4.95,4.95,0,0,1-5.548-5.55,12.809,12.809,0,0,1,2.143-6.117c1.381-2.343,3.119-4.965,5.167-7.794,2.059-2.846,4.307-5.853,6.681-8.939s4.6-6.16,6.657-9.176a86.361,86.361,0,0,0,5.112-8.425,14.971,14.971,0,0,0,2.016-6.623,11.247,11.247,0,0,0-.71-4.08,9.345,9.345,0,0,0-2.119-3.234c-1.878-1.877-4.581-2.829-8.033-2.829a23.674,23.674,0,0,0-12.1,3.628A69.047,69.047,0,0,0,561.255,78.1a128.975,128.975,0,0,0-10.78,11.408c-3.44,4.117-6.331,7.569-8.839,10.553l-.351.417-1.046-1.046L563.69,66.92l-10.426.481c-2.444,3.956-5.281,8.463-8.433,13.4-1.2,1.878-2.536,3.961-4.088,6.37l-.052.081-.079.056a36.812,36.812,0,0,1-3.167,2.046,20.964,20.964,0,0,1-10.438,2.772c-4.206,0-7.571-1.233-10-3.664a12.781,12.781,0,0,1-4.022-7.976v-.016A16.667,16.667,0,0,0,508.695,69.6c-2.593-2.768-6.323-4.171-11.087-4.171a33.855,33.855,0,0,0-12.353,2.4,52.494,52.494,0,0,0-11.7,6.432,71.12,71.12,0,0,0-10.3,9.135,80.776,80.776,0,0,0-8.247,10.4,54.98,54.98,0,0,0-4.78,8.837l-.035.082-.06.065c-2.249,2.41-4.3,4.541-6.277,6.517a123.594,123.594,0,0,1-10.507,9.416,72.041,72.041,0,0,1-10.08,6.81,18.576,18.576,0,0,1-8.625,2.678c-1.956,0-4.288-.9-4.288-5.192a15.285,15.285,0,0,1,1.945-6.355,112.313,112.313,0,0,1,6.162-10.33c2.812-4.309,6.547-9.775,11.1-16.248s10.009-14.272,16.226-23.2H435.472C429.866,75.342,425.03,82.52,421.1,88.211l-.221.323c-.107.156-.212.31-.324.472l-.025.033c-1.872,2.272-3.672,4.4-5.5,6.519a199.568,199.568,0,0,1-14.83,15.372,107.675,107.675,0,0,1-15.673,12.228,37.169,37.169,0,0,1-7.612,3.772,21.485,21.485,0,0,1-6.995,1.267,11.164,11.164,0,0,1-5.66-1.42c-1.722-.994-2.6-2.748-2.6-5.213a18.578,18.578,0,0,1,2.033-7.7,104.588,104.588,0,0,1,5.888-10.514c2.558-4.1,5.776-9.084,9.567-14.8,3.753-5.658,8.09-12.479,12.889-20.274l.146-.238h24.138l.582-1.166H392.956L407.2,45.951H397.6L383.525,66.873H373.47l-.583,1.166h9.842l-.489.769c-3.315,5.206-6.625,10.247-9.838,14.982-3.13,4.6-6.01,8.967-8.56,12.972-1.058,1.663-2.052,3.323-3.039,5.074l-.029.051-.04.043c-2.528,2.733-4.837,5.142-7.057,7.364a123.806,123.806,0,0,1-10.5,9.415,72.039,72.039,0,0,1-10.08,6.81,18.578,18.578,0,0,1-8.627,2.678c-1.955,0-4.286-.9-4.286-5.192a15.231,15.231,0,0,1,1.945-6.355,112.337,112.337,0,0,1,6.162-10.329c2.789-4.276,6.524-9.743,11.1-16.248,4.592-6.526,10.048-14.328,16.224-23.2H345.294c-5.531,8.354-10.367,15.532-14.376,21.338-2.388,3.455-4.529,6.639-6.546,9.736l-.028.039a163.918,163.918,0,0,1-13.6,15.1,93.091,93.091,0,0,1-13.97,11.428c-3.911,2.445-7.459,3.685-10.548,3.685a4.161,4.161,0,0,1-3.358-1.35,5.219,5.219,0,0,1-1.109-3.478c0-2.264,1.168-5.671,3.572-10.416,2.339-4.621,5.532-10.187,9.49-16.542C298.818,90,303.4,82.924,308.452,75.384c5.055-7.556,10.426-15.537,15.963-23.72,5.346-7.9,10.929-16.216,16.591-24.707,5.348-8.023,10.338-15.7,14.84-22.848H345.127L298.591,78.237h-1.335l.017-.516a13.438,13.438,0,0,0-.693-4.912,10.986,10.986,0,0,0-2.414-3.926A10.589,10.589,0,0,0,290.33,66.3a13.672,13.672,0,0,0-5-.868c-5.055,0-10.613,1.738-16.521,5.165A83.63,83.63,0,0,0,252.044,83.5a79.774,79.774,0,0,0-13,16.669,46.95,46.95,0,0,0-2.886,5.85l-.033.082-.06.066q-.4.44-.8.879c-.579.641-1.178,1.3-1.79,1.962a115.533,115.533,0,0,1-10.055,9.6,63.872,63.872,0,0,1-9.819,6.905,18.09,18.09,0,0,1-8.537,2.68,4.9,4.9,0,0,1-4-1.717,6.113,6.113,0,0,1-1.377-4.016,18.526,18.526,0,0,1,1.848-7.326,80.892,80.892,0,0,1,6.08-10.622c2.817-4.319,6.421-9.489,11.017-15.8,4.828-6.629,10.183-13.972,15.924-21.841H223.376L207.655,90.812c-.847,1.333-2.124,3.114-3.9,5.444-1.729,2.269-3.8,4.8-6.151,7.509s-4.9,5.47-7.595,8.23a97.35,97.35,0,0,1-8.339,7.614,53.635,53.635,0,0,1-8.377,5.643,16.638,16.638,0,0,1-7.72,2.223,5.81,5.81,0,0,1-4.13-1.487,6.052,6.052,0,0,1-1.6-4.6c0-2.145.994-4.968,3.039-8.631,2-3.563,4.707-7.795,8.054-12.578,3.388-4.837,7.275-10.181,11.555-15.884,4.255-5.676,8.6-11.532,12.936-17.418H184.771c-4.72,6.839-9.133,13.021-13.118,18.375-3.977,5.339-7.462,10.248-10.357,14.59-.489.736-.947,1.455-1.413,2.189l-.023.036-.029.032c-1.748,1.925-3.379,3.686-4.986,5.384a125.209,125.209,0,0,1-9.688,9.235,62.478,62.478,0,0,1-9.364,6.726,16.814,16.814,0,0,1-8.094,2.593c-4.039,0-6.768-1.4-8.113-4.16a22,22,0,0,1-1.946-9.687A70.17,70.17,0,0,1,120.269,94.2a160.721,160.721,0,0,1,7.059-20.356,235.311,235.311,0,0,1,10.211-21.237c3.825-7.054,7.928-13.894,12.2-20.328,4.256-6.414,8.664-12.465,13.1-17.984A126.47,126.47,0,0,1,175.363.659L175.3.574A82.232,82.232,0,0,0,156.627,8.55a149.392,149.392,0,0,0-17.978,12.222,189.37,189.37,0,0,0-16.28,14.483c-5.074,5.073-9.83,10.131-14.137,15.036-4.344,4.952-8.255,9.559-11.622,13.693-3.75,4.612-6.47,7.991-8.562,10.635l0,.006c-5.3,6.509-10.895,12.919-16.615,19.053a193.8,193.8,0,0,1-17.45,16.636,100.518,100.518,0,0,1-17.4,11.874,35.76,35.76,0,0,1-16.558,4.567,22.351,22.351,0,0,1-6.087-.833,8.169,8.169,0,0,1-4.794-3.546l-.388-.6.7-.154a3.259,3.259,0,0,0,2.2-1.739,6.2,6.2,0,0,0,.837-3,6.725,6.725,0,0,0-1.511-4.372,4.987,4.987,0,0,0-4.121-1.8,5.683,5.683,0,0,0-4.667,1.986A7.453,7.453,0,0,0,.5,117.6a12.449,12.449,0,0,0,.61,3.553,9.206,9.206,0,0,0,2.4,3.761,14.941,14.941,0,0,0,5.236,3.133,26.717,26.717,0,0,0,9.291,1.318,39.369,39.369,0,0,0,17.807-4.725A98.431,98.431,0,0,0,54.6,111.894,199.039,199.039,0,0,0,73.4,93.542c6.234-6.893,12.357-14.136,18.2-21.527l.15-.19h25.684l-.268.683c-2.4,6.117-4.58,12.385-6.48,18.631a67.151,67.151,0,0,0-2.864,19.6,27.8,27.8,0,0,0,.886,7.09,17.521,17.521,0,0,0,2.805,5.961,13.581,13.581,0,0,0,4.785,4.091,15.429,15.429,0,0,0,7.077,1.477c4.214,0,8.7-1.55,13.343-4.608a87.869,87.869,0,0,0,14.078-11.747c1.243-1.258,2.568-2.652,4.05-4.261l2.485-2.7-1.672,3.264c-.386.754-.76,1.489-1.081,2.183a22.859,22.859,0,0,0-2.389,9.529,8.2,8.2,0,0,0,2.384,5.874c1.579,1.634,4.249,2.463,7.938,2.463A20.928,20.928,0,0,0,170.7,127.6a43.461,43.461,0,0,0,8.289-4.724,76.9,76.9,0,0,0,8.244-6.9c2.714-2.593,5.374-5.374,7.907-8.266l.354-.4,1.008,1.017-.2.332a27.758,27.758,0,0,0-1.67,4.149,20.3,20.3,0,0,0-1.146,6.779,10.889,10.889,0,0,0,.708,4.032A8.543,8.543,0,0,0,196.3,126.7a10.833,10.833,0,0,0,7.683,2.659,19.957,19.957,0,0,0,9.414-2.734,68.619,68.619,0,0,0,10.383-7.073,98.229,98.229,0,0,0,10.029-9.474l1.325-1.432-.473,1.893a24.765,24.765,0,0,0-.779,5.975,13.24,13.24,0,0,0,3.393,9.047,10.6,10.6,0,0,0,4.07,2.842,15.094,15.094,0,0,0,5.565.957,20.823,20.823,0,0,0,8.894-2.028,39.735,39.735,0,0,0,8.285-5.255,81.888,81.888,0,0,0,7.439-6.9c2.3-2.417,4.449-4.75,6.389-6.933l.255-.287,1.178.592-.262.458a63.044,63.044,0,0,0-2.863,5.726,15.809,15.809,0,0,0-1.4,6.471,7.333,7.333,0,0,0,2.623,5.844c1.761,1.534,4.533,2.312,8.24,2.312,3.849,0,8.123-1.579,12.705-4.693a93.567,93.567,0,0,0,14.171-12.109l0,0c1.48-1.48,3.041-3.14,4.91-5.222l2.856-3.181-2.045,3.754a54.663,54.663,0,0,0-2.652,5.461,21.041,21.041,0,0,0-1.677,7.838,8.453,8.453,0,0,0,2.223,5.623c1.454,1.68,3.754,2.532,6.838,2.532a21.332,21.332,0,0,0,9.248-2.473,63.278,63.278,0,0,0,10.467-6.622,108.528,108.528,0,0,0,10.592-9.334c1.055-1.057,2.092-2.139,3.095-3.185l2.668-2.781-1.353,2.834a22.285,22.285,0,0,0-2.3,9.075,13.427,13.427,0,0,0,.974,5.262,10.4,10.4,0,0,0,2.906,3.916,14.055,14.055,0,0,0,9.325,3.309c4.585,0,9.505-1.554,14.625-4.619A95.663,95.663,0,0,0,398.8,112.989,179.492,179.492,0,0,0,413.591,97.6l.8.6c-1.263,1.942-2.28,3.537-3.108,4.876a71.72,71.72,0,0,0-5.463,10.3,21.047,21.047,0,0,0-1.679,7.838,8.46,8.46,0,0,0,2.223,5.624c1.455,1.68,3.756,2.532,6.838,2.532a21.335,21.335,0,0,0,9.25-2.473,63.247,63.247,0,0,0,10.466-6.622,108.354,108.354,0,0,0,10.592-9.334c1.6-1.605,3.132-3.2,4.284-4.417l1.427-1.5L448.635,107a22.57,22.57,0,0,0-1.029,6.267c0,4.9,1.293,8.859,3.844,11.753,2.531,2.88,6.349,4.34,11.349,4.34a34.555,34.555,0,0,0,16.358-4.268,66.522,66.522,0,0,0,14.765-10.743A74.742,74.742,0,0,0,505.482,100.2a53.179,53.179,0,0,0,6.612-14.471l.1-.373h1.019l.148.229a17.2,17.2,0,0,0,5.434,5.168,15.572,15.572,0,0,0,8.394,2.18,22.084,22.084,0,0,0,10.4-2.827c.026-.014.053-.031.081-.048.044-.027.095-.058.152-.088l1.683-.877L537.7,91.875c-.936,1.444-1.9,2.938-2.883,4.44-3.878,5.953-7.329,11.263-10.549,16.232-3.35,5.171-6.561,10.339-9.554,15.372h9.991a105.615,105.615,0,0,1,5.847-10.141c2.615-4.108,5.656-8.487,9.038-13.016,3.356-4.5,7.035-9.058,10.934-13.555a165.912,165.912,0,0,1,11.758-12.3A68.448,68.448,0,0,1,573.823,70C577.609,67.742,581.094,66.595,584.18,66.595ZM464.06,128.2a6.561,6.561,0,0,1-5.826-2.928,13.733,13.733,0,0,1-1.888-7.674,34.829,34.829,0,0,1,1.829-10.614,61.215,61.215,0,0,1,5-11.276,96.808,96.808,0,0,1,7.16-10.876,66.181,66.181,0,0,1,8.453-9.27,50.59,50.59,0,0,1,8.836-6.467,17.242,17.242,0,0,1,8.362-2.5,7.252,7.252,0,0,1,6.266,2.822,11.172,11.172,0,0,1,1.989,6.7,36.344,36.344,0,0,1-1.642,10.15,74.363,74.363,0,0,1-4.45,11.351,82.342,82.342,0,0,1-6.621,11.248,65.826,65.826,0,0,1-8.271,9.727,44.269,44.269,0,0,1-9.306,6.929A20.484,20.484,0,0,1,464.06,128.2Zm31.924-60.6a16.269,16.269,0,0,0-7.872,2.37,49.588,49.588,0,0,0-8.658,6.34,65.191,65.191,0,0,0-8.324,9.13A95.823,95.823,0,0,0,464.044,96.2a60.217,60.217,0,0,0-4.918,11.091,33.84,33.84,0,0,0-1.78,10.307,12.778,12.778,0,0,0,1.72,7.12,5.547,5.547,0,0,0,4.994,2.482,19.5,19.5,0,0,0,9.409-2.556,43.27,43.27,0,0,0,9.094-6.774,64.82,64.82,0,0,0,8.144-9.578,81.342,81.342,0,0,0,6.54-11.111,73.36,73.36,0,0,0,4.39-11.2,35.354,35.354,0,0,0,1.6-9.868A10.2,10.2,0,0,0,501.44,70a5.432,5.432,0,0,0-2.21-1.8A7.947,7.947,0,0,0,495.984,67.595Zm-245.1,58.439c-2.709,0-4.616-.935-5.666-2.78a13.09,13.09,0,0,1-1.508-6.558,27.429,27.429,0,0,1,2.016-9.556,71.4,71.4,0,0,1,5.268-10.81,95.618,95.618,0,0,1,7.525-10.878,84.553,84.553,0,0,1,8.8-9.525,50.572,50.572,0,0,1,9.018-6.74,17.05,17.05,0,0,1,8.275-2.592c3.685,0,6.083,1.192,7.129,3.544a19.1,19.1,0,0,1,1.488,7.779,21.963,21.963,0,0,1-2.3,8.773,67.617,67.617,0,0,1-5.9,10.269,124.543,124.543,0,0,1-8.151,10.5,90.611,90.611,0,0,1-9.25,9.341,64.4,64.4,0,0,1-9,6.632A15.644,15.644,0,0,1,250.88,126.034Zm33.729-58.439a16.087,16.087,0,0,0-7.779,2.46,49.576,49.576,0,0,0-8.837,6.608,83.56,83.56,0,0,0-8.7,9.412,94.617,94.617,0,0,0-7.445,10.763,70.4,70.4,0,0,0-5.194,10.657,26.451,26.451,0,0,0-1.951,9.2,12.118,12.118,0,0,0,1.377,6.062c.872,1.532,2.441,2.276,4.8,2.276a14.7,14.7,0,0,0,7.229-2.457,63.409,63.409,0,0,0,8.857-6.53,89.6,89.6,0,0,0,9.146-9.238A123.548,123.548,0,0,0,284.2,96.392a66.615,66.615,0,0,0,5.817-10.114,21.006,21.006,0,0,0,2.211-8.359,18.111,18.111,0,0,0-1.4-7.373,4.312,4.312,0,0,0-2.153-2.189A9.363,9.363,0,0,0,284.608,67.595Zm-166.7,3.068H92.4l.631-.808c5.162-6.605,10.539-13.107,15.979-19.323s11.128-12.178,16.894-17.706a198.149,198.149,0,0,1,17.81-15.187A117.183,117.183,0,0,1,162.467,6.044l.32-.157.98.975-.372.354a196.62,196.62,0,0,0-26.179,30.4,247.955,247.955,0,0,0-19.168,32.76Zm-23.454-1h22.828a249.1,249.1,0,0,1,19.109-32.611,196.833,196.833,0,0,1,25.115-29.41,117.1,117.1,0,0,0-17.188,10.8A197.148,197.148,0,0,0,126.6,33.548c-5.745,5.508-11.408,11.444-16.833,17.643C104.561,57.139,99.414,63.35,94.457,69.663ZM457.21,45.228a5.959,5.959,0,0,1-4.513-1.87,6.843,6.843,0,0,1,0-9.164,6.377,6.377,0,0,1,9.022,0,6.843,6.843,0,0,1,0,9.165A5.954,5.954,0,0,1,457.21,45.228Zm0-11.9a4.945,4.945,0,0,0-3.787,1.557,5.844,5.844,0,0,0,0,7.789,5.379,5.379,0,0,0,7.569,0,5.844,5.844,0,0,0,0-7.79A4.941,4.941,0,0,0,457.21,33.325Zm-90.178,11.9a5.959,5.959,0,0,1-4.513-1.87,6.843,6.843,0,0,1,0-9.164,6.377,6.377,0,0,1,9.022,0,6.843,6.843,0,0,1,0,9.165A5.954,5.954,0,0,1,367.033,45.228Zm0-11.9a4.946,4.946,0,0,0-3.787,1.557,5.844,5.844,0,0,0,0,7.789,5.379,5.379,0,0,0,7.569,0,5.844,5.844,0,0,0,0-7.79A4.941,4.941,0,0,0,367.033,33.325Z" transform="translate(91.049 711.395)" fill="rgba(0,0,0,0)"/>
  </g>
</svg>
