<svg xmlns="http://www.w3.org/2000/svg" width="399.605" height="147.623" viewBox="0 0 399.605 147.623">
  <g id="グループ_261" data-name="グループ 261" transform="translate(0.5 -565.5)" opacity="0.75">
    <path id="合体_13" data-name="合体 13" d="M12.731,68.79a20.93,20.93,0,0,1-6.918-3.267,14.532,14.532,0,0,1-4.325-5A13.608,13.608,0,0,1,0,54.187a17.11,17.11,0,0,1,1.874-8.263,21.2,21.2,0,0,1,4.9-6.053,34.941,34.941,0,0,1,7.013-4.612q3.985-2.018,8.118-3.843A22.309,22.309,0,0,0,24.5,30.024a4.2,4.2,0,0,0,1.49-1.682,8.3,8.3,0,0,0,.721-2.738,41.23,41.23,0,0,0,.192-4.467,23.854,23.854,0,0,1,1.345-8.023A19.1,19.1,0,0,1,32.33,6.389,19.507,19.507,0,0,1,39.247,1.73,25.365,25.365,0,0,1,49,0,20.609,20.609,0,0,1,53.61.529a13.094,13.094,0,0,1,4.18,1.729,10.083,10.083,0,0,1,3.074,3.075,8.1,8.1,0,0,1,1.2,4.467,11.126,11.126,0,0,1-1.441,5.668A13.935,13.935,0,0,1,56.877,19.7a16.643,16.643,0,0,1-5.092,2.595,18.435,18.435,0,0,1-5.477.864,16.835,16.835,0,0,1-2.594-.193,8.9,8.9,0,0,1-1.73-.383l.1-1.058A12.994,12.994,0,0,0,46.309,22a9.338,9.338,0,0,0,5.044-1.345,13.053,13.053,0,0,0,3.6-3.266,14.493,14.493,0,0,0,2.162-4.035,11.769,11.769,0,0,0,.721-3.747q0-4.419-2.595-6.439a11.479,11.479,0,0,0-7.2-2.017,12.768,12.768,0,0,0-7.109,1.873,14.732,14.732,0,0,0-4.613,4.708,20.741,20.741,0,0,0-2.5,6.15,27.177,27.177,0,0,0-.769,6.1,11.53,11.53,0,0,1-1.537,6.15,10.786,10.786,0,0,1-4.9,4.035q-3.748,1.729-7.446,3.458a29.158,29.158,0,0,0-6.582,4.181,18.964,18.964,0,0,0-4.658,5.957,19.562,19.562,0,0,0-1.778,8.886A14.585,14.585,0,0,0,7.4,58.51a15.7,15.7,0,0,0,3.458,5.044,17.348,17.348,0,0,0,12.2,4.852,27.473,27.473,0,0,0,7.3-1.058,24.689,24.689,0,0,0,7.062-3.171,18.367,18.367,0,0,0,5.332-5.333A13.424,13.424,0,0,0,44.867,51.3q0-4.225-1.729-6.437t-5.572-2.209a11.129,11.129,0,0,0-3.939.72,16.579,16.579,0,0,0-3.65,1.922,21.8,21.8,0,0,0-3.219,2.739,23.879,23.879,0,0,0-2.546,3.073l-.672-.48A24.877,24.877,0,0,1,30.5,44a16.93,16.93,0,0,1,9.176-2.5q5.187,0,7.782,2.641a8.906,8.906,0,0,1,2.594,6.485A11.3,11.3,0,0,1,47.462,57.5a28.724,28.724,0,0,1-6.63,6.2,37.4,37.4,0,0,1-8.982,4.514,29.42,29.42,0,0,1-9.752,1.73A34.5,34.5,0,0,1,12.731,68.79Zm313.245-1.68a7.689,7.689,0,0,1-2.21-5.908,16.614,16.614,0,0,1,1.188-5.953c-.7.8-1.412,1.6-2.147,2.4q-2.114,2.306-4.323,4.419a41.1,41.1,0,0,1-4.42,3.7,22.669,22.669,0,0,1-4.371,2.5,10.954,10.954,0,0,1-4.276.913,6.916,6.916,0,0,1-4.611-1.537,5.227,5.227,0,0,1-1.826-4.227,11.468,11.468,0,0,1,2.306-6.294q2.306-3.407,5.092-6.869t5.092-6.629q2.306-3.171,2.306-5.574a2.027,2.027,0,0,0-.769-1.729,3.278,3.278,0,0,0-2.018-.576,10.729,10.729,0,0,0-5.379,1.777,36,36,0,0,0-6.1,4.707,87.551,87.551,0,0,0-6.244,6.534q-3.123,3.6-5.813,7.2t-4.8,6.918a54.387,54.387,0,0,0-3.171,5.524H273.52q2.5-4.227,5.333-8.6c.316-.488.626-.962.94-1.448-.3.306-.587.616-.892.921a57.592,57.592,0,0,1-5.668,5,33.81,33.81,0,0,1-5.62,3.554,11.568,11.568,0,0,1-5.044,1.346,4.819,4.819,0,0,1-3.844-1.441,4.745,4.745,0,0,1-1.248-3.171,11.4,11.4,0,0,1,.913-4.275,32.087,32.087,0,0,1,1.914-3.816c-1.051,1.194-2.119,2.36-3.21,3.479a52.079,52.079,0,0,1-7.686,6.582,12.916,12.916,0,0,1-7.206,2.642,5.343,5.343,0,0,1-4.082-1.393,4.694,4.694,0,0,1-1.3-3.315,8.317,8.317,0,0,1,.431-2.642q.432-1.3.913-2.641l-.192-.1q-1.25,1.347-3.122,3.122a36.855,36.855,0,0,1-4.036,3.315,27.436,27.436,0,0,1-4.468,2.595,10.618,10.618,0,0,1-4.419,1.057q-3.556,0-5-2.21a8.94,8.94,0,0,1-1.442-5,16.342,16.342,0,0,1,1.174-5.763q-2.092,2.194-4.248,4.178a51.127,51.127,0,0,1-8.31,6.294,15.536,15.536,0,0,1-7.927,2.5,7.717,7.717,0,0,1-5.14-1.826,6.3,6.3,0,0,1-2.162-5.092,12.1,12.1,0,0,1,1.248-4.947A49.183,49.183,0,0,1,193.4,51.4c.738-1.16,1.535-2.383,2.379-3.659a15.509,15.509,0,0,1-2.761,1.4,9.32,9.32,0,0,1-3.363.625,6.691,6.691,0,0,1-4.948-1.873,7.08,7.08,0,0,1-1.874-5.236,8.082,8.082,0,0,1,1.057-4.131l-.192-.194a76.092,76.092,0,0,0-8.647,7.062q-4.709,4.373-9.992,10.328a35.076,35.076,0,0,0-3.987,5.573,56.73,56.73,0,0,0-3.6,7.109H151.22c2.543-4.049,5.085-8.063,7.628-12.078-1.291,1.25-2.617,2.48-4.025,3.671a52.96,52.96,0,0,1-6.485,4.708,35.376,35.376,0,0,1-6.773,3.267,20.043,20.043,0,0,1-6.676,1.2,8.8,8.8,0,0,1-6.245-2.066,7.689,7.689,0,0,1-2.21-5.908,17.61,17.61,0,0,1,1.848-7.5,93.509,93.509,0,0,1-6.555,6.687,51.132,51.132,0,0,1-8.311,6.294,15.533,15.533,0,0,1-7.926,2.5,7.714,7.714,0,0,1-5.14-1.826,6.3,6.3,0,0,1-2.162-5.092,12.1,12.1,0,0,1,1.248-4.947c.13-.284.276-.579.419-.869-.361.4-.719.806-1.089,1.206q-2.115,2.306-4.323,4.419a41.106,41.106,0,0,1-4.421,3.7,22.637,22.637,0,0,1-4.37,2.5,10.958,10.958,0,0,1-4.276.913,6.917,6.917,0,0,1-4.612-1.537,5.227,5.227,0,0,1-1.826-4.227,11.47,11.47,0,0,1,2.307-6.294q2.3-3.407,5.091-6.869t5.092-6.629q2.306-3.171,2.306-5.574a2.025,2.025,0,0,0-.769-1.729,3.275,3.275,0,0,0-2.017-.576,10.735,10.735,0,0,0-5.38,1.777,36,36,0,0,0-6.1,4.707,87.731,87.731,0,0,0-6.244,6.534q-3.123,3.6-5.813,7.2t-4.8,6.918a54.421,54.421,0,0,0-3.172,5.524H49.478q2.5-4.227,5.333-8.6t5.62-8.645q2.784-4.275,5.332-8.264t4.563-7.254l6.246-.288L63.89,52.938l.191.192q2.02-2.4,4.708-5.62a68.681,68.681,0,0,1,5.765-6.1,36.967,36.967,0,0,1,6.389-4.852,12.812,12.812,0,0,1,6.581-1.969,6.038,6.038,0,0,1,4.467,1.585,5.525,5.525,0,0,1,1.585,4.083,8.2,8.2,0,0,1-1.1,3.651,45.959,45.959,0,0,1-2.739,4.514q-1.635,2.4-3.555,4.9t-3.555,4.756q-1.635,2.259-2.738,4.131a6.555,6.555,0,0,0-1.105,3.123,2.377,2.377,0,0,0,2.69,2.69A12.815,12.815,0,0,0,88,65.956a44.357,44.357,0,0,0,8.263-6.964q1.921-1.922,3.891-4.227c.6-.7,1.18-1.392,1.757-2.084.254-.422.513-.845.788-1.279q2.02-3.171,4.564-6.917t5.236-7.974h-5.187l.576-1.154h5.38l7.493-11.145h5.765l-7.59,11.145h12.681l-.576,1.154H118.171q-3.843,6.245-6.87,10.809T106.209,55.2a55.28,55.28,0,0,0-3.122,5.572,9.608,9.608,0,0,0-1.056,3.987A2.685,2.685,0,0,0,103.28,67.3a5.651,5.651,0,0,0,2.881.721A14.588,14.588,0,0,0,113.8,65.38,56.907,56.907,0,0,0,122.11,58.9a105.657,105.657,0,0,0,7.681-7.944,38.811,38.811,0,0,1,14.321-13.769,18.73,18.73,0,0,1,9.031-2.594,6.13,6.13,0,0,1,3.747,1.009,3.439,3.439,0,0,1,1.346,2.93q0,2.306-2.5,4.467a28.686,28.686,0,0,1-6.1,3.939A62.622,62.622,0,0,1,141.9,50.1a66.241,66.241,0,0,1-7.3,2.066,20.229,20.229,0,0,0-1.731,4.324,17.722,17.722,0,0,0-.671,4.8,10.657,10.657,0,0,0,.239,2.258,6.937,6.937,0,0,0,.769,2.017,4.234,4.234,0,0,0,1.442,1.489,4.144,4.144,0,0,0,2.258.577,17.631,17.631,0,0,0,7.446-2.065,48.43,48.43,0,0,0,8.694-5.524,69.412,69.412,0,0,0,8.376-7.8l.174-.275q5.188-8.165,10.664-16.621h5.861l-12.2,17.774.193.193q1.343-1.632,3.41-3.8t4.514-4.419q2.452-2.256,5.142-4.468t5.284-3.939a5.833,5.833,0,0,1,1.057-1.537,3.337,3.337,0,0,1,2.3-.576q1.058,0,1.875.048c.543.033,1.1.081,1.68.144a24.717,24.717,0,0,0-3.17,3.987,9.216,9.216,0,0,0-1.537,5.141,5.033,5.033,0,0,0,1.105,3.459,3.507,3.507,0,0,0,2.738,1.249,7.37,7.37,0,0,0,2.834-.577A14.073,14.073,0,0,0,195.99,46.6c.386-.266.741-.564,1.113-.846.283-.419.563-.837.855-1.267q2.546-3.748,5.237-7.974h-5.188l.576-1.154h5.38l7.493-11.145h5.765l-7.59,11.145h12.682l-.576,1.154H208.865q-3.845,6.245-6.871,10.809T196.9,55.2a55.279,55.279,0,0,0-3.122,5.572,9.6,9.6,0,0,0-1.057,3.987,2.685,2.685,0,0,0,1.249,2.546,5.652,5.652,0,0,0,2.882.721,14.588,14.588,0,0,0,7.636-2.642A56.859,56.859,0,0,0,212.8,58.9c1.623-1.51,3.2-3.084,4.733-4.706.146-.3.293-.606.454-.915a42.106,42.106,0,0,1,6.341-8.934,39.575,39.575,0,0,1,8.359-6.965,16.4,16.4,0,0,1,8.55-2.786,9.779,9.779,0,0,1,3.362.528,6.873,6.873,0,0,1,2.4,1.441,6.7,6.7,0,0,1,1.49,2.065,12.571,12.571,0,0,1,.816,2.4h.193l3.17-5.669h6.245q-3.556,5-6.821,9.7t-5.813,8.695q-2.546,3.987-4.083,7.013a11.531,11.531,0,0,0-1.536,4.756q0,2.5,2.594,2.5a10.42,10.42,0,0,0,5.141-1.97,45.145,45.145,0,0,0,6.772-5.428,94.058,94.058,0,0,0,7.494-8.07c.1-.118.194-.239.29-.357,1.043-1.6,2.23-3.377,3.6-5.359q3.218-4.659,7.735-11.481h6.149q-5.285,7.592-8.935,12.778T265.6,56.781a59.032,59.032,0,0,0-3.267,5.476,7.838,7.838,0,0,0-1.008,3.267q0,2.5,2.017,2.5a9.6,9.6,0,0,0,4.467-1.393,38.106,38.106,0,0,0,5.333-3.6,65.522,65.522,0,0,0,5.573-5c1.425-1.426,2.764-2.84,4.057-4.245.567-.871,1.141-1.759,1.706-2.624q2.784-4.275,5.333-8.264t4.563-7.254l6.246-.288L287.932,52.938l.192.192q2.018-2.4,4.708-5.62a68.671,68.671,0,0,1,5.764-6.1,37.036,37.036,0,0,1,6.389-4.852,12.814,12.814,0,0,1,6.581-1.969,6.04,6.04,0,0,1,4.468,1.585,5.529,5.529,0,0,1,1.585,4.083,8.186,8.186,0,0,1-1.1,3.651,45.931,45.931,0,0,1-2.738,4.514q-1.635,2.4-3.555,4.9t-3.555,4.756q-1.635,2.259-2.738,4.131a6.555,6.555,0,0,0-1.105,3.123,2.378,2.378,0,0,0,2.69,2.69,12.815,12.815,0,0,0,6.533-2.066,44.356,44.356,0,0,0,8.263-6.964q1.92-1.922,3.89-4.227c.768-.9,1.515-1.791,2.25-2.68a37.724,37.724,0,0,1,6.348-8.369c.086-.086.176-.161.263-.245.22-.322.426-.63.6-.908l.228.131a38.1,38.1,0,0,1,7.554-5.511,18.727,18.727,0,0,1,9.031-2.594,6.132,6.132,0,0,1,3.747,1.009,3.439,3.439,0,0,1,1.346,2.93q0,2.306-2.5,4.467a28.686,28.686,0,0,1-6.1,3.939,62.621,62.621,0,0,1-7.734,3.171,66.195,66.195,0,0,1-7.3,2.066,20.275,20.275,0,0,0-1.73,4.324,17.722,17.722,0,0,0-.671,4.8,10.6,10.6,0,0,0,.239,2.258,6.912,6.912,0,0,0,.769,2.017,4.234,4.234,0,0,0,1.442,1.489,4.144,4.144,0,0,0,2.258.577,17.635,17.635,0,0,0,7.446-2.065,48.461,48.461,0,0,0,8.694-5.524,69.412,69.412,0,0,0,8.376-7.8l.174-.275q5.188-8.165,10.664-16.621h5.861l-12.2,17.774.194.193q1.343-1.632,3.41-3.8t4.514-4.419q2.452-2.256,5.142-4.468T381.8,36.7a5.854,5.854,0,0,1,1.057-1.537,3.337,3.337,0,0,1,2.3-.576q1.058,0,1.874.048c.544.033,1.105.081,1.681.144a24.717,24.717,0,0,0-3.17,3.987A9.216,9.216,0,0,0,384,43.907a5.033,5.033,0,0,0,1.105,3.459,3.507,3.507,0,0,0,2.738,1.249,7.37,7.37,0,0,0,2.834-.577,14.073,14.073,0,0,0,2.641-1.442q1.249-.865,2.4-1.824t2.017-1.731l.577.385q-.961.961-2.21,2.066a24.787,24.787,0,0,1-2.691,2.065,15.466,15.466,0,0,1-3.073,1.585,9.321,9.321,0,0,1-3.363.625,6.691,6.691,0,0,1-4.948-1.873,7.08,7.08,0,0,1-1.874-5.236,8.082,8.082,0,0,1,1.057-4.131l-.192-.194a76.093,76.093,0,0,0-8.648,7.062q-4.707,4.373-9.991,10.328A35.077,35.077,0,0,0,358.4,61.3a56.73,56.73,0,0,0-3.6,7.109h-6.245c2.543-4.049,5.085-8.063,7.628-12.078-1.291,1.25-2.617,2.48-4.026,3.671a52.882,52.882,0,0,1-6.484,4.708,35.377,35.377,0,0,1-6.773,3.267,20.044,20.044,0,0,1-6.677,1.2A8.8,8.8,0,0,1,325.976,67.109Zm-90.5-28.87a33.877,33.877,0,0,0-6.725,6.388,40,40,0,0,0-5.333,8.6,21.644,21.644,0,0,0-2.161,9.031,5.533,5.533,0,0,0,.913,3.411,3.01,3.01,0,0,0,2.547,1.2,8.326,8.326,0,0,0,3.843-1.2,28.281,28.281,0,0,0,4.611-3.218,46.341,46.341,0,0,0,4.756-4.66,39.47,39.47,0,0,0,4.18-5.62,35.311,35.311,0,0,0,2.977-6.053,16.687,16.687,0,0,0,1.154-5.861,4.137,4.137,0,0,0-4.324-4.515A11.557,11.557,0,0,0,235.477,38.239Zm108.609-.913a30.164,30.164,0,0,0-4.659,3.939,39.191,39.191,0,0,0-4.18,5.044,31.386,31.386,0,0,0-2.834,4.8,36.457,36.457,0,0,0,5.285-1.489,38.368,38.368,0,0,0,6.1-2.739,21.842,21.842,0,0,0,5.044-3.794,6.582,6.582,0,0,0,2.113-4.659,2.636,2.636,0,0,0-.72-2.018,2.512,2.512,0,0,0-1.778-.672A7.967,7.967,0,0,0,344.086,37.326Zm-197.333,0a30.163,30.163,0,0,0-4.659,3.939,39.268,39.268,0,0,0-4.18,5.044,31.387,31.387,0,0,0-2.834,4.8,36.457,36.457,0,0,0,5.285-1.489,38.369,38.369,0,0,0,6.1-2.739,21.842,21.842,0,0,0,5.044-3.794,6.582,6.582,0,0,0,2.113-4.659,2.636,2.636,0,0,0-.72-2.018,2.511,2.511,0,0,0-1.777-.672A7.968,7.968,0,0,0,146.753,37.326ZM283.8,22.914a3.376,3.376,0,0,1,0-4.515,3.131,3.131,0,0,1,4.419,0,3.379,3.379,0,0,1,0,4.515,3.131,3.131,0,0,1-4.419,0Z" transform="translate(0 566)" fill="#fff"/>
    <path id="合体_13_-_アウトライン" data-name="合体 13 - アウトライン" d="M22.1,70.443a35.161,35.161,0,0,1-9.5-1.172,21.523,21.523,0,0,1-7.081-3.348,15.091,15.091,0,0,1-4.469-5.166A14.164,14.164,0,0,1-.5,54.187a17.68,17.68,0,0,1,1.934-8.5,21.8,21.8,0,0,1,5.015-6.194,35.6,35.6,0,0,1,7.112-4.678c2.644-1.339,5.381-2.635,8.136-3.852A21.911,21.911,0,0,0,24.226,29.6a3.681,3.681,0,0,0,1.315-1.486,7.86,7.86,0,0,0,.672-2.572,40.956,40.956,0,0,0,.188-4.409,24.471,24.471,0,0,1,1.373-8.19,19.691,19.691,0,0,1,4.19-6.9,20.089,20.089,0,0,1,7.092-4.78A25.977,25.977,0,0,1,49-.5a21.207,21.207,0,0,1,4.723.542,13.656,13.656,0,0,1,4.338,1.8,10.628,10.628,0,0,1,3.226,3.226A8.626,8.626,0,0,1,62.565,9.8a11.668,11.668,0,0,1-1.508,5.918,14.5,14.5,0,0,1-3.88,4.377,17.217,17.217,0,0,1-5.244,2.672,19.023,19.023,0,0,1-5.625.887,17.418,17.418,0,0,1-2.671-.2,9.192,9.192,0,0,1-1.839-.413l-.345-.139.19-2.088.618.239a12.661,12.661,0,0,0,4.047.447,8.893,8.893,0,0,0,4.78-1.27,12.62,12.62,0,0,0,3.466-3.142,14.059,14.059,0,0,0,2.089-3.9,11.342,11.342,0,0,0,.694-3.585c0-2.77-.808-4.8-2.4-6.044a11.051,11.051,0,0,0-6.9-1.911A12.341,12.341,0,0,0,41.2,3.445a14.3,14.3,0,0,0-4.459,4.55,20.34,20.34,0,0,0-2.437,6,26.8,26.8,0,0,0-.756,5.987A12.071,12.071,0,0,1,31.939,26.4a11.324,11.324,0,0,1-5.118,4.228c-2.457,1.134-4.962,2.3-7.442,3.456a28.8,28.8,0,0,0-6.47,4.108,18.549,18.549,0,0,0-4.536,5.8,19.17,19.17,0,0,0-1.724,8.66,14.158,14.158,0,0,0,1.209,5.662A15.277,15.277,0,0,0,11.206,63.2a16.848,16.848,0,0,0,11.852,4.709,27.1,27.1,0,0,0,7.168-1.04,24.309,24.309,0,0,0,6.921-3.107,17.949,17.949,0,0,0,5.188-5.189A13,13,0,0,0,44.367,51.3c0-2.69-.546-4.752-1.623-6.129-1.048-1.338-2.791-2.017-5.178-2.017a10.679,10.679,0,0,0-3.764.688,16.162,16.162,0,0,0-3.541,1.864,21.394,21.394,0,0,0-3.145,2.676A23.481,23.481,0,0,0,24.623,51.4l-.288.419-1.5-1.067.294-.408a25.488,25.488,0,0,1,7.1-6.761,17.5,17.5,0,0,1,9.442-2.573c3.581,0,6.319.939,8.139,2.791a9.428,9.428,0,0,1,2.737,6.836,11.828,11.828,0,0,1-2.7,7.172,29.355,29.355,0,0,1-6.744,6.306,38.074,38.074,0,0,1-9.1,4.575A30.058,30.058,0,0,1,22.1,70.443Zm-5.822-35.86q-1.141.556-2.262,1.124A34.6,34.6,0,0,0,7.1,40.251a20.807,20.807,0,0,0-4.786,5.911A16.7,16.7,0,0,0,.5,54.187,13.174,13.174,0,0,0,1.933,60.3a14.1,14.1,0,0,0,4.179,4.824,20.535,20.535,0,0,0,6.755,3.187A34.171,34.171,0,0,0,22.1,69.443a29.061,29.061,0,0,0,9.587-1.7,37.073,37.073,0,0,0,8.863-4.454A28.363,28.363,0,0,0,47.064,57.2a10.859,10.859,0,0,0,2.492-6.566A8.46,8.46,0,0,0,47.106,44.5c-1.625-1.653-4.123-2.492-7.425-2.492a19.2,19.2,0,0,0-2.5.159q.191-.006.383-.006c2.711,0,4.718.808,5.965,2.4,1.218,1.557,1.835,3.827,1.835,6.745a13.976,13.976,0,0,1-2.2,7.816A18.943,18.943,0,0,1,37.7,64.6a25.307,25.307,0,0,1-7.2,3.235,28.093,28.093,0,0,1-7.433,1.075,17.847,17.847,0,0,1-12.552-4.995,16.272,16.272,0,0,1-3.567-5.2,15.15,15.15,0,0,1-1.291-6.059,20.14,20.14,0,0,1,1.833-9.112,19.542,19.542,0,0,1,4.78-6.112A28.574,28.574,0,0,1,16.275,34.582ZM49,.5a24.991,24.991,0,0,0-9.56,1.692A19.1,19.1,0,0,0,32.7,6.731a18.7,18.7,0,0,0-3.978,6.551A23.473,23.473,0,0,0,27.4,21.137a41.919,41.919,0,0,1-.195,4.523,8.833,8.833,0,0,1-.771,2.9,4.717,4.717,0,0,1-1.664,1.878l-.141.09,1.773-.82a10.354,10.354,0,0,0,4.683-3.843,11.1,11.1,0,0,0,1.463-5.887,27.8,27.8,0,0,1,.781-6.213,21.34,21.34,0,0,1,2.558-6.3,15.293,15.293,0,0,1,4.768-4.867A13.317,13.317,0,0,1,48.038.653,12,12,0,0,1,55.55,2.775c1.85,1.44,2.788,3.739,2.788,6.833a12.32,12.32,0,0,1-.748,3.908,15.056,15.056,0,0,1-2.235,4.173,13.615,13.615,0,0,1-3.738,3.391A9.875,9.875,0,0,1,46.309,22.5a16.86,16.86,0,0,1-3.785-.323l0,.045c.263.068.663.151,1.271.244a16.419,16.419,0,0,0,2.518.187,18.023,18.023,0,0,0,5.329-.842,16.219,16.219,0,0,0,4.94-2.517,13.505,13.505,0,0,0,3.614-4.077A10.683,10.683,0,0,0,61.565,9.8a7.646,7.646,0,0,0-1.122-4.2A9.633,9.633,0,0,0,57.52,2.679,12.659,12.659,0,0,0,53.5,1.017,20.2,20.2,0,0,0,49,.5ZM332.221,69.675a9.308,9.308,0,0,1-6.586-2.2,8.2,8.2,0,0,1-2.369-6.274,15.852,15.852,0,0,1,.5-3.861c-.2.224-.4.438-.592.646-1.417,1.546-2.879,3.041-4.344,4.441a41.8,41.8,0,0,1-4.474,3.744,23.28,23.28,0,0,1-4.468,2.553,11.5,11.5,0,0,1-4.47.952,7.43,7.43,0,0,1-4.933-1.655,5.726,5.726,0,0,1-2-4.61,12,12,0,0,1,2.392-6.574c1.545-2.284,3.267-4.606,5.117-6.9s3.554-4.515,5.077-6.609a9.554,9.554,0,0,0,2.21-5.279,1.542,1.542,0,0,0-.569-1.329,2.779,2.779,0,0,0-1.717-.476,10.3,10.3,0,0,0-5.123,1.707,35.674,35.674,0,0,0-6.016,4.642,87.461,87.461,0,0,0-6.208,6.5c-2.083,2.4-4.032,4.818-5.79,7.176-1.785,2.391-3.394,4.708-4.782,6.888a54.193,54.193,0,0,0-3.141,5.471l-.136.285h-7.149l.446-.755c1.23-2.08,2.537-4.212,3.9-6.362-1.14,1.031-2.294,2-3.451,2.882a34.472,34.472,0,0,1-5.7,3.606,12.114,12.114,0,0,1-5.265,1.4,5.31,5.31,0,0,1-4.222-1.613,5.252,5.252,0,0,1-1.37-3.5,11.949,11.949,0,0,1,.949-4.463q.1-.253.22-.521-.35.368-.694.721a52.826,52.826,0,0,1-7.761,6.645,13.455,13.455,0,0,1-7.49,2.729,5.834,5.834,0,0,1-4.448-1.552,5.2,5.2,0,0,1-1.43-3.656,8.858,8.858,0,0,1,.457-2.8q.158-.474.321-.95-.86.866-1.9,1.855a37.512,37.512,0,0,1-4.09,3.359,28.065,28.065,0,0,1-4.549,2.642,11.153,11.153,0,0,1-4.627,1.1c-2.538,0-4.359-.82-5.415-2.436a9.471,9.471,0,0,1-1.523-5.27,15.21,15.21,0,0,1,.543-3.887c-.93.933-1.86,1.826-2.779,2.67a51.874,51.874,0,0,1-8.391,6.354,16.093,16.093,0,0,1-8.184,2.568,8.238,8.238,0,0,1-5.462-1.944,6.8,6.8,0,0,1-2.339-5.474,12.645,12.645,0,0,1,1.293-5.155,49.923,49.923,0,0,1,3.3-5.969c.4-.631.822-1.284,1.271-1.973-.349.165-.7.315-1.053.45a9.865,9.865,0,0,1-3.542.657,7.2,7.2,0,0,1-5.3-2.019,7.59,7.59,0,0,1-2.02-5.59,8.982,8.982,0,0,1,.536-3.129,80.869,80.869,0,0,0-7.477,6.233c-3.116,2.894-6.466,6.357-9.958,10.294l0,0a34.754,34.754,0,0,0-3.928,5.493,56.483,56.483,0,0,0-3.571,7.047l-.129.306h-7.482l.481-.766c1.835-2.922,3.646-5.787,5.555-8.8-.407.361-.807.708-1.205,1.045a53.711,53.711,0,0,1-6.547,4.752,36.039,36.039,0,0,1-6.869,3.313,20.629,20.629,0,0,1-6.842,1.229,9.309,9.309,0,0,1-6.587-2.2,8.2,8.2,0,0,1-2.369-6.274,16.578,16.578,0,0,1,.868-5.145c-1.571,1.672-3.157,3.245-4.737,4.7a51.871,51.871,0,0,1-8.392,6.355,16.092,16.092,0,0,1-8.183,2.568,8.235,8.235,0,0,1-5.462-1.944,6.8,6.8,0,0,1-2.339-5.474,10.889,10.889,0,0,1,.583-3.344c-1.146,1.217-2.314,2.4-3.483,3.514a41.807,41.807,0,0,1-4.475,3.744,23.246,23.246,0,0,1-4.467,2.553,11.5,11.5,0,0,1-4.47.952,7.432,7.432,0,0,1-4.934-1.655,5.726,5.726,0,0,1-2-4.61,12,12,0,0,1,2.393-6.574c1.543-2.281,3.264-4.6,5.116-6.9,1.837-2.28,3.545-4.5,5.077-6.609a9.554,9.554,0,0,0,2.21-5.279,1.541,1.541,0,0,0-.569-1.329,2.812,2.812,0,0,0-1.717-.476,10.306,10.306,0,0,0-5.124,1.707,35.672,35.672,0,0,0-6.016,4.642,87.616,87.616,0,0,0-6.208,6.5c-2.077,2.4-4.025,4.811-5.79,7.176-1.787,2.394-3.4,4.711-4.781,6.888a54.2,54.2,0,0,0-3.142,5.472l-.136.284H48.6l.446-.755c1.666-2.816,3.464-5.715,5.343-8.617,1.735-2.68,3.574-5.508,5.621-8.647,1.882-2.89,3.674-5.669,5.329-8.26,1.8-2.822,3.292-5.192,4.559-7.247l.139-.225,7.544-.348L69.9,45.456c1.371-1.534,2.814-3.012,4.309-4.412a37.63,37.63,0,0,1,6.475-4.917,13.361,13.361,0,0,1,6.836-2.039,6.541,6.541,0,0,1,4.82,1.731,6.033,6.033,0,0,1,1.731,4.437,8.59,8.59,0,0,1-1.16,3.882A46.666,46.666,0,0,1,90.147,48.7c-1.1,1.617-2.3,3.274-3.572,4.924-1.281,1.666-2.474,3.262-3.546,4.744s-1.991,2.867-2.712,4.092a6.129,6.129,0,0,0-1.036,2.869c0,1.515.675,2.19,2.19,2.19a12.39,12.39,0,0,0,6.276-2,44.1,44.1,0,0,0,8.163-6.885c1.272-1.273,2.572-2.686,3.867-4.2.554-.649,1.12-1.32,1.728-2.05.274-.455.527-.866.774-1.256,1.348-2.117,2.886-4.448,4.573-6.931,1.549-2.281,3.14-4.7,4.738-7.193h-5.083l1.075-2.154H113L120.5,23.711h6.977l-7.59,11.145H132.43l-1.075,2.154h-12.9c-2.5,4.064-4.768,7.624-6.732,10.585-2.021,3.048-3.732,5.694-5.084,7.866a55.021,55.021,0,0,0-3.094,5.519,9.173,9.173,0,0,0-1.009,3.775,2.207,2.207,0,0,0,1,2.113,5.183,5.183,0,0,0,2.632.654,14.176,14.176,0,0,0,7.37-2.565,56.678,56.678,0,0,0,8.238-6.428,105.632,105.632,0,0,0,7.616-7.874A39.312,39.312,0,0,1,143.87,36.744a19.3,19.3,0,0,1,9.272-2.656,6.637,6.637,0,0,1,4.047,1.109,3.928,3.928,0,0,1,1.547,3.331c0,1.68-.9,3.31-2.671,4.845a29.315,29.315,0,0,1-6.207,4.01,63.4,63.4,0,0,1-7.8,3.2,68.165,68.165,0,0,1-7.131,2.032,20.055,20.055,0,0,0-1.579,4.018A17.306,17.306,0,0,0,132.7,61.3a10.2,10.2,0,0,0,.228,2.152,6.463,6.463,0,0,0,.713,1.872,3.546,3.546,0,0,0,3.267,1.816,17.241,17.241,0,0,0,7.228-2.016,48.145,48.145,0,0,0,8.6-5.468,69.211,69.211,0,0,0,8.286-7.707l.149-.236c3.429-5.4,7.018-10.99,10.668-16.627l.148-.228h7.082l-9.647,14.052c1.3-1.346,2.735-2.747,4.274-4.167,1.647-1.516,3.384-3.025,5.163-4.486,1.757-1.444,3.511-2.754,5.215-3.9a6.205,6.205,0,0,1,1.09-1.548,3.719,3.719,0,0,1,2.658-.722c.706,0,1.347.016,1.9.049s1.133.083,1.706.146l1.037.113-.738.737a24.341,24.341,0,0,0-3.1,3.907,8.768,8.768,0,0,0-1.456,4.867,4.58,4.58,0,0,0,.979,3.127,3,3,0,0,0,2.364,1.081,6.912,6.912,0,0,0,2.643-.539,13.641,13.641,0,0,0,2.547-1.39c.239-.165.464-.342.7-.528.107-.084.216-.17.328-.255l.261-.388c.18-.268.362-.538.548-.812,1.546-2.275,3.137-4.691,4.738-7.193H197.2l1.075-2.154H203.7l7.493-11.145h6.977l-7.59,11.145h12.545l-1.075,2.154h-12.9c-2.509,4.07-4.773,7.631-6.733,10.585-2.054,3.1-3.717,5.671-5.084,7.866a55.022,55.022,0,0,0-3.094,5.519,9.162,9.162,0,0,0-1.009,3.775,2.207,2.207,0,0,0,1,2.113,5.185,5.185,0,0,0,2.633.654,14.175,14.175,0,0,0,7.369-2.565,56.637,56.637,0,0,0,8.238-6.428C214,57.1,215.525,55.583,217.12,53.9c.132-.274.273-.564.428-.86A42.8,42.8,0,0,1,223.964,44a40.261,40.261,0,0,1,8.465-7.052,16.951,16.951,0,0,1,8.813-2.861,10.309,10.309,0,0,1,3.534.559,7.4,7.4,0,0,1,2.575,1.548,7.236,7.236,0,0,1,1.6,2.219,12.992,12.992,0,0,1,.586,1.53l2.845-5.088h7.508l-.562.79c-2.355,3.31-4.648,6.573-6.818,9.7-2.152,3.1-4.1,6.021-5.8,8.679-1.684,2.637-3.05,4.982-4.059,6.97a11.153,11.153,0,0,0-1.482,4.529c0,1.382.646,2,2.094,2a10.025,10.025,0,0,0,4.874-1.893,44.856,44.856,0,0,0,6.695-5.368,94.015,94.015,0,0,0,7.454-8.027c.056-.068.112-.137.168-.206l.1-.126c1.084-1.667,2.292-3.466,3.593-5.348,2.138-3.1,4.739-6.955,7.729-11.473l.148-.224H281.4l-.547.786c-3.626,5.209-6.549,9.389-8.937,12.78-2.436,3.464-4.421,6.368-5.9,8.632a58.858,58.858,0,0,0-3.238,5.426,7.42,7.42,0,0,0-.955,3.044c0,1.761.767,2,1.517,2a9.169,9.169,0,0,0,4.227-1.332,37.788,37.788,0,0,0,5.262-3.556,65.336,65.336,0,0,0,5.53-4.958c1.271-1.272,2.584-2.646,4.014-4.2l.683-1.051c.335-.515.669-1.031,1-1.538,1.939-2.979,3.683-5.681,5.33-8.26,1.775-2.782,3.267-5.153,4.559-7.247l.139-.225,7.544-.348-7.682,10.65c1.372-1.536,2.816-3.015,4.31-4.414a37.7,37.7,0,0,1,6.475-4.917,13.366,13.366,0,0,1,6.836-2.039,6.545,6.545,0,0,1,4.821,1.731,6.036,6.036,0,0,1,1.731,4.437,8.7,8.7,0,0,1-1.161,3.883,46.648,46.648,0,0,1-2.768,4.564c-1.093,1.607-2.3,3.264-3.572,4.924s-2.475,3.263-3.546,4.744c-1.083,1.5-2,2.873-2.712,4.091a6.13,6.13,0,0,0-1.036,2.87c0,1.515.675,2.19,2.19,2.19a12.39,12.39,0,0,0,6.276-2,44.1,44.1,0,0,0,8.163-6.885c1.273-1.275,2.573-2.688,3.867-4.2.73-.856,1.455-1.72,2.216-2.639a38.413,38.413,0,0,1,6.409-8.439c.056-.055.108-.1.159-.149l.075-.068c.234-.343.414-.615.566-.852l.257-.4.323.185a38.636,38.636,0,0,1,7.382-5.333,19.3,19.3,0,0,1,9.272-2.656,6.636,6.636,0,0,1,4.047,1.109,3.928,3.928,0,0,1,1.547,3.331c0,1.68-.9,3.31-2.671,4.845a29.315,29.315,0,0,1-6.207,4.01,63.4,63.4,0,0,1-7.8,3.2,68.106,68.106,0,0,1-7.132,2.032,20.094,20.094,0,0,0-1.578,4.018,17.307,17.307,0,0,0-.653,4.669,10.14,10.14,0,0,0,.228,2.152,6.441,6.441,0,0,0,.713,1.872,3.547,3.547,0,0,0,3.267,1.816,17.241,17.241,0,0,0,7.228-2.016,48.168,48.168,0,0,0,8.6-5.468,69.212,69.212,0,0,0,8.286-7.707l.149-.236c3.429-5.4,7.018-10.99,10.668-16.627l.148-.228H376.4l-9.647,14.052c1.3-1.346,2.735-2.747,4.274-4.167,1.647-1.516,3.384-3.025,5.163-4.486,1.757-1.444,3.511-2.754,5.215-3.9a6.226,6.226,0,0,1,1.09-1.548,3.719,3.719,0,0,1,2.658-.722c.707,0,1.347.016,1.9.049s1.133.083,1.707.146l1.037.113-.738.737a24.342,24.342,0,0,0-3.1,3.907,8.768,8.768,0,0,0-1.456,4.867,4.58,4.58,0,0,0,.979,3.127,3,3,0,0,0,2.364,1.081,6.912,6.912,0,0,0,2.643-.539,13.641,13.641,0,0,0,2.547-1.39c.821-.569,1.618-1.174,2.368-1.8.8-.666,1.454-1.228,2-1.719l.289-.258,1.406.939-.431.431c-.648.648-1.4,1.35-2.232,2.087a25.417,25.417,0,0,1-2.745,2.107,16.033,16.033,0,0,1-3.172,1.636,9.865,9.865,0,0,1-3.542.658,7.2,7.2,0,0,1-5.3-2.019,7.59,7.59,0,0,1-2.02-5.59,8.983,8.983,0,0,1,.536-3.129,80.961,80.961,0,0,0-7.478,6.234c-3.117,2.9-6.467,6.358-9.957,10.294l0,0a34.754,34.754,0,0,0-3.928,5.493,56.485,56.485,0,0,0-3.571,7.047l-.129.306h-7.482l.481-.766c1.835-2.922,3.646-5.788,5.555-8.8-.408.362-.808.709-1.207,1.046a53.632,53.632,0,0,1-6.546,4.752,36.039,36.039,0,0,1-6.869,3.313A20.632,20.632,0,0,1,332.221,69.675Zm-5.858-16.7-.942,2.456a16.187,16.187,0,0,0-1.155,5.774,7.248,7.248,0,0,0,2.052,5.543,8.356,8.356,0,0,0,5.9,1.931,19.635,19.635,0,0,0,6.511-1.172,35.037,35.037,0,0,0,6.678-3.221,52.625,52.625,0,0,0,6.423-4.664c1.255-1.061,2.526-2.22,4-3.649l3.021-2.926L356.6,56.6c-2.528,3.991-4.826,7.62-7.146,11.31h5.009a57.552,57.552,0,0,1,3.5-6.866,35.738,35.738,0,0,1,4.046-5.653h0q.662-.746,1.317-1.47l-.731-.728,11.9-17.335h-4.639c-3.6,5.558-7.134,11.07-10.514,16.389l-.173.275-.024.037-.03.033a70.237,70.237,0,0,1-8.437,7.852,49.166,49.166,0,0,1-8.785,5.581,18.2,18.2,0,0,1-7.663,2.115,4.652,4.652,0,0,1-2.525-.654,4.751,4.751,0,0,1-1.608-1.661,7.437,7.437,0,0,1-.824-2.161,11.138,11.138,0,0,1-.251-2.364,18.306,18.306,0,0,1,.69-4.939,20.88,20.88,0,0,1,1.773-4.43l.086-.156-.017,0,.395-.869a32.024,32.024,0,0,1,2.879-4.883,39.876,39.876,0,0,1,4.233-5.108,30.816,30.816,0,0,1,4.737-4,11.754,11.754,0,0,1,1.827-1.021,22.429,22.429,0,0,0-3.948,1.729,37.786,37.786,0,0,0-7.455,5.439l-.27.25-.138-.079c-.1.156-.22.328-.351.521l-.029.042-.037.035c-.044.043-.089.083-.134.124s-.087.079-.125.117a37.4,37.4,0,0,0-6.262,8.257l-.022.04-.029.036ZM310.99,35.241a3.782,3.782,0,0,1,2.317.676,2.509,2.509,0,0,1,.969,2.129,10.479,10.479,0,0,1-2.4,5.868c-1.533,2.107-3.251,4.344-5.107,6.648-1.833,2.275-3.538,4.575-5.068,6.835a11.043,11.043,0,0,0-2.22,6.014,4.71,4.71,0,0,0,1.648,3.845,6.46,6.46,0,0,0,4.289,1.42A10.508,10.508,0,0,0,309.5,67.8q.584-.247,1.176-.547a12.164,12.164,0,0,1-5.162,1.267,2.867,2.867,0,0,1-3.19-3.19,6.945,6.945,0,0,1,1.175-3.377c.732-1.245,1.662-2.648,2.763-4.17,1.077-1.489,2.276-3.093,3.564-4.767,1.265-1.645,2.456-3.286,3.538-4.877a45.666,45.666,0,0,0,2.708-4.465,7.754,7.754,0,0,0,1.047-3.42,5.006,5.006,0,0,0-1.439-3.73,5.591,5.591,0,0,0-4.114-1.438,12.385,12.385,0,0,0-6.326,1.9,36.7,36.7,0,0,0-6.3,4.787,68.484,68.484,0,0,0-5.723,6.057c-1.958,2.342-3.429,4.1-4.709,5.621l-.351.417-.878-.878L299.6,35.9l-4.948.228c-1.263,2.044-2.713,4.348-4.428,7.036-1.649,2.582-3.394,5.286-5.335,8.268-.331.507-.665,1.022-1,1.537l-.706,1.086-.023.035-.028.031c-1.311,1.425-2.525,2.7-3.7,3.886l.777.622-.443.682-.5.766c-1.711,2.64-3.348,5.27-4.874,7.828h4.765a57.716,57.716,0,0,1,3.062-5.293c1.4-2.2,3.024-4.538,4.824-6.949,1.773-2.377,3.737-4.811,5.836-7.233a88.467,88.467,0,0,1,6.28-6.571,36.662,36.662,0,0,1,6.188-4.772A11.256,11.256,0,0,1,310.99,35.241ZM262.716,53.272l-1.978,3.449a31.744,31.744,0,0,0-1.884,3.755,10.961,10.961,0,0,0-.876,4.088,4.224,4.224,0,0,0,1.127,2.844,4.37,4.37,0,0,0,3.466,1.268,9.173,9.173,0,0,0,2.645-.424,7.194,7.194,0,0,1-1.876.271c-.94,0-2.517-.39-2.517-3a8.211,8.211,0,0,1,1.061-3.491,59.775,59.775,0,0,1,3.3-5.525c1.483-2.274,3.474-5.188,5.917-8.661,2.266-3.218,5.013-7.146,8.387-11.991h-4.923c-2.932,4.427-5.485,8.216-7.592,11.265-1.3,1.883-2.51,3.683-3.592,5.348l-.015.023-.017.021-.114.141c-.059.073-.118.147-.179.22Zm-24.768,5.241.839.421-.149.417c-.311.87-.617,1.755-.909,2.631a7.86,7.86,0,0,0-.406,2.484,4.175,4.175,0,0,0,1.162,2.974,4.9,4.9,0,0,0,3.717,1.234,8.836,8.836,0,0,0,2-.24,5.471,5.471,0,0,1-.947.087,3.19,3.19,0,0,1-2.292-.764,2.972,2.972,0,0,1-.8-2.234,11.857,11.857,0,0,1,1.591-4.982c1.024-2.017,2.406-4.391,4.108-7.056s3.664-5.6,5.824-8.711c2-2.881,4.1-5.878,6.263-8.92h-4.983l-3.17,5.669h-.883l-.09-.387a12.123,12.123,0,0,0-.784-2.307,6.24,6.24,0,0,0-1.38-1.912,6.412,6.412,0,0,0-2.229-1.333,9.321,9.321,0,0,0-3.19-.5,15.982,15.982,0,0,0-8.287,2.712,39.262,39.262,0,0,0-8.254,6.878,41.8,41.8,0,0,0-6.267,8.828c-.161.307-.309.613-.447.9l-.034.07-.054.057-.106.112-.659,1.738a15.922,15.922,0,0,0-1.141,5.586,8.488,8.488,0,0,0,1.36,4.723c.871,1.334,2.368,1.983,4.577,1.983a10.167,10.167,0,0,0,4.211-1.011,27.066,27.066,0,0,0,4.386-2.548q.647-.46,1.271-.945a25.669,25.669,0,0,1-3,1.935,8.84,8.84,0,0,1-4.082,1.262,3.5,3.5,0,0,1-2.945-1.4,6.032,6.032,0,0,1-1.014-3.713,22.238,22.238,0,0,1,2.206-9.239,40.686,40.686,0,0,1,5.4-8.706,34.533,34.533,0,0,1,6.825-6.481,12.081,12.081,0,0,1,6.724-2.589,4.633,4.633,0,0,1,4.824,5.015,17.263,17.263,0,0,1-1.186,6.036,35.973,35.973,0,0,1-3.019,6.138,40.163,40.163,0,0,1-4.233,5.692Q238.125,58.32,237.948,58.514Zm-40.5-12.4-1.26,1.9c-.884,1.336-1.661,2.53-2.374,3.651a48.928,48.928,0,0,0-3.234,5.848,11.672,11.672,0,0,0-1.2,4.74,5.776,5.776,0,0,0,1.984,4.71,7.264,7.264,0,0,0,4.817,1.708,12.284,12.284,0,0,0,3.633-.581,11.057,11.057,0,0,1-2.96.428,6.169,6.169,0,0,1-3.132-.788,3.161,3.161,0,0,1-1.5-2.979,10.126,10.126,0,0,1,1.1-4.2,56.006,56.006,0,0,1,3.15-5.624c1.372-2.2,3.04-4.783,5.1-7.889,1.992-3,4.3-6.635,6.862-10.795l.146-.238H221.43l.077-.154H208.688l7.59-11.145h-4.554l-7.493,11.145h-5.337l-.077.154h5.29l-.489.768c-1.772,2.784-3.536,5.471-5.245,7.987-.186.273-.366.542-.546.808l-.308.458-.046.069Zm-67.707,5.647-1.012,2.148a17.2,17.2,0,0,0-1.8,7.291,7.248,7.248,0,0,0,2.052,5.543,8.357,8.357,0,0,0,5.9,1.931A19.633,19.633,0,0,0,141.4,67.5a35.037,35.037,0,0,0,6.678-3.221,52.71,52.71,0,0,0,6.424-4.664c1.256-1.062,2.527-2.221,4-3.649l3.021-2.926L159.271,56.6c-2.528,3.991-4.826,7.62-7.146,11.31h5.009a57.552,57.552,0,0,1,3.5-6.866,35.737,35.737,0,0,1,4.046-5.653h0q.662-.747,1.317-1.47l-.731-.728,11.9-17.335h-4.639c-3.6,5.558-7.134,11.07-10.514,16.389l-.173.275-.024.037-.03.033a70.235,70.235,0,0,1-8.437,7.852,49.138,49.138,0,0,1-8.785,5.581,18.2,18.2,0,0,1-7.663,2.115,4.652,4.652,0,0,1-2.525-.654,4.751,4.751,0,0,1-1.608-1.661,7.461,7.461,0,0,1-.824-2.161A11.2,11.2,0,0,1,131.7,61.3a18.308,18.308,0,0,1,.69-4.939,20.832,20.832,0,0,1,1.774-4.43l.086-.156-.019,0,.395-.869a32.025,32.025,0,0,1,2.879-4.883,39.957,39.957,0,0,1,4.233-5.108,30.816,30.816,0,0,1,4.737-4A11.75,11.75,0,0,1,148.3,35.89a22.429,22.429,0,0,0-3.948,1.73,38.311,38.311,0,0,0-14.134,13.59l-.022.037-.029.033ZM101.8,53.591l-1.58,3.229c-.114.232-.231.471-.334.7a11.672,11.672,0,0,0-1.2,4.74,5.774,5.774,0,0,0,1.984,4.71,7.261,7.261,0,0,0,4.818,1.708,12.282,12.282,0,0,0,3.63-.58,11.059,11.059,0,0,1-2.958.427,6.167,6.167,0,0,1-3.131-.788,3.161,3.161,0,0,1-1.5-2.979,10.138,10.138,0,0,1,1.1-4.2,56,56,0,0,1,3.151-5.624c1.358-2.179,3.073-4.834,5.1-7.889,2-3.009,4.3-6.641,6.861-10.795l.146-.238h12.845l.077-.154H117.995l7.59-11.145h-4.554l-7.493,11.145H108.2l-.077.154h5.289l-.489.768c-1.767,2.777-3.531,5.464-5.244,7.986-1.681,2.475-3.214,4.8-4.556,6.905-.248.391-.5.806-.781,1.268l-.02.033L102.3,53ZM86.948,35.241a3.776,3.776,0,0,1,2.317.676,2.507,2.507,0,0,1,.969,2.129,10.479,10.479,0,0,1-2.4,5.868c-1.542,2.118-3.26,4.355-5.107,6.648-1.835,2.277-3.539,4.577-5.066,6.835a11.046,11.046,0,0,0-2.221,6.014,4.71,4.71,0,0,0,1.648,3.845,6.461,6.461,0,0,0,4.29,1.42,10.508,10.508,0,0,0,4.082-.873q.59-.249,1.188-.552a12.172,12.172,0,0,1-5.174,1.273,2.867,2.867,0,0,1-3.19-3.19,6.945,6.945,0,0,1,1.175-3.377c.737-1.252,1.667-2.655,2.763-4.17,1.077-1.489,2.276-3.093,3.564-4.767,1.259-1.635,2.449-3.276,3.538-4.877a45.68,45.68,0,0,0,2.709-4.465,7.763,7.763,0,0,0,1.046-3.42,5,5,0,0,0-1.438-3.73,5.587,5.587,0,0,0-4.113-1.438,12.38,12.38,0,0,0-6.326,1.9,36.634,36.634,0,0,0-6.3,4.787,68.481,68.481,0,0,0-5.724,6.057c-1.607,1.923-3.29,3.936-4.709,5.621l-.352.418-.875-.88L75.561,35.9l-4.948.228c-1.239,2.007-2.69,4.312-4.428,7.036-1.656,2.593-3.451,5.375-5.334,8.268-2.047,3.138-3.885,5.966-5.62,8.644-1.7,2.632-3.342,5.261-4.874,7.828h4.765a57.666,57.666,0,0,1,3.063-5.293c1.4-2.2,3.021-4.535,4.823-6.948,1.78-2.384,3.743-4.818,5.836-7.233a88.629,88.629,0,0,1,6.28-6.571,36.662,36.662,0,0,1,6.188-4.772A11.263,11.263,0,0,1,86.948,35.241ZM279.426,58.02l-.362.364a66.344,66.344,0,0,1-5.616,5.034,40.876,40.876,0,0,1-4.506,3.138,36.1,36.1,0,0,0,3.987-2.677,57.381,57.381,0,0,0,5.619-4.953c.174-.174.346-.354.512-.528C279.182,58.272,279.3,58.145,279.426,58.02ZM241.914,36.241a11.137,11.137,0,0,0-6.149,2.407,33.538,33.538,0,0,0-6.625,6.295,39.69,39.69,0,0,0-5.267,8.492,21.252,21.252,0,0,0-2.115,8.822,5.087,5.087,0,0,0,.81,3.108,2.518,2.518,0,0,0,2.149,1,7.892,7.892,0,0,0,3.6-1.141,27.91,27.91,0,0,0,4.528-3.161,46.069,46.069,0,0,0,4.7-4.61,39.162,39.162,0,0,0,4.128-5.549,34.972,34.972,0,0,0,2.935-5.967,16.272,16.272,0,0,0,1.122-5.685,3.641,3.641,0,0,0-3.824-4.015Zm-90.789,0a7.524,7.524,0,0,0-4.092,1.5,29.821,29.821,0,0,0-4.581,3.875,38.952,38.952,0,0,0-4.126,4.979,34.781,34.781,0,0,0-2.349,3.821,42.06,42.06,0,0,0,4.225-1.264,38.057,38.057,0,0,0,6.021-2.7,21.442,21.442,0,0,0,4.93-3.707,6.053,6.053,0,0,0,1.971-4.31,2.177,2.177,0,0,0-.562-1.653A2.008,2.008,0,0,0,151.124,36.241Zm197.332,0a7.523,7.523,0,0,0-4.091,1.5,29.821,29.821,0,0,0-4.582,3.875,38.88,38.88,0,0,0-4.126,4.979,34.786,34.786,0,0,0-2.349,3.821,42.06,42.06,0,0,0,4.225-1.264,38.057,38.057,0,0,0,6.021-2.7,21.442,21.442,0,0,0,4.93-3.707,6.053,6.053,0,0,0,1.971-4.31,2.177,2.177,0,0,0-.562-1.653A2.009,2.009,0,0,0,348.457,36.241Zm-197.332-1a3,3,0,0,1,2.118.807,3.12,3.12,0,0,1,.879,2.383,7.093,7.093,0,0,1-2.256,5.009,22.434,22.434,0,0,1-5.158,3.882,39.086,39.086,0,0,1-4.572,2.174,62.047,62.047,0,0,0,7.278-3.011,28.322,28.322,0,0,0,6-3.869c1.543-1.336,2.325-2.712,2.325-4.088A2.941,2.941,0,0,0,156.589,36a5.685,5.685,0,0,0-3.447-.909,14.443,14.443,0,0,0-2.078.153Zm197.332,0a3.005,3.005,0,0,1,2.119.807,3.12,3.12,0,0,1,.879,2.383A7.093,7.093,0,0,1,349.2,43.44a22.434,22.434,0,0,1-5.158,3.882A39.087,39.087,0,0,1,339.47,49.5a62.045,62.045,0,0,0,7.278-3.011,28.321,28.321,0,0,0,6-3.869c1.543-1.336,2.325-2.712,2.325-4.088A2.941,2.941,0,0,0,353.922,36a5.685,5.685,0,0,0-3.447-.909,14.442,14.442,0,0,0-2.078.153Zm32.692,2.506.694.7-.192.331a7.627,7.627,0,0,0-.99,3.88,6.634,6.634,0,0,0,1.727,4.883,6.159,6.159,0,0,0,4.595,1.726,8.838,8.838,0,0,0,2.112-.255,7.6,7.6,0,0,1-1.247.1,4,4,0,0,1-3.113-1.418,5.535,5.535,0,0,1-1.23-3.79,9.752,9.752,0,0,1,1.618-5.414,27.02,27.02,0,0,1,2.52-3.313q-.324-.026-.643-.046c-.535-.031-1.156-.047-1.843-.047-1.324,0-1.791.269-1.951.43a5.389,5.389,0,0,0-.963,1.407l-.059.119-.11.074Q381.613,37.424,381.149,37.747Zm-197.333,0,.694.7-.192.331a7.627,7.627,0,0,0-.99,3.88,6.634,6.634,0,0,0,1.728,4.883,6.159,6.159,0,0,0,4.594,1.726,8.838,8.838,0,0,0,2.112-.255,7.6,7.6,0,0,1-1.247.1A4,4,0,0,1,187.4,47.7a5.535,5.535,0,0,1-1.23-3.79,9.752,9.752,0,0,1,1.618-5.414,27.022,27.022,0,0,1,2.52-3.313q-.324-.026-.642-.046c-.536-.031-1.157-.047-1.844-.047-1.324,0-1.791.269-1.951.43a5.363,5.363,0,0,0-.963,1.407l-.059.119-.111.074Q184.28,37.424,183.816,37.747Zm102.2-13.42a3.4,3.4,0,0,1-2.573-1.069,3.876,3.876,0,0,1,0-5.2,3.63,3.63,0,0,1,5.145,0,3.878,3.878,0,0,1,0,5.2A3.4,3.4,0,0,1,286.012,24.327Zm0-6.341a2.411,2.411,0,0,0-1.847.757,2.877,2.877,0,0,0,0,3.827,2.632,2.632,0,0,0,3.693,0,2.88,2.88,0,0,0,0-3.829A2.41,2.41,0,0,0,286.012,17.986Z" transform="translate(0 566)" fill="rgba(0,0,0,0)"/>
    <path id="合体_14" data-name="合体 14" d="M301,67.637a5.229,5.229,0,0,1-1.826-4.226,11.47,11.47,0,0,1,2.308-6.294q2.3-3.409,5.091-6.869t5.091-6.63q2.306-3.168,2.306-5.572a2.027,2.027,0,0,0-.769-1.73,3.279,3.279,0,0,0-2.017-.576,10.735,10.735,0,0,0-5.38,1.778,36.023,36.023,0,0,0-6.1,4.707,87.712,87.712,0,0,0-6.244,6.533q-3.123,3.6-5.812,7.205t-4.8,6.917a54.42,54.42,0,0,0-3.172,5.525H273.71q2.5-4.227,5.333-8.6t5.62-8.647c.663-1.017,1.3-2.008,1.948-3-.041.022-.08.049-.121.071a11.977,11.977,0,0,1-5.667,1.537,8.517,8.517,0,0,1-4.612-1.2,9.377,9.377,0,0,1-2.977-2.834h-.193a28.458,28.458,0,0,1-3.554,7.782,39.886,39.886,0,0,1-6.2,7.59,35.542,35.542,0,0,1-7.924,5.765,18.586,18.586,0,0,1-8.839,2.3q-4.132,0-6.245-2.4a9.386,9.386,0,0,1-2.114-6.437,12.24,12.24,0,0,1,.559-3.414c-.748.787-1.5,1.575-2.287,2.358a57.683,57.683,0,0,1-5.668,4.995,33.8,33.8,0,0,1-5.62,3.555,11.566,11.566,0,0,1-5.044,1.345,4.816,4.816,0,0,1-3.844-1.441,4.744,4.744,0,0,1-1.249-3.17,11.42,11.42,0,0,1,.913-4.275,38.265,38.265,0,0,1,2.93-5.525c.493-.8,1.058-1.68,1.659-2.6a95.439,95.439,0,0,1-7.9,8.222,50.975,50.975,0,0,1-8.312,6.293,15.518,15.518,0,0,1-7.927,2.5,7.714,7.714,0,0,1-5.139-1.825,6.3,6.3,0,0,1-2.162-5.092,12.082,12.082,0,0,1,1.249-4.947l.009-.019c-.636.663-1.269,1.328-1.929,1.989a57.787,57.787,0,0,1-5.668,4.995,33.8,33.8,0,0,1-5.62,3.555,11.563,11.563,0,0,1-5.044,1.345,4.814,4.814,0,0,1-3.844-1.441,4.74,4.74,0,0,1-1.249-3.17,11.418,11.418,0,0,1,.913-4.275,29.3,29.3,0,0,1,1.426-2.937c-.863.961-1.734,1.9-2.625,2.792a49.864,49.864,0,0,1-7.59,6.484,12.562,12.562,0,0,1-6.917,2.546,6.806,6.806,0,0,1-4.564-1.3,4.194,4.194,0,0,1-1.489-3.314,8.648,8.648,0,0,1,.769-3.555,33.679,33.679,0,0,1,1.537-3.074l-.194-.1q-1.536,1.729-3.409,3.7a43.693,43.693,0,0,1-3.987,3.7,21.328,21.328,0,0,1-4.469,2.834,11.3,11.3,0,0,1-4.851,1.105,6.75,6.75,0,0,1-5.332-2.113,7.283,7.283,0,0,1-1.875-5,13.4,13.4,0,0,1,.423-3.247,52.342,52.342,0,0,1-5.369,5.072,36.655,36.655,0,0,1-5.572,3.8,10.845,10.845,0,0,1-5.142,1.489,6,6,0,0,1-4.275-1.489A5.209,5.209,0,0,1,102.8,63.7a11.027,11.027,0,0,1,.625-3.7,15.894,15.894,0,0,1,.912-2.258l-.191-.193q-2.02,2.306-4.228,4.42a41.028,41.028,0,0,1-4.42,3.7,23.314,23.314,0,0,1-4.467,2.545,11.361,11.361,0,0,1-4.468.961q-3.077,0-4.42-1.393A4.607,4.607,0,0,1,80.8,64.467a12.378,12.378,0,0,1,1.3-5.188c.176-.38.376-.774.581-1.173-.718.779-1.44,1.543-2.164,2.276a46.853,46.853,0,0,1-7.542,6.293,13.264,13.264,0,0,1-7.254,2.5,8.44,8.44,0,0,1-3.892-.816A7.466,7.466,0,0,1,59.183,66.1a9.551,9.551,0,0,1-1.537-3.265,15.007,15.007,0,0,1-.481-3.845A35.87,35.87,0,0,1,58.7,48.47q1.535-5.045,3.459-9.944H49q-4.709,5.959-9.7,11.48a105.794,105.794,0,0,1-10.04,9.8,52.462,52.462,0,0,1-10.04,6.821,21.136,21.136,0,0,1-9.607,2.546,14.415,14.415,0,0,1-5.045-.72,8.182,8.182,0,0,1-2.882-1.729A5.137,5.137,0,0,1,.337,64.611,6.861,6.861,0,0,1,0,62.641a4.212,4.212,0,0,1,.961-2.785A3.306,3.306,0,0,1,3.652,58.7a2.935,2.935,0,0,1,2.4,1.057,3.825,3.825,0,0,1,.865,2.5,3.547,3.547,0,0,1-.48,1.73,2,2,0,0,1-1.346,1.057,4.072,4.072,0,0,0,2.4,1.777,11.581,11.581,0,0,0,3.17.434,18.7,18.7,0,0,0,8.7-2.4,53.037,53.037,0,0,0,9.223-6.294,102.5,102.5,0,0,0,9.271-8.839q4.613-4.946,8.839-10.136,1.824-2.306,4.563-5.668t6.2-7.3Q60.912,22.674,65,18.591a100.647,100.647,0,0,1,8.695-7.736A79.47,79.47,0,0,1,83.3,4.324,43.8,43.8,0,0,1,93.482,0l.288.384a66.1,66.1,0,0,0-6.822,7.4q-3.555,4.42-6.965,9.56T73.5,28.15a124.479,124.479,0,0,0-5.428,11.289,84.955,84.955,0,0,0-3.749,10.809,36.947,36.947,0,0,0-1.392,9.511A11.406,11.406,0,0,0,63.94,64.8q1.007,2.067,4.082,2.066a8.662,8.662,0,0,0,4.18-1.346,32.858,32.858,0,0,0,4.947-3.554,66.116,66.116,0,0,0,5.14-4.9q1.362-1.439,2.652-2.864c.246-.387.491-.771.756-1.171q2.307-3.46,5.525-7.783t7.061-9.9h6.34q-3.745,5.094-7.2,9.7t-6.15,8.454q-2.691,3.845-4.276,6.677a10.133,10.133,0,0,0-1.585,4.468,2.961,2.961,0,0,0,.77,2.258,2.827,2.827,0,0,0,2.018.72,8.568,8.568,0,0,0,3.987-1.153,28.171,28.171,0,0,0,4.42-2.978,51.338,51.338,0,0,0,4.419-4.035q2.161-2.21,4.035-4.372t3.266-3.987q1.392-1.823,2.066-2.882l8.455-12.875h6.629q-5.189,7.112-8.791,12.057t-5.861,8.407a42.63,42.63,0,0,0-3.218,5.62,9.569,9.569,0,0,0-.961,3.794,2.986,2.986,0,0,0,.673,1.97,2.345,2.345,0,0,0,1.922.817,9.335,9.335,0,0,0,4.418-1.394,33.6,33.6,0,0,0,5.188-3.649,61,61,0,0,0,5.333-5.092c.471-.506.918-1.008,1.375-1.511a25.1,25.1,0,0,1,1.553-3.149,42.566,42.566,0,0,1,6.966-8.935,44.6,44.6,0,0,1,8.983-6.917,18.006,18.006,0,0,1,8.934-2.787,6.287,6.287,0,0,1,6.628,6.822h.289L183.695,1.922h6.34q-3.746,5.958-8.166,12.585T173.03,27.67q-4.421,6.534-8.5,12.634T157.273,51.5q-3.171,5.092-5.044,8.791t-1.874,5.428a2.51,2.51,0,0,0,.528,1.681,1.957,1.957,0,0,0,1.585.625,10.662,10.662,0,0,0,5.477-1.922,49.106,49.106,0,0,0,7.4-6.053,86.632,86.632,0,0,0,7.22-8.018c1.018-1.562,2.168-3.278,3.491-5.192q3.217-4.659,7.734-11.481h6.149Q184.653,42.948,181,48.134t-5.909,8.647a59.325,59.325,0,0,0-3.267,5.476,7.839,7.839,0,0,0-1.008,3.266q0,2.5,2.017,2.5a9.6,9.6,0,0,0,4.468-1.394,37.943,37.943,0,0,0,5.332-3.6,65.369,65.369,0,0,0,5.573-4.995c1.313-1.314,2.551-2.617,3.752-3.915.5-.878,1.031-1.78,1.626-2.715q2.018-3.17,4.564-6.917t5.236-7.974H198.2l.577-1.154h5.379l7.5-11.145h5.764l-7.59,11.145h12.682l-.576,1.154H209.056q-3.845,6.245-6.871,10.807T197.093,55.2a55.244,55.244,0,0,0-3.121,5.573,9.6,9.6,0,0,0-1.057,3.987,2.687,2.687,0,0,0,1.249,2.546,5.661,5.661,0,0,0,2.882.721,14.588,14.588,0,0,0,7.638-2.643,56.826,56.826,0,0,0,8.31-6.484,105.549,105.549,0,0,0,7.88-8.167c1.049-1.21,2.014-2.359,2.928-3.468.1-.144.189-.276.29-.423q3.22-4.659,7.734-11.481h6.15q-5.285,7.592-8.935,12.778t-5.908,8.647a59.322,59.322,0,0,0-3.267,5.476,7.866,7.866,0,0,0-1.008,3.266q0,2.5,2.018,2.5a9.6,9.6,0,0,0,4.467-1.394,37.942,37.942,0,0,0,5.332-3.6,65.234,65.234,0,0,0,5.574-4.995c1.161-1.162,2.264-2.315,3.337-3.465a29.387,29.387,0,0,1,2.57-4.75,43.093,43.093,0,0,1,4.42-5.572,37.979,37.979,0,0,1,5.524-4.9,28.1,28.1,0,0,1,6.293-3.459,18.208,18.208,0,0,1,6.677-1.3,7.951,7.951,0,0,1,6.1,2.306,9.1,9.1,0,0,1,2.354,5.957,6.52,6.52,0,0,0,2.066,4.083,6.945,6.945,0,0,0,5.14,1.874,10.85,10.85,0,0,0,5.429-1.442,19.587,19.587,0,0,0,1.664-1.076c.737-1.144,1.468-2.281,2.177-3.392q2.545-3.985,4.564-7.254l6.245-.288L288.122,52.938l.192.192q2.018-2.4,4.708-5.62a68.666,68.666,0,0,1,5.764-6.1,36.877,36.877,0,0,1,6.389-4.852,12.813,12.813,0,0,1,6.581-1.97,6.045,6.045,0,0,1,4.468,1.585,5.532,5.532,0,0,1,1.585,4.084,8.19,8.19,0,0,1-1.1,3.651,46.069,46.069,0,0,1-2.739,4.514q-1.635,2.4-3.555,4.9t-3.554,4.756q-1.635,2.259-2.739,4.131a6.552,6.552,0,0,0-1.1,3.123,2.377,2.377,0,0,0,2.689,2.69,12.818,12.818,0,0,0,6.534-2.066A44.336,44.336,0,0,0,320.5,58.99q1.922-1.92,3.892-4.226t3.794-4.563q1.825-2.257,3.316-4.276t2.353-3.362l.673.384q-1.925,2.881-4.949,6.869T323,57.646q-2.115,2.306-4.324,4.419a40.923,40.923,0,0,1-4.42,3.7,22.732,22.732,0,0,1-4.37,2.5,10.949,10.949,0,0,1-4.275.912A6.913,6.913,0,0,1,301,67.637Zm-41.119-30.6a26.567,26.567,0,0,0-4.659,3.411,34.823,34.823,0,0,0-4.468,4.9,51.078,51.078,0,0,0-3.794,5.764,32.19,32.19,0,0,0-2.641,5.957,18.2,18.2,0,0,0-.961,5.572,7.026,7.026,0,0,0,.961,3.94,3.231,3.231,0,0,0,2.882,1.441,10.6,10.6,0,0,0,5.14-1.394,23.206,23.206,0,0,0,4.9-3.649,34.636,34.636,0,0,0,4.372-5.142,43.387,43.387,0,0,0,3.505-5.955,39.149,39.149,0,0,0,2.354-6.006,19,19,0,0,0,.864-5.332,5.663,5.663,0,0,0-1.009-3.411A3.6,3.6,0,0,0,264.2,35.74,8.886,8.886,0,0,0,259.877,37.037Zm-112.548.049a26.562,26.562,0,0,0-4.756,3.555,44.576,44.576,0,0,0-4.66,5.044,50.431,50.431,0,0,0-3.987,5.764,37.577,37.577,0,0,0-2.786,5.718,14.282,14.282,0,0,0-1.057,5,6.685,6.685,0,0,0,.769,3.362,2.926,2.926,0,0,0,2.786,1.346,8.041,8.041,0,0,0,3.987-1.346,33.884,33.884,0,0,0,4.756-3.506,47.766,47.766,0,0,0,4.9-4.948,65.759,65.759,0,0,0,4.325-5.572,35.58,35.58,0,0,0,3.122-5.429,11.387,11.387,0,0,0,1.2-4.563,9.864,9.864,0,0,0-.77-4.036q-.77-1.731-3.554-1.73A8.783,8.783,0,0,0,147.329,37.085ZM76.716,9.608a104.806,104.806,0,0,0-9.463,8.069q-4.612,4.421-8.983,9.415t-8.5,10.282H62.642A131.736,131.736,0,0,1,72.873,19.888,104.506,104.506,0,0,1,86.854,3.651l-.193-.193A61.869,61.869,0,0,0,76.716,9.608Zm164.62,13.3a3.379,3.379,0,0,1,0-4.515,3.131,3.131,0,0,1,4.419,0,3.379,3.379,0,0,1,0,4.515,3.131,3.131,0,0,1-4.419,0Zm-48.036,0a3.379,3.379,0,0,1,0-4.515,3.131,3.131,0,0,1,4.419,0,3.379,3.379,0,0,1,0,4.515,3.131,3.131,0,0,1-4.419,0Z" transform="translate(48.5 643.449)" fill="#fff"/>
    <path id="合体_14_-_アウトライン" data-name="合体 14 - アウトライン" d="M305.609,69.674a7.429,7.429,0,0,1-4.935-1.655,5.729,5.729,0,0,1-2-4.609,12,12,0,0,1,2.393-6.574c1.548-2.289,3.269-4.611,5.116-6.9s3.551-4.514,5.076-6.611a9.543,9.543,0,0,0,2.21-5.278,1.543,1.543,0,0,0-.569-1.33,2.812,2.812,0,0,0-1.716-.476,10.3,10.3,0,0,0-5.124,1.708,35.7,35.7,0,0,0-6.016,4.642,87.6,87.6,0,0,0-6.208,6.5c-2.065,2.382-4.012,4.8-5.789,7.177-1.79,2.4-3.4,4.715-4.782,6.887a54.181,54.181,0,0,0-3.142,5.472l-.136.284h-7.149l.447-.755c1.666-2.816,3.464-5.715,5.344-8.617,1.727-2.666,3.566-5.495,5.62-8.648.332-.509.662-1.016.986-1.516a11.8,11.8,0,0,1-4.408.9,9.045,9.045,0,0,1-4.878-1.278,10.356,10.356,0,0,1-2.652-2.319,30.328,30.328,0,0,1-3.383,7.109,40.578,40.578,0,0,1-6.276,7.685A36.2,36.2,0,0,1,255.6,67.31a19.164,19.164,0,0,1-9.074,2.364c-2.894,0-5.121-.865-6.621-2.572a9.907,9.907,0,0,1-2.238-6.767,10.582,10.582,0,0,1,.157-1.75c-.329.339-.677.693-1.031,1.048a58.486,58.486,0,0,1-5.718,5.039,34.453,34.453,0,0,1-5.7,3.607,12.112,12.112,0,0,1-5.265,1.4,5.307,5.307,0,0,1-4.222-1.614,5.252,5.252,0,0,1-1.371-3.5,11.969,11.969,0,0,1,.95-4.462,31.153,31.153,0,0,1,1.746-3.535q-2.105,2.206-4.258,4.185a51.721,51.721,0,0,1-8.394,6.354,16.072,16.072,0,0,1-8.183,2.569,8.233,8.233,0,0,1-5.461-1.943,6.8,6.8,0,0,1-2.339-5.474,10.466,10.466,0,0,1,.442-2.885l-.259.261a58.583,58.583,0,0,1-5.718,5.039,34.469,34.469,0,0,1-5.7,3.607,12.111,12.111,0,0,1-5.264,1.4,5.3,5.3,0,0,1-4.222-1.614,5.247,5.247,0,0,1-1.371-3.5,11.955,11.955,0,0,1,.943-4.446q-.188.192-.372.376h0a50.608,50.608,0,0,1-7.667,6.549,13.1,13.1,0,0,1-7.2,2.632,7.306,7.306,0,0,1-4.892-1.42,4.692,4.692,0,0,1-1.66-3.691,9.181,9.181,0,0,1,.812-3.759q.108-.244.217-.481-.71.765-1.464,1.558a44.379,44.379,0,0,1-4.033,3.74,21.933,21.933,0,0,1-4.573,2.9,11.851,11.851,0,0,1-5.063,1.152,7.255,7.255,0,0,1-5.706-2.282,7.8,7.8,0,0,1-2-5.327,12.823,12.823,0,0,1,.113-1.672,51.5,51.5,0,0,1-4.244,3.885,37.314,37.314,0,0,1-5.648,3.847,11.379,11.379,0,0,1-5.381,1.549,6.507,6.507,0,0,1-4.617-1.624A5.714,5.714,0,0,1,102.3,63.7a11.577,11.577,0,0,1,.654-3.865q.065-.186.127-.359c-.919.987-1.862,1.943-2.817,2.856a41.734,41.734,0,0,1-4.474,3.744,23.915,23.915,0,0,1-4.563,2.6,11.907,11.907,0,0,1-4.663,1c-2.181,0-3.789-.52-4.78-1.546A5.11,5.11,0,0,1,80.3,64.467a11.726,11.726,0,0,1,.726-3.892l-.156.159a47.565,47.565,0,0,1-7.623,6.359,13.81,13.81,0,0,1-7.529,2.581A8.968,8.968,0,0,1,61.6,68.8a7.993,7.993,0,0,1-2.816-2.407,10.094,10.094,0,0,1-1.617-3.434,15.573,15.573,0,0,1-.5-3.972,36.536,36.536,0,0,1,1.559-10.665c.947-3.114,2.025-6.238,3.206-9.3H49.242c-3.076,3.884-6.3,7.69-9.576,11.316a106.791,106.791,0,0,1-10.087,9.846,53.2,53.2,0,0,1-10.137,6.885,21.724,21.724,0,0,1-9.833,2.6,14.959,14.959,0,0,1-5.224-.753,8.7,8.7,0,0,1-3.056-1.842,5.655,5.655,0,0,1-1.47-2.322A7.383,7.383,0,0,1-.5,62.641,4.717,4.717,0,0,1,.577,59.536,3.8,3.8,0,0,1,3.652,58.2,3.422,3.422,0,0,1,6.44,59.442a4.329,4.329,0,0,1,.978,2.814,4.057,4.057,0,0,1-.542,1.972,2.654,2.654,0,0,1-.989,1.04,3.544,3.544,0,0,0,1.743,1.07,11.141,11.141,0,0,0,3.035.415,18.3,18.3,0,0,0,8.463-2.345,52.78,52.78,0,0,0,9.136-6.235,102.48,102.48,0,0,0,9.225-8.8c3.035-3.254,6-6.654,8.814-10.107,1.117-1.412,2.568-3.214,4.566-5.672,1.8-2.21,3.889-4.672,6.21-7.316,2.3-2.625,4.849-5.332,7.564-8.046a101.643,101.643,0,0,1,8.738-7.774A80.352,80.352,0,0,1,83.049,3.89a44.493,44.493,0,0,1,10.3-4.372l.329-.091L94.443.448l-.336.306A65.907,65.907,0,0,0,87.338,8.1c-2.35,2.922-4.684,6.126-6.938,9.523s-4.435,7.032-6.462,10.77a124.588,124.588,0,0,0-5.406,11.243,84.841,84.841,0,0,0-3.727,10.745,36.616,36.616,0,0,0-1.375,9.382,10.973,10.973,0,0,0,.959,4.824c.586,1.2,1.774,1.786,3.633,1.786a8.226,8.226,0,0,0,3.931-1.28,32.517,32.517,0,0,0,4.871-3.5,65.912,65.912,0,0,0,5.1-4.863c.844-.891,1.7-1.816,2.616-2.824.243-.382.482-.757.739-1.143,1.55-2.325,3.414-4.951,5.541-7.805,2.139-2.875,4.512-6.2,7.051-9.881l.149-.216h7.591l-.585.8c-2.411,3.28-4.836,6.546-7.207,9.708-2.274,3.03-4.34,5.87-6.14,8.441-1.768,2.527-3.2,4.759-4.249,6.635a9.76,9.76,0,0,0-1.521,4.223,2.512,2.512,0,0,0,.611,1.893,2.327,2.327,0,0,0,1.676.585,8.118,8.118,0,0,0,3.752-1.094,27.807,27.807,0,0,0,4.341-2.926,51.08,51.08,0,0,0,4.376-4c1.427-1.459,2.778-2.923,4.014-4.35s2.335-2.767,3.246-3.963,1.609-2.165,2.042-2.847l0-.006,8.6-13.1h7.883l-.58.795c-3.187,4.367-6.144,8.424-8.791,12.057-2.406,3.306-4.373,6.128-5.846,8.386a42.383,42.383,0,0,0-3.18,5.55,9.131,9.131,0,0,0-.918,3.592,2.479,2.479,0,0,0,.558,1.651,1.856,1.856,0,0,0,1.537.636,8.907,8.907,0,0,0,4.175-1.331,33.268,33.268,0,0,0,5.111-3.6,60.8,60.8,0,0,0,5.288-5.05c.322-.346.639-.7.946-1.037l.366-.4a25.832,25.832,0,0,1,1.55-3.129,43.261,43.261,0,0,1,7.047-9.04,45.319,45.319,0,0,1,9.084-6.993,18.574,18.574,0,0,1,9.185-2.855,6.949,6.949,0,0,1,5.263,2.078,6.741,6.741,0,0,1,1.823,4.035L183.418,1.422h7.521l-.482.766c-2.468,3.926-5.218,8.163-8.173,12.6-3.017,4.524-5.992,8.954-8.841,13.165-2.947,4.355-5.807,8.605-8.5,12.632-2.685,4.009-5.122,7.77-7.245,11.18-2.1,3.367-3.786,6.312-5.022,8.753-1.208,2.384-1.82,4.134-1.82,5.2a2.019,2.019,0,0,0,.41,1.358,1.476,1.476,0,0,0,1.2.448,10.24,10.24,0,0,0,5.212-1.846A48.848,48.848,0,0,0,165,59.686a86.5,86.5,0,0,0,7.16-7.95c1.074-1.648,2.214-3.344,3.486-5.183,2.152-3.117,4.752-6.977,7.728-11.473l.148-.224h7.375l-.547.786c-3.407,4.9-6.413,9.2-8.936,12.78-2.434,3.458-4.418,6.363-5.9,8.633a59.124,59.124,0,0,0-3.239,5.426,7.42,7.42,0,0,0-.955,3.043c0,1.772.811,2,1.517,2a9.168,9.168,0,0,0,4.227-1.333,37.615,37.615,0,0,0,5.261-3.556,65.193,65.193,0,0,0,5.53-4.957c1.164-1.165,2.374-2.427,3.7-3.858.523-.926,1.05-1.805,1.611-2.687,1.362-2.139,2.9-4.47,4.572-6.929,1.548-2.281,3.14-4.7,4.737-7.193h-5.085l1.077-2.154h5.422l7.5-11.145h6.975l-7.59,11.145h12.545l-1.075,2.154h-12.9c-2.5,4.061-4.767,7.62-6.733,10.584-2.015,3.04-3.726,5.686-5.085,7.867a54.969,54.969,0,0,0-3.093,5.52,9.158,9.158,0,0,0-1.01,3.775,2.21,2.21,0,0,0,1,2.113,5.192,5.192,0,0,0,2.632.654,14.176,14.176,0,0,0,7.371-2.566,56.589,56.589,0,0,0,8.236-6.427,105.531,105.531,0,0,0,7.842-8.129c.968-1.118,1.919-2.244,2.907-3.442l.158-.23.119-.174c2.112-3.056,4.712-6.916,7.729-11.474l.148-.224h7.376l-.547.786c-3.435,4.935-6.442,9.235-8.937,12.78-2.421,3.441-4.406,6.346-5.9,8.633a59.127,59.127,0,0,0-3.239,5.426,7.449,7.449,0,0,0-.955,3.043c0,1.772.811,2,1.518,2a9.167,9.167,0,0,0,4.227-1.333,37.615,37.615,0,0,0,5.261-3.556,65.089,65.089,0,0,0,5.531-4.957c1.028-1.029,2.1-2.138,3.265-3.388a30.108,30.108,0,0,1,2.578-4.749,43.793,43.793,0,0,1,4.471-5.637,38.654,38.654,0,0,1,5.6-4.964,28.729,28.729,0,0,1,6.4-3.52,18.8,18.8,0,0,1,6.859-1.331,8.462,8.462,0,0,1,6.465,2.464,9.619,9.619,0,0,1,2.488,6.263,6.07,6.07,0,0,0,1.92,3.765,6.5,6.5,0,0,0,4.786,1.727,10.41,10.41,0,0,0,5.183-1.377c.471-.267.963-.584,1.542-.992.8-1.24,1.494-2.323,2.124-3.309,1.71-2.678,3.244-5.116,4.56-7.248l.139-.225,7.543-.348-7.68,10.647c1.367-1.53,2.81-3.008,4.309-4.411a37.55,37.55,0,0,1,6.476-4.917,13.363,13.363,0,0,1,6.836-2.04,6.548,6.548,0,0,1,4.821,1.731,6.04,6.04,0,0,1,1.732,4.438,8.7,8.7,0,0,1-1.161,3.883,46.761,46.761,0,0,1-2.769,4.564c-1.1,1.619-2.3,3.275-3.572,4.924s-2.454,3.235-3.545,4.744c-1.077,1.488-1.99,2.864-2.713,4.092a6.125,6.125,0,0,0-1.035,2.869c0,1.515.675,2.19,2.189,2.19a12.391,12.391,0,0,0,6.277-2,44.079,44.079,0,0,0,8.162-6.887l0,0c1.255-1.253,2.555-2.665,3.865-4.2,1.331-1.56,2.6-3.092,3.786-4.553s2.3-2.9,3.3-4.259,1.773-2.461,2.335-3.335l.256-.4,1.551.886-.3.446c-1.306,1.955-2.977,4.274-4.967,6.893-2.009,2.648-4.233,5.3-6.612,7.868-1.427,1.556-2.89,3.05-4.345,4.441a41.632,41.632,0,0,1-4.474,3.744,23.341,23.341,0,0,1-4.467,2.553A11.49,11.49,0,0,1,305.609,69.674ZM311.18,35.24a3.777,3.777,0,0,1,2.317.676,2.51,2.51,0,0,1,.969,2.13,10.468,10.468,0,0,1-2.4,5.866c-1.534,2.11-3.252,4.347-5.106,6.65-1.83,2.27-3.535,4.569-5.067,6.835a11.047,11.047,0,0,0-2.222,6.014,4.713,4.713,0,0,0,1.648,3.844,6.459,6.459,0,0,0,4.291,1.42,10.5,10.5,0,0,0,4.081-.872q.58-.245,1.169-.543a12.161,12.161,0,0,1-5.155,1.264,2.866,2.866,0,0,1-3.189-3.19,6.941,6.941,0,0,1,1.174-3.377c.739-1.254,1.669-2.657,2.764-4.17s2.3-3.121,3.563-4.767,2.448-3.274,3.538-4.877a45.781,45.781,0,0,0,2.709-4.465,7.754,7.754,0,0,0,1.047-3.42,5.01,5.01,0,0,0-1.439-3.731,5.594,5.594,0,0,0-4.114-1.438,12.382,12.382,0,0,0-6.326,1.9,36.546,36.546,0,0,0-6.3,4.787,68.479,68.479,0,0,0-5.723,6.056c-1.8,2.149-3.38,4.041-4.709,5.622l-.351.417-.878-.878L299.793,35.9l-4.947.228c-1.287,2.082-2.776,4.448-4.429,7.036-.644,1.008-1.356,2.118-2.178,3.394l-.052.081-.079.056c-.249.177-.482.337-.706.485l.66-.344-1.446,2.231c-.5.769-1.013,1.564-1.535,2.363-2.054,3.153-3.892,5.981-5.619,8.646-1.7,2.632-3.342,5.261-4.874,7.828h4.765a57.644,57.644,0,0,1,3.063-5.294c1.4-2.193,3.019-4.53,4.824-6.948,1.791-2.4,3.755-4.834,5.835-7.234a88.628,88.628,0,0,1,6.28-6.57,36.693,36.693,0,0,1,6.188-4.772A11.26,11.26,0,0,1,311.18,35.24ZM239.787,55.078l-.584,1.985a11.791,11.791,0,0,0-.539,3.273,8.946,8.946,0,0,0,1.989,6.106,7.433,7.433,0,0,0,5.87,2.233,18.176,18.176,0,0,0,8.6-2.246,35.2,35.2,0,0,0,7.813-5.685,39.577,39.577,0,0,0,6.121-7.5,28.1,28.1,0,0,0,3.494-7.644l.1-.373h.85l.148.229a7.967,7.967,0,0,0,1.268,1.5,6.864,6.864,0,0,1-1.9-4.067v-.016a8.652,8.652,0,0,0-2.22-5.641,7.508,7.508,0,0,0-5.735-2.148,17.8,17.8,0,0,0-6.5,1.263,27.727,27.727,0,0,0-6.181,3.4,37.656,37.656,0,0,0-5.452,4.836,42.794,42.794,0,0,0-4.369,5.507,29.051,29.051,0,0,0-2.526,4.669l-.035.081-.06.065Zm-19.392-3.047.538.4c-.672,1.033-1.212,1.881-1.652,2.593a37.98,37.98,0,0,0-2.892,5.449,10.982,10.982,0,0,0-.877,4.088,4.224,4.224,0,0,0,1.128,2.843,4.368,4.368,0,0,0,3.466,1.268,9.178,9.178,0,0,0,2.642-.422,7.185,7.185,0,0,1-1.873.27c-.94,0-2.518-.39-2.518-3a8.238,8.238,0,0,1,1.061-3.489,60.04,60.04,0,0,1,3.3-5.526c1.5-2.3,3.49-5.211,5.918-8.661,2.361-3.355,5.18-7.385,8.387-11.99h-4.924c-2.957,4.466-5.51,8.255-7.591,11.266l-.116.17-.174.254-.025.033c-1,1.21-1.957,2.348-2.936,3.477Q220.826,51.545,220.395,52.031Zm-29.622,5.491a11.642,11.642,0,0,0-1.2,4.735,5.774,5.774,0,0,0,1.984,4.71,7.259,7.259,0,0,0,4.817,1.707,12.276,12.276,0,0,0,3.616-.575,11.048,11.048,0,0,1-2.943.423,6.177,6.177,0,0,1-3.132-.788,3.166,3.166,0,0,1-1.5-2.979,10.123,10.123,0,0,1,1.1-4.2,55.921,55.921,0,0,1,3.15-5.625c1.364-2.188,3.079-4.843,5.1-7.89,2-3.012,4.307-6.643,6.862-10.793l.146-.238H221.62l.077-.154H208.878l7.59-11.145h-4.552l-7.5,11.145h-5.337l-.077.154H204.3l-.489.769c-1.767,2.776-3.532,5.463-5.244,7.986-1.667,2.451-3.2,4.774-4.556,6.9-.561.882-1.089,1.763-1.612,2.692l-.029.051-.04.043q-.541.584-1.058,1.133l.846-.882ZM171.8,53.837l-2.045,3.754a28.91,28.91,0,0,0-1.4,2.885,10.978,10.978,0,0,0-.876,4.087,4.22,4.22,0,0,0,1.127,2.843,4.366,4.366,0,0,0,3.466,1.268,9.172,9.172,0,0,0,2.638-.421,7.188,7.188,0,0,1-1.87.269c-.94,0-2.517-.39-2.517-3a8.211,8.211,0,0,1,1.061-3.49,60.05,60.05,0,0,1,3.3-5.525c1.487-2.279,3.478-5.193,5.918-8.661,2.386-3.39,5.2-7.421,8.386-11.99h-4.923c-2.918,4.406-5.471,8.2-7.591,11.265-1.271,1.839-2.411,3.534-3.484,5.181l-.028.039q-1.095,1.371-2.211,2.671Zm-23.675,3.381,1.009.507-.262.458a33.354,33.354,0,0,0-1.514,3.029,8.189,8.189,0,0,0-.726,3.352,3.684,3.684,0,0,0,1.317,2.937,6.378,6.378,0,0,0,4.236,1.174,12.143,12.143,0,0,0,6.636-2.46,49.609,49.609,0,0,0,7.513-6.42l0,0c.426-.426.865-.881,1.337-1.385q-.987,1.033-1.979,2a49.814,49.814,0,0,1-7.481,6.118,11.188,11.188,0,0,1-5.743,2,2.438,2.438,0,0,1-1.967-.8,3,3,0,0,1-.646-2c0-1.244.631-3.093,1.928-5.654,1.249-2.467,2.953-5.438,5.065-8.83,2.129-3.419,4.572-7.19,7.263-11.207s5.556-8.279,8.5-12.636c2.848-4.21,5.821-8.637,8.837-13.16,2.758-4.138,5.338-8.106,7.676-11.807h-5.157L159.182,41.909H158.1l.017-.516a5.977,5.977,0,0,0-1.591-4.539,5.912,5.912,0,0,0-4.538-1.767,17.6,17.6,0,0,0-8.683,2.72,44.321,44.321,0,0,0-8.882,6.84,42.262,42.262,0,0,0-6.885,8.83,24.767,24.767,0,0,0-1.523,3.087l-.033.082-.06.066-.423.467c-.309.342-.629.7-.956,1.048a61.8,61.8,0,0,1-5.377,5.134,38.584,38.584,0,0,1-3.294,2.491c1.053-.7,2.118-1.482,3.185-2.35a52.093,52.093,0,0,0,5.318-5.024l1.325-1.432-.473,1.893a12.958,12.958,0,0,0-.408,3.126,6.825,6.825,0,0,0,1.749,4.664,6.222,6.222,0,0,0,4.958,1.945,10.86,10.86,0,0,0,4.639-1.058,20.934,20.934,0,0,0,4.364-2.769,43.383,43.383,0,0,0,3.941-3.656c1.223-1.285,2.366-2.526,3.4-3.687Zm-43.956-.358.8.8-.2.333a14.526,14.526,0,0,0-.87,2.168,10.582,10.582,0,0,0-.6,3.534,4.692,4.692,0,0,0,1.427,3.623,5.474,5.474,0,0,0,3.933,1.353,10.3,10.3,0,0,0,4.78-1.362,9.358,9.358,0,0,1-4.2,1.21,2.83,2.83,0,0,1-2.309-1,3.484,3.484,0,0,1-.787-2.287,10.1,10.1,0,0,1,1-4,43.319,43.319,0,0,1,3.257-5.691c1.5-2.3,3.425-5.061,5.875-8.428,2.486-3.412,5.245-7.2,8.212-11.263h-5.376L110.808,48.5c-.455.716-1.138,1.668-2.088,2.912-.924,1.212-2.029,2.562-3.286,4.011Q104.819,56.138,104.166,56.859Zm-19.418-1.7-1.628,3.176c-.2.4-.4.788-.572,1.154A11.949,11.949,0,0,0,81.3,64.467a4.088,4.088,0,0,0,1.2,2.966c.8.823,2.161,1.241,4.06,1.241a10.915,10.915,0,0,0,4.272-.921,22.912,22.912,0,0,0,4.371-2.491,40.723,40.723,0,0,0,4.366-3.654q.537-.513,1.067-1.043c-1.215,1.2-2.464,2.314-3.721,3.331a28.8,28.8,0,0,1-4.5,3.031A9.089,9.089,0,0,1,88.2,68.137a3.321,3.321,0,0,1-2.36-.856,3.443,3.443,0,0,1-.927-2.622,10.476,10.476,0,0,1,1.648-4.711c1.068-1.905,2.516-4.166,4.3-6.72,1.806-2.579,3.879-5.428,6.159-8.467,2.177-2.9,4.4-5.9,6.616-8.9H98.546c-2.49,3.606-4.818,6.866-6.923,9.694s-3.97,5.452-5.51,7.762c-.259.39-.5.772-.75,1.162l-.023.036-.029.032ZM48.757,38.026H62.894l-.268.683c-1.276,3.253-2.435,6.586-3.446,9.907A35.539,35.539,0,0,0,57.665,58.99a14.576,14.576,0,0,0,.464,3.717,9.1,9.1,0,0,0,1.457,3.1,7,7,0,0,0,2.467,2.11,7.991,7.991,0,0,0,3.663.761A12.842,12.842,0,0,0,72.7,66.258a46.569,46.569,0,0,0,7.461-6.226c.623-.631,1.286-1.327,2.021-2.122-1.551,1.608-3.131,3.1-4.7,4.44a33.511,33.511,0,0,1-5.024,3.608,9.179,9.179,0,0,1-4.428,1.412c-2.248,0-3.773-.79-4.532-2.347a11.951,11.951,0,0,1-1.06-5.263,37.607,37.607,0,0,1,1.409-9.641,85.834,85.834,0,0,1,3.77-10.873,125.571,125.571,0,0,1,5.449-11.334c2.04-3.763,4.23-7.413,6.507-10.846s4.623-6.651,6.992-9.6a70.059,70.059,0,0,1,6.064-6.7A42.47,42.47,0,0,0,86.9,3l.666.663-.372.354A104.5,104.5,0,0,0,73.284,20.173a131.845,131.845,0,0,0-10.192,17.42l-.137.282H48.743l.631-.808q.521-.667,1.047-1.33c-1.385,1.71-2.463,3.053-3.336,4.157l0,.006c-2.829,3.471-5.81,6.89-8.861,10.161A103.475,103.475,0,0,1,28.9,58.941a53.778,53.778,0,0,1-9.311,6.352,19.278,19.278,0,0,1-8.929,2.46A12.14,12.14,0,0,1,7.358,67.3a4.579,4.579,0,0,1-2.687-1.988l-.388-.6.7-.154A1.515,1.515,0,0,0,6,63.743a3.069,3.069,0,0,0,.416-1.486,3.31,3.31,0,0,0-.752-2.181A2.436,2.436,0,0,0,3.652,59.2a2.808,2.808,0,0,0-2.307.974A3.694,3.694,0,0,0,.5,62.641a6.4,6.4,0,0,0,.315,1.824,4.674,4.674,0,0,0,1.221,1.906,7.734,7.734,0,0,0,2.708,1.616,14.009,14.009,0,0,0,4.865.687,20.741,20.741,0,0,0,9.379-2.492,52.2,52.2,0,0,0,9.944-6.757,105.8,105.8,0,0,0,9.992-9.754C42.242,46,45.5,42.149,48.607,38.216ZM237.911,57.05c-.447.461-.883.9-1.312,1.334a66.088,66.088,0,0,1-5.617,5.034,40.6,40.6,0,0,1-4.529,3.152,36.009,36.009,0,0,0,4.011-2.692,57.486,57.486,0,0,0,5.619-4.952C236.74,58.268,237.374,57.612,237.911,57.05Zm-48.451.426q-.454.464-.9.908a66.173,66.173,0,0,1-5.616,5.033,40.637,40.637,0,0,1-4.513,3.143,36.1,36.1,0,0,0,3.995-2.682,57.58,57.58,0,0,0,5.619-4.952C188.526,58.446,189,57.956,189.459,57.476ZM50.8,36.874H62.329A133.015,133.015,0,0,1,72.462,19.6,104.318,104.318,0,0,1,84.728,5.022a63.031,63.031,0,0,0-7.711,4.986A104.776,104.776,0,0,0,67.6,18.039c-3.055,2.929-6.067,6.086-8.953,9.383C55.98,30.469,53.343,33.645,50.8,36.874Zm196.4,31.648a3.716,3.716,0,0,1-3.3-1.664,7.539,7.539,0,0,1-1.045-4.217,18.785,18.785,0,0,1,.985-5.725,32.84,32.84,0,0,1,2.682-6.049,51.807,51.807,0,0,1,3.831-5.82,35.484,35.484,0,0,1,4.533-4.971,27.183,27.183,0,0,1,4.748-3.475A9.413,9.413,0,0,1,264.2,35.24a4.084,4.084,0,0,1,3.527,1.6,6.179,6.179,0,0,1,1.1,3.7,19.591,19.591,0,0,1-.884,5.473,39.847,39.847,0,0,1-2.384,6.082,44.109,44.109,0,0,1-3.546,6.024,35.305,35.305,0,0,1-4.436,5.216,23.816,23.816,0,0,1-5.007,3.728A11.141,11.141,0,0,1,247.195,68.522ZM264.2,36.24a8.439,8.439,0,0,0-4.078,1.233,26.186,26.186,0,0,0-4.571,3.347,34.485,34.485,0,0,0-4.4,4.83,50.8,50.8,0,0,0-3.757,5.707,31.842,31.842,0,0,0-2.6,5.865,17.8,17.8,0,0,0-.937,5.419,6.584,6.584,0,0,0,.877,3.663,2.737,2.737,0,0,0,2.466,1.218,10.156,10.156,0,0,0,4.9-1.333,22.818,22.818,0,0,0,4.795-3.572A34.3,34.3,0,0,0,261.2,57.55a43.105,43.105,0,0,0,3.465-5.887,38.844,38.844,0,0,0,2.325-5.929,18.6,18.6,0,0,0,.844-5.19,5.2,5.2,0,0,0-.914-3.118A3.1,3.1,0,0,0,264.2,36.24ZM133.638,67.369a3.4,3.4,0,0,1-3.221-1.6,7.2,7.2,0,0,1-.834-3.609,14.84,14.84,0,0,1,1.089-5.173,38.272,38.272,0,0,1,2.823-5.794,51.163,51.163,0,0,1,4.027-5.821,45.282,45.282,0,0,1,4.713-5.1,27.171,27.171,0,0,1,4.846-3.621,9.308,9.308,0,0,1,4.524-1.411c2.064,0,3.413.682,4.011,2.027a10.4,10.4,0,0,1,.813,4.239,11.924,11.924,0,0,1-1.246,4.77,36.254,36.254,0,0,1-3.166,5.506,66.566,66.566,0,0,1-4.358,5.615,48.491,48.491,0,0,1-4.951,5,34.54,34.54,0,0,1-4.827,3.557A8.555,8.555,0,0,1,133.638,67.369ZM151.605,36.24a8.345,8.345,0,0,0-4.028,1.28,26.176,26.176,0,0,0-4.665,3.489A44.279,44.279,0,0,0,138.3,46a50.165,50.165,0,0,0-3.948,5.706,37.27,37.27,0,0,0-2.749,5.641,13.861,13.861,0,0,0-1.024,4.819,6.228,6.228,0,0,0,.7,3.113,2.448,2.448,0,0,0,2.353,1.095,7.607,7.607,0,0,0,3.731-1.276,33.544,33.544,0,0,0,4.685-3.454,47.486,47.486,0,0,0,4.848-4.9,65.558,65.558,0,0,0,4.292-5.53,35.252,35.252,0,0,0,3.078-5.352,10.967,10.967,0,0,0,1.157-4.356,9.417,9.417,0,0,0-.726-3.833C154.274,36.709,153.26,36.24,151.605,36.24Zm91.941-11.914a3.4,3.4,0,0,1-2.574-1.069,3.879,3.879,0,0,1,0-5.2,3.63,3.63,0,0,1,5.145,0,3.878,3.878,0,0,1,0,5.2A3.4,3.4,0,0,1,243.546,24.326Zm0-6.34a2.412,2.412,0,0,0-1.848.757,2.88,2.88,0,0,0,0,3.827,2.632,2.632,0,0,0,3.693,0,2.88,2.88,0,0,0,0-3.828A2.409,2.409,0,0,0,243.546,17.985Zm-48.036,6.34a3.4,3.4,0,0,1-2.574-1.069,3.879,3.879,0,0,1,0-5.2,3.63,3.63,0,0,1,5.145,0,3.878,3.878,0,0,1,0,5.2A3.4,3.4,0,0,1,195.511,24.326Zm0-6.34a2.412,2.412,0,0,0-1.848.757,2.88,2.88,0,0,0,0,3.827,2.632,2.632,0,0,0,3.693,0,2.88,2.88,0,0,0,0-3.828A2.409,2.409,0,0,0,195.511,17.985Z" transform="translate(48.5 643.449)" fill="rgba(0,0,0,0)"/>
  </g>
</svg>
